<?xml version="1.0" encoding="utf-8"?>
<!-- Generator: Adobe Illustrator 16.0.0, SVG Export Plug-In . SVG Version: 6.00 Build 0)  -->
<!DOCTYPE svg PUBLIC "-//W3C//DTD SVG 1.1//EN" "http://www.w3.org/Graphics/SVG/1.1/DTD/svg11.dtd">
<svg version="1.1" id="Capa_1" xmlns="http://www.w3.org/2000/svg" xmlns:xlink="http://www.w3.org/1999/xlink" x="0px" y="0px"
	 width="300px" height="179px" viewBox="0 0 300 179" enable-background="new 0 0 300 179" xml:space="preserve">
<g>
	<circle fill="#005E72" cx="150" cy="89.5" r="85.923"/>
	<path fill="#FFFFFF" stroke="#00BBE3" stroke-width="2" stroke-miterlimit="10" d="M207.746,118.415
		c0-9.654-7.033-17.663-16.254-19.191c-0.518-10.154-8.913-18.229-19.198-18.229c-2.607,0-5.094,0.522-7.362,1.463
		c-4.45-8.013-12.994-13.438-22.81-13.438c-13.261,0-24.202,9.901-25.853,22.712c-12.303,0.503-22.124,10.632-22.124,23.059
		c0,12.745,10.329,23.077,23.074,23.082l0,0h71.934v-0.022C199.498,137.398,207.746,128.871,207.746,118.415z"/>
	<path fill="#FFFFFF" stroke="#00BBE3" stroke-width="2" stroke-miterlimit="10" d="M97.927,97.854c0,0,4.569-7.563,15.441-9.138
		c0,0,5.356-26.943,35.135-22.688c0,0,1.261-3.624,7.092-5.672c0,0-2.994-18.592-21.587-19.222c0,0-12.132-0.63-18.907,11.029
		c0,0-16.858-5.83-21.9,13.077c0,0-13.234,2.836-13.077,17.489C80.123,82.728,82.014,97.854,97.927,97.854z"/>
	<path fill="#FFFFFF" stroke="#00BBE3" stroke-width="2" stroke-miterlimit="10" d="M151.497,66.972c0,0,4.727-4.884,10.084-4.884
		c0,0,1.261-13.078,16.229-14.653c0,0,10.714-0.157,14.495,8.824c0,0,14.969-4.569,17.805,10.714c0,0,9.61,0.788,9.769,12.132
		c0,0,0.158,10.714-11.975,12.447h-14.811c0,0-6.933-17.174-26.785-12.92C166.308,78.631,163.156,71.227,151.497,66.972z"/>
	<path fill="#14D000" d="M173.713,96.121c0,2.567-2.081,4.648-4.648,4.648h-38.575v-0.007c-2.506-0.07-4.517-2.119-4.517-4.641
		c0-2.567,2.081-4.648,4.648-4.648c0.096,0,0.19,0.009,0.286,0.014h37.871c0.096-0.005,0.19-0.014,0.286-0.014
		C171.632,91.473,173.713,93.554,173.713,96.121z M156.592,93.862c-1.247,0-2.258,1.012-2.258,2.259s1.011,2.259,2.258,2.259
		c1.248,0,2.259-1.012,2.259-2.259S157.84,93.862,156.592,93.862z M162.895,93.862c-1.247,0-2.258,1.012-2.258,2.259
		s1.011,2.259,2.258,2.259s2.259-1.012,2.259-2.259S164.142,93.862,162.895,93.862z M169.197,93.862
		c-1.248,0-2.259,1.012-2.259,2.259s1.011,2.259,2.259,2.259s2.258-1.012,2.258-2.259S170.445,93.862,169.197,93.862z"/>
	<path fill="#14D000" d="M173.713,109.355c0,2.567-2.081,4.648-4.648,4.648h-38.575v-0.006c-2.506-0.07-4.517-2.119-4.517-4.642
		c0-2.567,2.081-4.648,4.648-4.648c0.096,0,0.19,0.009,0.286,0.015h37.871c0.096-0.006,0.19-0.015,0.286-0.015
		C171.632,104.708,173.713,106.789,173.713,109.355z M156.592,107.097c-1.247,0-2.258,1.012-2.258,2.259s1.011,2.259,2.258,2.259
		c1.248,0,2.259-1.012,2.259-2.259S157.84,107.097,156.592,107.097z M162.895,107.097c-1.247,0-2.258,1.012-2.258,2.259
		s1.011,2.259,2.258,2.259s2.259-1.012,2.259-2.259S164.142,107.097,162.895,107.097z M169.197,107.097
		c-1.248,0-2.259,1.012-2.259,2.259s1.011,2.259,2.259,2.259s2.258-1.012,2.258-2.259S170.445,107.097,169.197,107.097z"/>
	<rect x="148.293" y="114.003" fill="#C8B700" width="3.781" height="5.263"/>
	<rect x="92.2" y="122.062" fill="#C8B700" width="48.346" height="4.363"/>
	<polygon fill="#C8B700" points="88.396,79.58 95.799,79.58 95.799,75.218 88.396,75.218 84.033,75.218 84.033,79.58 
		84.033,118.297 88.396,118.297 	"/>
	<path fill="#C99000" d="M92.2,122.062v-1.881c0-0.013,0.002-0.024,0.002-0.037c0-1.026-0.479-1.857-1.07-1.857
		c-0.019,0-0.036,0.008-0.056,0.01h-2.68h-4.363h-2.837c-0.019-0.002-0.036-0.01-0.056-0.01c-0.58,0-1.051,0.803-1.066,1.805H80.07
		v7.456h0.002c0,0.008-0.002,0.015-0.002,0.024c0,1.025,0.479,1.856,1.07,1.856h9.991c0.592,0,1.07-0.831,1.07-1.856
		c0-0.013-0.002-0.024-0.002-0.037v-1.111V122.062z"/>
	<polygon fill="#7C720C" points="95.799,82.567 106.198,82.567 106.198,72.169 95.799,72.169 95.799,75.218 95.799,79.58 	"/>
	<rect x="157.405" y="122.062" fill="#C8B700" width="52.942" height="4.363"/>
	<polygon fill="#C8B700" points="214.151,79.58 206.748,79.58 206.748,75.218 214.151,75.218 218.514,75.218 218.514,79.58 
		218.514,118.297 214.151,118.297 	"/>
	<path fill="#C99000" d="M210.348,122.062v-1.881c0-0.013-0.003-0.024-0.003-0.037c0-1.026,0.479-1.857,1.07-1.857
		c0.019,0,0.037,0.008,0.056,0.01h2.681h4.362h2.837c0.019-0.002,0.037-0.01,0.056-0.01c0.58,0,1.051,0.803,1.067,1.805h0.003v7.456
		h-0.001c0,0.008,0.001,0.015,0.001,0.024c0,1.025-0.479,1.856-1.07,1.856h-9.991c-0.591,0-1.07-0.831-1.07-1.856
		c0-0.013,0.003-0.024,0.003-0.037v-1.111V122.062z"/>
	<polygon fill="#7C720C" points="206.748,82.567 196.35,82.567 196.35,72.169 206.748,72.169 206.748,75.218 206.748,79.58 	"/>
	<path fill="#C99000" d="M160.737,120.215c0-0.013,0.004-0.025,0.004-0.037c0-1.045-0.847-1.891-1.891-1.891
		c-0.033,0-0.065,0.008-0.099,0.01h-17.45c-0.033-0.002-0.065-0.01-0.099-0.01c-1.025,0-1.855,0.818-1.885,1.837h-0.006v7.591h0.003
		c0,0.009-0.003,0.017-0.003,0.025c0,1.044,0.847,1.891,1.891,1.891l0,0h17.647c1.044,0,1.891-0.846,1.891-1.891
		c0-0.012-0.004-0.024-0.004-0.037V120.215z"/>
</g>
</svg>
