<?xml version="1.0" encoding="utf-8"?>
<!-- Generator: Adobe Illustrator 16.0.0, SVG Export Plug-In . SVG Version: 6.00 Build 0)  -->
<!DOCTYPE svg PUBLIC "-//W3C//DTD SVG 1.1//EN" "http://www.w3.org/Graphics/SVG/1.1/DTD/svg11.dtd">
<svg version="1.1" id="Capa_1" xmlns="http://www.w3.org/2000/svg" xmlns:xlink="http://www.w3.org/1999/xlink" x="0px" y="0px"
	 width="400px" height="350px" viewBox="0 0 400 350" enable-background="new 0 0 400 350" xml:space="preserve">
<g>
	<g>
		<path fill-rule="evenodd" clip-rule="evenodd" fill="#FEFEFE" d="M80.889,250.393c0.627-0.161,1.253-0.16,1.88,0
			C82.142,250.393,81.516,250.393,80.889,250.393z"/>
		<path fill-rule="evenodd" clip-rule="evenodd" fill="#FEFEFE" d="M104.436,99.607c-0.231,0.152-0.461,0.161-0.692,0
			C103.975,99.607,104.205,99.607,104.436,99.607z"/>
		<path fill-rule="evenodd" clip-rule="evenodd" fill="#FEFEFE" d="M112.153,99.607c-0.198,0.158-0.396,0.148-0.593,0
			C111.758,99.607,111.956,99.607,112.153,99.607z"/>
		<path fill-rule="evenodd" clip-rule="evenodd" fill="#FEFEFE" d="M197.043,206.858c-0.116-0.065-0.109-0.132,0-0.198
			C197.043,206.727,197.043,206.793,197.043,206.858z"/>
		<path fill-rule="evenodd" clip-rule="evenodd" fill="#FEFEFE" d="M1.242,222.688c0.103,0.066,0.119,0.133,0,0.198
			C1.242,222.821,1.242,222.755,1.242,222.688z"/>
		<path fill-rule="evenodd" clip-rule="evenodd" fill="#FEFEFE" d="M1.242,220.513c0.081,0.032,0.072,0.065,0,0.099
			C1.242,220.578,1.242,220.545,1.242,220.513z"/>
		<path fill-rule="evenodd" clip-rule="evenodd" fill="#FFCC00" d="M111.757,101c7.308-0.01,13.495,1.053,19.535,3.004
			c5.844,1.887,11.289,4.605,16.444,7.923c0.347,0.223,0.701,0.433,1.042,0.663c0.314,0.212,0.615,0.445,0.713,0.846
			c0.042,0.175,0.184,0.257,0.326,0.348c3.498,2.256,6.784,4.785,9.828,7.628c3.896,3.637,7.32,7.676,10.399,12.021
			c4.83,6.816,8.252,14.317,10.872,22.214c1.692,5.1,2.993,10.296,3.868,15.599c0.813,4.917,1.284,9.868,1.49,14.844
			c0.057,1.384,0.122,2.768,0.188,4.149c0.461,4.344,0.973,6.551,2.891,8.985c1.492,1.895,3.346,3.406,5.274,4.827
			c0.284,0.209,0.374,0.419,0.373,0.773c-0.002,2.867-1.354,5.107-3.282,7.063c-2.285,2.318-5.044,3.955-7.94,5.374
			c-5.313,2.605-10.929,4.355-16.644,5.813c-5.668,1.444-11.408,2.523-17.191,3.386c-4.743,0.708-9.502,1.273-14.28,1.686
			c-0.265,0.023-0.52,0.074-0.759,0.196c-12.764,6.52-25.995,11.93-39.475,16.771c-4.866,1.748-9.863,2.232-14.973,2.054
			c-3.746-0.13-7.458-0.577-11.15-1.185c-5.916-0.974-11.749-2.335-17.53-3.909c-7.569-2.063-15.156-4.062-22.669-6.324
			c-4.946-1.49-9.826-3.181-14.525-5.343c-2.634-1.213-5.221-2.525-7.43-4.451c-0.963-0.841-1.801-1.781-2.262-3.01
			c-0.592-1.58-0.316-3.029,0.739-4.297c1.292-1.55,2.86-2.824,4.379-4.141c4.648-4.027,9.488-7.818,14.353-11.58
			c1.628-1.259,3.022-2.744,4.202-4.432c0.118-0.168,0.183-0.332,0.195-0.541c0.134-2.271,0.348-4.533,0.65-6.788
			c0.322-2.418,0.768-4.813,1.233-7.203c0.256-1.314,0.242-2.657,0.352-3.986c0.34-4.092,0.931-8.148,1.745-12.171
			c1.351-6.675,3.189-13.211,5.905-19.466c4.766-10.977,11.278-20.731,20.436-28.564c8.288-7.091,17.649-12.2,28.221-15.021
			c4.208-1.124,8.473-1.915,12.802-2.394c1.371-0.152,2.721-0.48,4.085-0.697C107.008,101.215,109.85,101.009,111.757,101z
			 M111.834,104.736c-2.208,0.28-4.375,0.758-6.495,1.43c-5.843,1.854-11.007,4.924-15.672,8.86
			c-5.155,4.348-9.447,9.462-13.211,15.032c-4.412,6.529-7.988,13.506-10.979,20.783c-5.739,13.953-9.323,28.463-11.086,43.431
			c-0.574,4.863-0.869,9.751-0.896,14.651c-0.004,0.672-0.121,1.299-0.366,1.923c-0.375,0.958-0.712,1.932-1.112,3.028
			c0.249-0.161,0.383-0.241,0.51-0.331c2.631-1.844,5.256-3.695,7.896-5.525c0.336-0.232,0.469-0.464,0.453-0.88
			c-0.213-6.077,0.175-12.13,0.852-18.162c0.449-4.009,1.082-7.994,1.85-11.957c1.323-6.824,3.059-13.542,5.252-20.136
			c3.252-9.778,7.412-19.137,13.051-27.795c3.304-5.074,7.07-9.771,11.556-13.863c4.635-4.23,9.801-7.596,15.774-9.638
			c0.867-0.296,1.744-0.563,2.617-0.844c0.039-0.024,0.078-0.048,0.117-0.072c0.008,0.022,0.016,0.044,0.023,0.066
			C111.922,104.737,111.878,104.736,111.834,104.736z M62.16,210.088c0.165,0.048,0.267,0.087,0.373,0.108
			c3.952,0.813,7.932,1.46,11.929,2.005c4.099,0.559,8.211,0.986,12.335,1.32c4.8,0.387,9.606,0.63,14.419,0.756
			c4.402,0.115,8.805,0.107,13.207,0.005c5.226-0.12,10.444-0.388,15.652-0.821c5.222-0.436,10.427-1.027,15.605-1.837
			c5.63-0.879,11.214-1.969,16.709-3.485c5.08-1.401,10.057-3.084,14.694-5.639c2.245-1.237,4.358-2.662,6.059-4.618
			c1.256-1.446,2.107-3.063,2.05-5.042c-0.127-4.4-0.304-8.797-0.698-13.184c-0.425-4.73-1.142-9.412-2.188-14.045
			c-1.504-6.66-3.669-13.105-6.467-19.326c-3.426-7.616-8.071-14.438-13.766-20.544c-3.795-4.07-8.036-7.609-12.701-10.641
			c-0.133-0.086-0.26-0.242-0.441-0.132c-0.633,0.385-1.192,0.162-1.746-0.187c-3.292-2.069-6.711-3.895-10.332-5.328
			c-6.085-2.409-12.358-3.652-18.931-3.019c-3.114,0.3-6.131,1.014-9.049,2.134c-5.397,2.072-10.067,5.28-14.25,9.226
			c-4.658,4.396-8.5,9.447-11.834,14.895c-5.072,8.29-8.863,17.156-11.84,26.39c-2.086,6.474-3.733,13.059-4.973,19.743
			c-0.743,3.999-1.331,8.023-1.732,12.075c-0.341,3.445-0.582,6.896-0.687,10.358c-0.071,2.293-0.01,4.583,0.022,6.874
			c0.009,0.652-0.244,1.141-0.772,1.504C62.607,209.772,62.409,209.912,62.16,210.088z M127.91,228.747
			c-0.095,0-0.17-0.003-0.245,0.001c-4.804,0.329-9.616,0.489-14.431,0.551c-10.442,0.132-20.869-0.201-31.272-1.148
			c-4.431-0.403-8.851-0.896-13.254-1.533c-5.295-0.765-10.559-1.713-15.768-2.945c-5.317-1.257-10.561-2.754-15.617-4.848
			c-3.66-1.516-7.188-3.273-10.241-5.851c-1.694-1.43-3.112-3.084-3.91-5.189c-0.146-0.383-0.237-0.349-0.511-0.134
			c-3.822,3.006-7.614,6.048-11.287,9.235c-1.232,1.07-2.47,2.138-3.565,3.352c-0.644,0.714-0.678,1.344-0.202,2.169
			c0.216,0.373,0.485,0.705,0.787,1.013c1.453,1.478,3.232,2.485,5.045,3.425c4.377,2.268,9.004,3.915,13.675,5.45
			c5.61,1.846,11.33,3.303,17.013,4.889c7.366,2.057,14.734,4.103,22.255,5.534c5.218,0.992,10.466,1.746,15.79,1.79
			c4.109,0.034,8.134-0.438,12.044-1.828c11.312-4.02,22.417-8.532,33.272-13.661C127.63,228.95,127.8,228.919,127.91,228.747z
			 M32.962,174.599c0.053-0.021,0.102-0.026,0.108-0.044c0.145-0.436,0.285-0.873,0.425-1.311
			c4.358-13.539,10.799-26.002,19.341-37.373c5.292-7.043,11.293-13.41,18.181-18.922c4.565-3.653,9.436-6.831,14.69-9.406
			c1.395-0.684,2.822-1.302,4.252-1.96c-0.179-0.081-0.332-0.037-0.486,0.001c-1.98,0.484-3.937,1.056-5.873,1.696
			c-5.939,1.963-11.472,4.743-16.667,8.222c-7.03,4.709-13.064,10.447-17.999,17.323c-5.898,8.219-10.167,17.221-12.882,26.964
			c-1.3,4.666-2.298,9.395-3.021,14.183C33.002,174.168,32.789,174.372,32.962,174.599z"/>
		<path fill-rule="evenodd" clip-rule="evenodd" fill="#FFFF00" d="M62.16,210.088c0.249-0.176,0.447-0.315,0.646-0.454
			c0.528-0.363,0.781-0.852,0.772-1.504c-0.032-2.291-0.093-4.581-0.022-6.874c0.105-3.463,0.346-6.913,0.687-10.358
			c0.401-4.052,0.989-8.076,1.732-12.075c1.24-6.684,2.887-13.27,4.973-19.743c2.977-9.233,6.768-18.1,11.84-26.39
			c3.333-5.448,7.176-10.5,11.834-14.895c4.183-3.946,8.853-7.154,14.25-9.226c2.917-1.121,5.935-1.834,9.049-2.134
			c6.573-0.633,12.846,0.61,18.931,3.019c3.62,1.433,7.039,3.259,10.332,5.328c0.554,0.348,1.113,0.571,1.746,0.187
			c0.181-0.11,0.309,0.046,0.441,0.132c4.666,3.031,8.906,6.571,12.701,10.641c5.695,6.106,10.34,12.929,13.766,20.544
			c2.798,6.221,4.963,12.666,6.467,19.326c1.046,4.633,1.763,9.315,2.188,14.045c0.394,4.387,0.571,8.783,0.698,13.184
			c0.057,1.979-0.794,3.596-2.05,5.042c-1.701,1.956-3.813,3.381-6.059,4.618c-4.637,2.555-9.614,4.237-14.694,5.639
			c-5.496,1.517-11.08,2.606-16.709,3.485c-5.179,0.81-10.383,1.401-15.605,1.837c-5.208,0.434-10.427,0.701-15.652,0.821
			c-4.402,0.103-8.805,0.11-13.207-0.005c-4.813-0.126-9.619-0.369-14.419-0.756c-4.124-0.334-8.236-0.762-12.335-1.32
			c-3.997-0.545-7.977-1.191-11.929-2.005C62.427,210.175,62.325,210.136,62.16,210.088z"/>
		<path fill-rule="evenodd" clip-rule="evenodd" fill="#FFFF00" d="M127.91,228.747c-0.11,0.172-0.28,0.203-0.422,0.271
			c-10.854,5.129-21.96,9.642-33.272,13.661c-3.91,1.391-7.935,1.862-12.044,1.828c-5.324-0.044-10.572-0.798-15.79-1.79
			c-7.521-1.432-14.889-3.478-22.255-5.534c-5.683-1.586-11.403-3.043-17.013-4.889c-4.67-1.535-9.298-3.183-13.675-5.45
			c-1.813-0.939-3.592-1.947-5.045-3.425c-0.301-0.308-0.571-0.64-0.787-1.013c-0.477-0.825-0.442-1.455,0.202-2.169
			c1.095-1.214,2.333-2.281,3.565-3.352c3.673-3.188,7.465-6.229,11.287-9.235c0.273-0.215,0.365-0.249,0.511,0.134
			c0.798,2.105,2.216,3.76,3.91,5.189c3.053,2.577,6.581,4.335,10.241,5.851c5.057,2.094,10.3,3.591,15.617,4.848
			c5.209,1.232,10.472,2.181,15.768,2.945c4.403,0.638,8.823,1.13,13.254,1.533c10.404,0.947,20.83,1.28,31.272,1.148
			c4.814-0.062,9.626-0.222,14.431-0.551C127.74,228.744,127.815,228.747,127.91,228.747z"/>
		<path fill-rule="evenodd" clip-rule="evenodd" fill="#E6B800" d="M111.826,104.743c-0.873,0.281-1.75,0.548-2.616,0.844
			c-5.973,2.042-11.139,5.408-15.774,9.638c-4.486,4.092-8.251,8.789-11.556,13.863c-5.64,8.658-9.799,18.017-13.051,27.795
			c-2.193,6.595-3.929,13.312-5.252,20.136c-0.769,3.963-1.401,7.948-1.85,11.957c-0.676,6.032-1.064,12.085-0.852,18.162
			c0.016,0.416-0.117,0.647-0.453,0.88c-2.64,1.83-5.265,3.682-7.896,5.525c-0.127,0.09-0.261,0.17-0.51,0.331
			c0.4-1.097,0.737-2.07,1.112-3.028c0.245-0.624,0.362-1.251,0.366-1.923c0.027-4.9,0.322-9.788,0.896-14.651
			c1.764-14.968,5.348-29.478,11.086-43.431c2.992-7.277,6.568-14.253,10.979-20.783c3.764-5.57,8.056-10.684,13.211-15.032
			c4.665-3.936,9.829-7.006,15.672-8.86c2.119-0.672,4.287-1.15,6.495-1.43L111.826,104.743z"/>
		<path fill-rule="evenodd" clip-rule="evenodd" fill="#FFFF00" d="M32.962,174.599c-0.173-0.228,0.04-0.431,0.069-0.626
			c0.723-4.788,1.721-9.518,3.021-14.183c2.715-9.744,6.984-18.746,12.882-26.964c4.935-6.876,10.969-12.614,17.999-17.323
			c5.194-3.479,10.728-6.259,16.667-8.222c1.936-0.64,3.893-1.212,5.873-1.696c0.154-0.038,0.308-0.082,0.486-0.001
			c-1.431,0.658-2.857,1.276-4.252,1.96c-5.254,2.575-10.125,5.753-14.69,9.406c-6.887,5.513-12.889,11.879-18.181,18.922
			c-8.542,11.371-14.983,23.834-19.341,37.373c-0.14,0.438-0.28,0.875-0.425,1.311C33.064,174.573,33.015,174.579,32.962,174.599z"
			/>
		<path fill-rule="evenodd" clip-rule="evenodd" fill="#CBCBCB" d="M111.834,104.736c0.044,0,0.088,0,0.132,0
			c-0.007-0.022-0.015-0.044-0.023-0.066c-0.039,0.023-0.078,0.047-0.117,0.072C111.826,104.743,111.834,104.736,111.834,104.736z"
			/>
	</g>
	
		<line fill="none" stroke="#000000" stroke-width="2" stroke-miterlimit="10" x1="196.959" y1="192.952" x2="398.758" y2="192.952"/>
	
		<line fill="none" stroke="#000000" stroke-width="2" stroke-miterlimit="10" x1="389.609" y1="115.847" x2="389.609" y2="220.513"/>
	<g>
		<path fill="#5B5B5B" d="M360.377,185.861l0.908-8.282h4.629l0.953,8.282h15.6l-7.295-38.204h-23.064l-7.293,38.204H360.377z
			 M363.617,156.169l1.723,12.991h-3.434L363.617,156.169z M341.977,185.838l8.178-38.203H334.58l-2.699,24.282l-2.688-24.282
			h-15.588l8.213,38.203H341.977z M301.361,186.148c1.861,0,3.441-0.165,4.744-0.494c1.301-0.33,2.305-0.842,3.01-1.539
			c1.461-1.379,2.193-3.76,2.193-7.145V155.56c0.008-1.439-0.174-2.678-0.547-3.715c-0.371-1.038-0.957-1.886-1.756-2.544
			c-0.801-0.658-1.828-1.135-3.084-1.43c-1.256-0.294-2.777-0.442-4.561-0.442h-16.346c-3.322,0-5.742,0.641-7.258,1.924
			c-1.518,1.283-2.279,3.352-2.287,6.208v21.411c0,1.662,0.172,3.072,0.512,4.232s0.889,2.109,1.643,2.849s1.738,1.272,2.951,1.603
			c1.215,0.329,2.693,0.494,4.439,0.494H301.361z M291.852,156.692c0.305-0.44,0.811-0.661,1.516-0.661c1.34,0,2.01,0.927,2.01,2.78
			l0.012,15.896c-0.008,0.973-0.168,1.671-0.482,2.097c-0.314,0.424-0.824,0.637-1.527,0.637c-0.705,0-1.213-0.213-1.523-0.637
			c-0.309-0.426-0.461-1.125-0.453-2.097l-0.012-15.896C291.391,157.838,291.545,157.132,291.852,156.692z M259.068,185.838h14.082
			c0.613-5.169-0.379-9.035-2.975-11.601c0.291-0.184,0.553-0.387,0.781-0.609c1.479-1.348,2.217-3.748,2.217-7.202v-10.533
			c0-1.447-0.182-2.695-0.545-3.745c-0.363-1.049-0.943-1.903-1.74-2.562c-0.797-0.658-1.82-1.145-3.072-1.458
			s-2.771-0.471-4.555-0.471h-25.5v38.204h15.6v-10.212C258.154,174.754,260.057,178.15,259.068,185.838z M257.082,156.904
			c0.33,0.421,0.494,1.133,0.494,2.136v5.226c0,1.003-0.17,1.71-0.512,2.12c-0.34,0.41-0.896,0.614-1.67,0.614h-2.033v-10.728h2.102
			C256.213,156.272,256.752,156.483,257.082,156.904z M215.652,185.861v-10.212h9.9c3.707,0,6.271-0.673,7.695-2.021
			c1.479-1.348,2.217-3.748,2.217-7.202v-10.533c0-1.447-0.182-2.695-0.545-3.745c-0.363-1.049-0.943-1.903-1.74-2.562
			c-0.797-0.658-1.82-1.145-3.072-1.458s-2.771-0.471-4.555-0.471h-25.5v38.204H215.652z M219.373,156.904
			c0.33,0.421,0.494,1.133,0.494,2.136v5.226c0,1.003-0.17,1.71-0.512,2.12c-0.34,0.41-0.896,0.614-1.67,0.614h-2.033v-10.728h2.102
			C218.504,156.272,219.043,156.483,219.373,156.904z M183.651,185.838h14.082c0.612-5.169-0.379-9.035-2.975-11.601
			c0.291-0.184,0.551-0.387,0.781-0.609c1.478-1.348,2.217-3.748,2.217-7.202v-10.533c0-1.447-0.182-2.695-0.545-3.745
			c-0.364-1.049-0.944-1.903-1.74-2.562c-0.797-0.658-1.821-1.145-3.073-1.458s-2.77-0.471-4.554-0.471h-25.5v38.204h15.599v-10.212
			C182.736,174.754,184.639,178.15,183.651,185.838z M181.664,156.904c0.329,0.421,0.494,1.133,0.494,2.136v5.226
			c0,1.003-0.17,1.71-0.511,2.12S180.749,167,179.976,167h-2.033v-10.728h2.102C180.795,156.272,181.335,156.483,181.664,156.904z
			 M160.047,185.861v-8.707h-15.116v-6.064h13.703v-8.707h-13.703v-6.019h15.116v-8.707h-30.519v38.204H160.047z M117.25,185.873
			c3.438,0,5.946-0.633,7.523-1.896c1.578-1.263,2.397-3.51,2.458-6.742v-4.1c0-1.156-0.077-2.16-0.229-3.009
			c-0.153-0.85-0.408-1.58-0.764-2.188c-0.356-0.608-0.814-1.125-1.373-1.55c-0.559-0.425-1.24-0.802-2.044-1.132l-12.738-4.927
			c-0.636-0.237-1.137-0.456-1.505-0.655s-0.653-0.391-0.856-0.574c-0.203-0.184-0.333-0.374-0.39-0.569
			c-0.058-0.195-0.086-0.431-0.086-0.706c0-0.544,0.172-0.984,0.517-1.321c0.344-0.336,0.8-0.505,1.367-0.505
			c1.371,0,2.056,0.839,2.056,2.516v0.448h16.046v-4.376c0-2.274-0.829-3.995-2.486-5.163c-1.658-1.167-4.126-1.751-7.403-1.751
			h-16.253c-3.27,0-5.735,0.584-7.397,1.751c-1.662,1.168-2.492,2.889-2.492,5.163v3.974c0,1.854,0.44,3.339,1.321,4.457
			c0.873,1.064,2.581,2.068,5.123,3.01l10.946,4.054c0.598,0.215,1.074,0.427,1.43,0.638c0.356,0.211,0.628,0.454,0.815,0.729
			c0.188,0.275,0.312,0.603,0.374,0.982c0.061,0.379,0.092,0.856,0.092,1.43c0,1.034-0.161,1.771-0.482,2.21
			c-0.322,0.441-0.827,0.661-1.516,0.661c-1.302,0-1.953-0.881-1.953-2.642v-2.596H91.199v6.696c-0.062,2.75,0.739,4.718,2.4,5.904
			c1.662,1.188,4.127,1.781,7.397,1.781H117.25z"/>
		<path d="M380.162,200.315c0.6-0.571,1.316-0.857,2.15-0.857c0.586,0,1.113,0.148,1.584,0.445s0.828,0.716,1.074,1.255
			c0.244,0.54,0.365,1.171,0.365,1.895c0,1.144-0.285,2.026-0.857,2.649c-0.572,0.622-1.301,0.934-2.186,0.934
			c-0.869,0-1.592-0.309-2.166-0.925c-0.576-0.616-0.865-1.46-0.865-2.531C379.262,201.843,379.563,200.888,380.162,200.315z
			 M378.559,205.381c0.34,0.699,0.84,1.251,1.498,1.654c0.658,0.404,1.406,0.606,2.242,0.606c0.773,0,1.492-0.183,2.158-0.549
			c0.668-0.365,1.184-0.904,1.547-1.615s0.545-1.518,0.545-2.419c0-0.889-0.172-1.684-0.518-2.385s-0.848-1.248-1.508-1.641
			c-0.658-0.392-1.398-0.588-2.219-0.588c-1.252,0-2.275,0.418-3.066,1.252c-0.793,0.835-1.188,1.989-1.188,3.465
			C378.051,203.941,378.219,204.682,378.559,205.381z M376.334,207.49v-8.887h-1.176v8.887H376.334z M371.406,206.065
			c-0.457,0.38-1.016,0.57-1.674,0.57c-0.541,0-1.045-0.14-1.51-0.419c-0.465-0.278-0.807-0.7-1.027-1.264s-0.33-1.224-0.33-1.979
			c0-0.586,0.094-1.154,0.279-1.706s0.508-0.991,0.967-1.318c0.459-0.328,1.029-0.491,1.713-0.491c0.594,0,1.086,0.147,1.479,0.442
			s0.691,0.766,0.896,1.412l1.158-0.272c-0.238-0.82-0.66-1.457-1.266-1.909c-0.607-0.453-1.355-0.68-2.244-0.68
			c-0.783,0-1.502,0.18-2.154,0.537s-1.156,0.881-1.51,1.57c-0.354,0.688-0.531,1.496-0.531,2.422c0,0.849,0.158,1.643,0.471,2.382
			s0.77,1.305,1.369,1.694c0.602,0.391,1.379,0.585,2.338,0.585c0.926,0,1.709-0.253,2.35-0.761c0.641-0.507,1.084-1.243,1.33-2.21
			l-1.176-0.297C372.172,205.122,371.863,205.686,371.406,206.065z M363.92,207.49v-8.887h-1.176v8.887H363.92z M358.008,207.49
			l3.48-8.887h-1.201l-2.4,6.456c-0.182,0.484-0.342,0.97-0.479,1.455c-0.125-0.453-0.281-0.938-0.467-1.455l-2.311-6.456h-1.271
			l3.443,8.887H358.008z M346.715,199.585h2.813c0.658,0,1.141,0.136,1.445,0.406s0.457,0.616,0.457,1.037
			c0,0.287-0.078,0.553-0.236,0.797c-0.156,0.244-0.387,0.422-0.691,0.533c-0.303,0.111-0.723,0.167-1.26,0.167h-2.527V199.585z
			 M346.715,207.49v-3.946h1.363c0.303,0,0.521,0.014,0.654,0.042c0.182,0.045,0.361,0.124,0.537,0.236
			c0.176,0.113,0.375,0.312,0.598,0.595c0.221,0.282,0.504,0.69,0.848,1.225l1.176,1.849h1.48l-1.547-2.419
			c-0.307-0.473-0.633-0.867-0.977-1.182c-0.16-0.146-0.396-0.293-0.709-0.442c0.854-0.117,1.484-0.393,1.893-0.825
			s0.611-0.964,0.611-1.594c0-0.489-0.123-0.936-0.369-1.34s-0.576-0.687-0.988-0.846c-0.412-0.16-1.016-0.239-1.807-0.239h-3.941
			v8.887H346.715z M343.896,207.49v-1.049h-5.457v-3.025h4.916v-1.042h-4.916v-2.722h5.25v-1.049h-6.426v8.887H343.896z
			 M329.047,206.232c0.309,0.471,0.734,0.823,1.279,1.058c0.543,0.234,1.217,0.352,2.021,0.352c0.635,0,1.205-0.116,1.713-0.349
			c0.506-0.232,0.895-0.558,1.166-0.976c0.271-0.419,0.406-0.864,0.406-1.337c0-0.477-0.123-0.898-0.369-1.264
			c-0.248-0.366-0.629-0.668-1.146-0.906c-0.355-0.162-1.012-0.351-1.967-0.567c-0.957-0.216-1.547-0.427-1.773-0.633
			c-0.23-0.206-0.346-0.469-0.346-0.788c0-0.368,0.162-0.683,0.488-0.943c0.324-0.261,0.844-0.391,1.555-0.391
			c0.684,0,1.199,0.144,1.549,0.431s0.555,0.711,0.615,1.272l1.127-0.085c-0.02-0.521-0.164-0.987-0.436-1.4
			c-0.271-0.412-0.658-0.724-1.16-0.937c-0.504-0.212-1.086-0.318-1.744-0.318c-0.598,0-1.141,0.102-1.631,0.304
			c-0.488,0.202-0.859,0.498-1.115,0.888c-0.254,0.391-0.381,0.81-0.381,1.258c0,0.408,0.104,0.777,0.311,1.106
			c0.209,0.33,0.525,0.605,0.949,0.828c0.328,0.174,0.9,0.358,1.717,0.555c0.816,0.195,1.344,0.34,1.582,0.433
			c0.371,0.142,0.639,0.316,0.799,0.524c0.162,0.209,0.244,0.452,0.244,0.73c0,0.275-0.084,0.528-0.252,0.761
			s-0.424,0.416-0.768,0.549c-0.344,0.134-0.74,0.2-1.188,0.2c-0.506,0-0.961-0.088-1.365-0.264s-0.701-0.406-0.893-0.691
			c-0.193-0.284-0.314-0.649-0.367-1.094l-1.109,0.097C328.574,205.229,328.736,205.762,329.047,206.232z M322.375,203.731
			c0,1.115-0.184,1.869-0.551,2.262c-0.369,0.392-0.984,0.588-1.85,0.588c-0.506,0-0.934-0.1-1.283-0.297
			c-0.35-0.198-0.596-0.48-0.738-0.846c-0.145-0.366-0.215-0.935-0.215-1.707v-5.128h-1.178v5.134c0,0.942,0.113,1.685,0.34,2.229
			c0.227,0.543,0.605,0.959,1.135,1.245c0.529,0.287,1.209,0.431,2.043,0.431c0.855,0,1.549-0.164,2.076-0.494
			c0.527-0.329,0.891-0.757,1.094-1.282c0.201-0.525,0.303-1.234,0.303-2.128v-5.134h-1.176V203.731z M308.35,206.232
			c0.309,0.471,0.736,0.823,1.279,1.058s1.217,0.352,2.021,0.352c0.635,0,1.205-0.116,1.713-0.349s0.896-0.558,1.168-0.976
			c0.27-0.419,0.404-0.864,0.404-1.337c0-0.477-0.123-0.898-0.369-1.264c-0.246-0.366-0.629-0.668-1.145-0.906
			c-0.357-0.162-1.012-0.351-1.969-0.567c-0.955-0.216-1.547-0.427-1.773-0.633c-0.229-0.206-0.344-0.469-0.344-0.788
			c0-0.368,0.162-0.683,0.486-0.943c0.326-0.261,0.844-0.391,1.557-0.391c0.682,0,1.199,0.144,1.549,0.431
			c0.348,0.287,0.555,0.711,0.615,1.272l1.127-0.085c-0.02-0.521-0.166-0.987-0.438-1.4c-0.27-0.412-0.656-0.724-1.16-0.937
			c-0.504-0.212-1.084-0.318-1.742-0.318c-0.6,0-1.143,0.102-1.631,0.304c-0.49,0.202-0.861,0.498-1.115,0.888
			c-0.256,0.391-0.383,0.81-0.383,1.258c0,0.408,0.104,0.777,0.313,1.106c0.209,0.33,0.523,0.605,0.949,0.828
			c0.326,0.174,0.898,0.358,1.715,0.555c0.816,0.195,1.344,0.34,1.582,0.433c0.373,0.142,0.639,0.316,0.801,0.524
			c0.162,0.209,0.242,0.452,0.242,0.73c0,0.275-0.084,0.528-0.252,0.761s-0.424,0.416-0.766,0.549c-0.344,0.134-0.74,0.2-1.189,0.2
			c-0.504,0-0.959-0.088-1.363-0.264s-0.703-0.406-0.895-0.691c-0.191-0.284-0.314-0.649-0.367-1.094l-1.109,0.097
			C307.879,205.229,308.041,205.762,308.35,206.232z M299.781,201.234c0.207-0.562,0.365-1.128,0.479-1.697
			c0.139,0.48,0.348,1.095,0.631,1.843l0.928,2.461h-3.014L299.781,201.234z M297.49,207.49l0.977-2.691h3.715l1.037,2.691h1.34
			l-3.637-8.887h-1.268l-3.414,8.887H297.49z M286.26,206.232c0.309,0.471,0.736,0.823,1.279,1.058s1.217,0.352,2.021,0.352
			c0.635,0,1.205-0.116,1.713-0.349s0.896-0.558,1.168-0.976c0.27-0.419,0.404-0.864,0.404-1.337c0-0.477-0.123-0.898-0.369-1.264
			c-0.246-0.366-0.629-0.668-1.145-0.906c-0.357-0.162-1.012-0.351-1.969-0.567c-0.955-0.216-1.547-0.427-1.773-0.633
			c-0.229-0.206-0.344-0.469-0.344-0.788c0-0.368,0.162-0.683,0.486-0.943c0.326-0.261,0.844-0.391,1.557-0.391
			c0.682,0,1.199,0.144,1.549,0.431c0.348,0.287,0.555,0.711,0.615,1.272l1.127-0.085c-0.02-0.521-0.166-0.987-0.438-1.4
			c-0.27-0.412-0.656-0.724-1.16-0.937c-0.504-0.212-1.084-0.318-1.742-0.318c-0.6,0-1.143,0.102-1.631,0.304
			c-0.49,0.202-0.861,0.498-1.115,0.888c-0.256,0.391-0.383,0.81-0.383,1.258c0,0.408,0.104,0.777,0.313,1.106
			c0.209,0.33,0.523,0.605,0.949,0.828c0.326,0.174,0.898,0.358,1.715,0.555c0.816,0.195,1.344,0.34,1.582,0.433
			c0.373,0.142,0.639,0.316,0.801,0.524c0.162,0.209,0.242,0.452,0.242,0.73c0,0.275-0.084,0.528-0.252,0.761
			s-0.424,0.416-0.766,0.549c-0.344,0.134-0.74,0.2-1.189,0.2c-0.504,0-0.959-0.088-1.363-0.264s-0.703-0.406-0.895-0.691
			c-0.191-0.284-0.314-0.649-0.367-1.094l-1.109,0.097C285.789,205.229,285.951,205.762,286.26,206.232z M280.455,201.234
			c0.207-0.562,0.365-1.128,0.479-1.697c0.139,0.48,0.348,1.095,0.631,1.843l0.928,2.461h-3.014L280.455,201.234z M278.164,207.49
			l0.977-2.691h3.715l1.037,2.691h1.34l-3.637-8.887h-1.268l-3.414,8.887H278.164z M274.666,207.49v-7.838h2.939v-1.049h-7.043
			v1.049h2.928v7.838H274.666z M263.035,206.232c0.309,0.471,0.736,0.823,1.279,1.058s1.217,0.352,2.021,0.352
			c0.635,0,1.205-0.116,1.713-0.349s0.896-0.558,1.168-0.976c0.27-0.419,0.404-0.864,0.404-1.337c0-0.477-0.123-0.898-0.369-1.264
			c-0.246-0.366-0.629-0.668-1.145-0.906c-0.357-0.162-1.012-0.351-1.969-0.567c-0.955-0.216-1.547-0.427-1.773-0.633
			c-0.229-0.206-0.344-0.469-0.344-0.788c0-0.368,0.162-0.683,0.486-0.943c0.326-0.261,0.844-0.391,1.557-0.391
			c0.682,0,1.199,0.144,1.549,0.431c0.348,0.287,0.555,0.711,0.615,1.272l1.127-0.085c-0.02-0.521-0.166-0.987-0.438-1.4
			c-0.27-0.412-0.656-0.724-1.16-0.937c-0.504-0.212-1.084-0.318-1.742-0.318c-0.6,0-1.143,0.102-1.631,0.304
			c-0.49,0.202-0.861,0.498-1.115,0.888c-0.256,0.391-0.383,0.81-0.383,1.258c0,0.408,0.104,0.777,0.313,1.106
			c0.209,0.33,0.523,0.605,0.949,0.828c0.326,0.174,0.898,0.358,1.715,0.555c0.816,0.195,1.344,0.34,1.582,0.433
			c0.373,0.142,0.639,0.316,0.801,0.524c0.162,0.209,0.242,0.452,0.242,0.73c0,0.275-0.084,0.528-0.252,0.761
			s-0.424,0.416-0.766,0.549c-0.344,0.134-0.74,0.2-1.189,0.2c-0.504,0-0.959-0.088-1.363-0.264s-0.703-0.406-0.895-0.691
			c-0.191-0.284-0.314-0.649-0.367-1.094l-1.109,0.097C262.564,205.229,262.727,205.762,263.035,206.232z M260.875,207.49v-8.887
			h-1.176v8.887H260.875z M255.352,207.49v-7.838h2.939v-1.049h-7.043v1.049h2.928v7.838H255.352z M247.119,201.234
			c0.207-0.562,0.365-1.128,0.479-1.697c0.139,0.48,0.348,1.095,0.631,1.843l0.928,2.461h-3.014L247.119,201.234z M244.828,207.49
			l0.977-2.691h3.715l1.037,2.691h1.34l-3.637-8.887h-1.268l-3.414,8.887H244.828z M236.783,199.585h2.813
			c0.66,0,1.141,0.136,1.447,0.406c0.305,0.271,0.457,0.616,0.457,1.037c0,0.287-0.078,0.553-0.236,0.797s-0.389,0.422-0.691,0.533
			s-0.723,0.167-1.262,0.167h-2.527V199.585z M236.783,207.49v-3.946h1.363c0.305,0,0.521,0.014,0.656,0.042
			c0.182,0.045,0.359,0.124,0.535,0.236c0.176,0.113,0.375,0.312,0.598,0.595c0.223,0.282,0.506,0.69,0.85,1.225l1.176,1.849h1.479
			l-1.545-2.419c-0.309-0.473-0.633-0.867-0.977-1.182c-0.162-0.146-0.398-0.293-0.709-0.442c0.852-0.117,1.482-0.393,1.891-0.825
			s0.613-0.964,0.613-1.594c0-0.489-0.125-0.936-0.371-1.34s-0.576-0.687-0.988-0.846c-0.412-0.16-1.014-0.239-1.807-0.239h-3.939
			v8.887H236.783z M231.443,207.49v-7.838h2.939v-1.049h-7.045v1.049h2.928v7.838H231.443z M220.154,207.49v-6.983l4.668,6.983
			h1.207v-8.887h-1.127v6.978l-4.668-6.978h-1.207v8.887H220.154z M211.139,200.315c0.6-0.571,1.316-0.857,2.148-0.857
			c0.586,0,1.115,0.148,1.586,0.445s0.828,0.716,1.072,1.255c0.244,0.54,0.367,1.171,0.367,1.895c0,1.144-0.287,2.026-0.857,2.649
			c-0.572,0.622-1.301,0.934-2.186,0.934c-0.869,0-1.592-0.309-2.168-0.925s-0.863-1.46-0.863-2.531
			C210.238,201.843,210.537,200.888,211.139,200.315z M209.535,205.381c0.34,0.699,0.838,1.251,1.496,1.654
			c0.66,0.404,1.406,0.606,2.244,0.606c0.771,0,1.49-0.183,2.158-0.549c0.666-0.365,1.182-0.904,1.545-1.615
			s0.547-1.518,0.547-2.419c0-0.889-0.174-1.684-0.52-2.385s-0.848-1.248-1.506-1.641c-0.658-0.392-1.398-0.588-2.219-0.588
			c-1.254,0-2.275,0.418-3.068,1.252c-0.791,0.835-1.188,1.989-1.188,3.465C209.025,203.941,209.195,204.682,209.535,205.381z
			 M205.83,206.065c-0.455,0.38-1.014,0.57-1.672,0.57c-0.543,0-1.045-0.14-1.51-0.419c-0.465-0.278-0.807-0.7-1.027-1.264
			s-0.332-1.224-0.332-1.979c0-0.586,0.094-1.154,0.279-1.706c0.188-0.552,0.51-0.991,0.967-1.318
			c0.459-0.328,1.031-0.491,1.713-0.491c0.594,0,1.088,0.147,1.48,0.442c0.391,0.295,0.689,0.766,0.896,1.412l1.158-0.272
			c-0.238-0.82-0.662-1.457-1.268-1.909c-0.605-0.453-1.354-0.68-2.242-0.68c-0.785,0-1.504,0.18-2.156,0.537
			s-1.156,0.881-1.509,1.57c-0.354,0.688-0.531,1.496-0.531,2.422c0,0.849,0.157,1.643,0.47,2.382
			c0.313,0.739,0.769,1.305,1.371,1.694c0.6,0.391,1.379,0.585,2.336,0.585c0.926,0,1.709-0.253,2.35-0.761
			c0.641-0.507,1.084-1.243,1.33-2.21l-1.176-0.297C206.596,205.122,206.287,205.686,205.83,206.065z"/>
	</g>
</g>
</svg>
