<?xml version="1.0" encoding="utf-8"?>
<!-- Generator: Adobe Illustrator 16.0.0, SVG Export Plug-In . SVG Version: 6.00 Build 0)  -->
<!DOCTYPE svg PUBLIC "-//W3C//DTD SVG 1.1//EN" "http://www.w3.org/Graphics/SVG/1.1/DTD/svg11.dtd">
<svg version="1.1" id="Capa_1" xmlns="http://www.w3.org/2000/svg" xmlns:xlink="http://www.w3.org/1999/xlink" x="0px" y="0px"
	 width="400px" height="350px" viewBox="0 0 400 350" enable-background="new 0 0 400 350" xml:space="preserve">
<g>
	<path fill="#008AE6" d="M15.63,208.508c0,0-31.641-196.688,141.118-197.548c0,0,184.72-7.699,242.023,209.529
		c0,0-78.68-61.582-127.43,17.96H129.38C129.38,238.448,96.879,169.172,15.63,208.508z M280.747,128.124
		c41.057,5.129,28.229-17.965,28.229-17.965c-54.74-71.831-116.309-67.556-116.309-67.556
		c-52.171-2.566-71.848,60.718-71.848,60.718L280.747,128.124z M86.612,101.616c7.695-6.845,29.078-54.738,29.078-54.738
		c-52.955,0.442-58.148,54.738-58.148,54.738C79.771,104.179,86.612,101.616,86.612,101.616z"/>
	<path fill="#2D2D2D" d="M378.976,295.501c-6.316,13.277-19.817,22.484-35.5,22.484c-21.729,0-39.345-17.618-39.345-39.339
		c0-0.235-0.064-0.454-0.12-0.671c0.056-0.222,0.12-0.438,0.12-0.674c0-21.727,17.615-39.339,39.345-39.339
		c15.683,0,29.184,9.205,35.5,22.48c8.671,5.031,14.409,0.989,18.097-4.978c-8.937-22.603-30.957-38.592-56.736-38.592
		c-27.22,0-50.278,17.839-58.126,42.467H115.385c-7.849-24.628-30.906-42.467-58.13-42.467c-25.112,0-46.664,15.173-56.026,36.851
		c3.623,6.857,9.601,12.225,19.093,6.719c6.315-13.275,19.814-22.48,35.503-22.48c21.729,0,39.342,17.612,39.342,39.339
		c0,0.235,0.053,0.452,0.091,0.674c-0.038,0.217-0.091,0.436-0.091,0.671c0,21.721-17.612,39.339-39.342,39.339
		c-15.688,0-29.188-9.207-35.503-22.484c-9.492-5.507-15.47-0.142-19.093,6.723c9.362,21.671,30.914,36.851,56.026,36.851
		c27.224,0,50.281-17.845,58.13-42.474H282.21c7.848,24.629,30.906,42.474,58.126,42.474c25.779,0,47.8-15.994,56.736-38.593
		C393.385,294.516,387.646,290.469,378.976,295.501z"/>
	<polygon fill="#FFE900" points="70.996,305.035 39.807,305.045 24.209,278.037 39.8,251.023 70.986,251.017 86.584,278.021 	"/>
	<polygon fill="#FFE900" points="360.922,305.035 329.736,305.045 314.139,278.037 329.727,251.023 360.916,251.017 
		376.517,278.021 	"/>
</g>
<g>
	<rect x="131" y="178" fill="#FFFFFF" width="140" height="32"/>
	<rect x="150" y="137" fill="#FFFFFF" width="100" height="32"/>
	<path fill="#FFC41D" d="M238.597,164.557v-3.122h3.223v-18.027h-3.223v-3.122h9.668v3.122h-3.223v18.027h3.223v3.122H238.597z
		 M231.95,171.203h22.105v-38.471H231.95V171.203z M214.931,140.235h3.122l3.826,17.372l3.827-17.372h3.122l-5.388,24.321h-3.122
		L214.931,140.235z M210.449,171.203h22.105v-38.471h-22.105V171.203z M201.712,144.364c-0.723-0.738-1.973-1.04-3.752-0.906v8.309
		c1.779,0.168,3.063-0.185,3.853-1.058c0.788-0.872,1.149-2.03,1.083-3.475C202.827,146.06,202.434,145.104,201.712,144.364z
		 M195.09,164.557v-24.221c1.275-0.066,2.56-0.066,3.853,0c1.292,0.067,2.358,0.252,3.197,0.554c0.772,0.303,1.41,0.688,1.914,1.158
		c0.503,0.471,0.906,0.982,1.208,1.536s0.512,1.15,0.63,1.787c0.117,0.639,0.176,1.259,0.176,1.863c0,0.772-0.093,1.545-0.276,2.316
		c-0.186,0.772-0.479,1.503-0.882,2.19c-0.402,0.688-0.932,1.284-1.586,1.788c-0.654,0.503-1.436,0.873-2.342,1.107l5.187,9.92
		h-3.424l-4.784-9.266v9.266H195.09z M188.947,171.203h22.105v-38.471h-22.105V171.203z M183.308,140.285v3.122h-6.193v8.46h5.187
		v3.223h-5.187v6.294l6.193-0.05v3.223h-9.467v-24.271H183.308z M167.446,171.203h22.106v-38.471h-22.106V171.203z M159.993,147.134
		c0-0.402-0.05-0.831-0.151-1.284s-0.26-0.872-0.479-1.259c-0.219-0.386-0.512-0.705-0.881-0.957
		c-0.37-0.251-0.823-0.377-1.36-0.377c-0.403,0-0.747,0.109-1.032,0.327c-0.286,0.219-0.521,0.479-0.705,0.78
		c-0.185,0.302-0.319,0.622-0.403,0.957c-0.084,0.336-0.125,0.621-0.125,0.855c0,0.705,0.268,1.419,0.806,2.141
		c0.537,0.722,1.275,1.334,2.215,1.838c2.35,1.276,3.919,2.636,4.708,4.078c0.788,1.444,1.149,3.056,1.083,4.835
		c-0.068,1.813-0.597,3.206-1.586,4.179c-0.99,0.975-2.308,1.461-3.953,1.461c-1.947,0-3.492-0.713-4.633-2.141
		c-1.142-1.426-1.679-3.398-1.611-5.916h3.273c-0.067,1.478,0.126,2.668,0.579,3.575c0.453,0.906,1.234,1.359,2.342,1.359
		c0.906,0,1.536-0.285,1.888-0.856c0.353-0.57,0.529-1.141,0.529-1.712c0.067-1.141-0.261-2.241-0.982-3.298
		c-0.722-1.058-1.788-1.972-3.198-2.745c-3.089-1.778-4.632-4.078-4.632-6.898c0-1.813,0.478-3.264,1.435-4.355
		c0.957-1.091,2.375-1.637,4.255-1.637c0.839,0,1.619,0.16,2.341,0.479c0.722,0.319,1.334,0.78,1.838,1.385
		c0.504,0.604,0.898,1.343,1.184,2.216c0.285,0.873,0.411,1.863,0.377,2.971H159.993z M145.944,171.203h22.106v-38.471h-22.106
		V171.203z"/>
	<path fill="#FF571D" d="M264.975,188.533c0-0.461-0.059-0.951-0.174-1.471c-0.115-0.519-0.299-0.999-0.547-1.44
		c-0.252-0.441-0.588-0.808-1.01-1.096c-0.424-0.288-0.941-0.433-1.557-0.433c-0.461,0-0.855,0.125-1.182,0.375
		s-0.596,0.548-0.807,0.894c-0.213,0.346-0.367,0.712-0.461,1.096c-0.098,0.384-0.145,0.711-0.145,0.979
		c0,0.808,0.307,1.624,0.922,2.45c0.615,0.827,1.461,1.528,2.537,2.104c2.689,1.461,4.486,3.018,5.391,4.67
		c0.902,1.653,1.316,3.498,1.238,5.534c-0.076,2.076-0.682,3.671-1.814,4.785c-1.135,1.115-2.645,1.672-4.527,1.672
		c-2.229,0-3.996-0.815-5.303-2.45c-1.307-1.633-1.922-3.892-1.846-6.773h3.748c-0.078,1.691,0.145,3.055,0.662,4.093
		c0.52,1.038,1.414,1.557,2.682,1.557c1.037,0,1.758-0.326,2.162-0.98c0.402-0.652,0.605-1.306,0.605-1.96
		c0.076-1.306-0.299-2.565-1.125-3.776c-0.826-1.21-2.047-2.257-3.66-3.142c-3.537-2.037-5.305-4.67-5.305-7.898
		c0-2.075,0.549-3.737,1.643-4.987c1.096-1.248,2.719-1.873,4.873-1.873c0.959,0,1.854,0.183,2.68,0.548s1.527,0.894,2.105,1.585
		c0.576,0.692,1.027,1.538,1.354,2.537c0.326,1,0.471,2.133,0.434,3.401H264.975z M248.889,216.091h25.309v-44.046h-25.309V216.091z
		 M240.357,188.533c0-0.461-0.059-0.951-0.174-1.471c-0.115-0.519-0.299-0.999-0.547-1.44c-0.252-0.441-0.588-0.808-1.01-1.096
		c-0.424-0.288-0.941-0.433-1.557-0.433c-0.461,0-0.855,0.125-1.182,0.375s-0.596,0.548-0.807,0.894
		c-0.213,0.346-0.367,0.712-0.461,1.096c-0.098,0.384-0.145,0.711-0.145,0.979c0,0.808,0.307,1.624,0.922,2.45
		c0.615,0.827,1.461,1.528,2.537,2.104c2.689,1.461,4.486,3.018,5.391,4.67c0.902,1.653,1.316,3.498,1.238,5.534
		c-0.076,2.076-0.682,3.671-1.814,4.785c-1.135,1.115-2.645,1.672-4.527,1.672c-2.229,0-3.996-0.815-5.303-2.45
		c-1.307-1.633-1.922-3.892-1.846-6.773h3.748c-0.078,1.691,0.145,3.055,0.662,4.093c0.52,1.038,1.414,1.557,2.682,1.557
		c1.037,0,1.758-0.326,2.162-0.98c0.402-0.652,0.605-1.306,0.605-1.96c0.076-1.306-0.299-2.565-1.125-3.776
		c-0.826-1.21-2.047-2.257-3.66-3.142c-3.537-2.037-5.305-4.67-5.305-7.898c0-2.075,0.549-3.737,1.643-4.987
		c1.096-1.248,2.719-1.873,4.873-1.873c0.959,0,1.854,0.183,2.68,0.548s1.527,0.894,2.105,1.585
		c0.576,0.692,1.027,1.538,1.354,2.537c0.326,1,0.471,2.133,0.434,3.401H240.357z M224.271,216.091h25.309v-44.046h-25.309V216.091z
		 M217.814,180.692v3.574h-7.09v9.686h5.938v3.689h-5.938v7.207l7.09-0.058v3.689h-10.838v-27.788H217.814z M199.655,216.091h25.308
		v-44.046h-25.308V216.091z M189.651,185.362c-0.826-0.845-2.258-1.191-4.295-1.038v9.513c2.037,0.192,3.508-0.211,4.41-1.211
		c0.904-0.999,1.316-2.324,1.24-3.978C190.928,187.304,190.477,186.208,189.651,185.362z M182.071,208.48v-27.73
		c1.459-0.076,2.93-0.076,4.41,0c1.479,0.077,2.699,0.288,3.66,0.634c0.885,0.347,1.615,0.789,2.191,1.326
		c0.576,0.539,1.037,1.124,1.383,1.759c0.348,0.634,0.586,1.316,0.721,2.047s0.203,1.44,0.203,2.133
		c0,0.885-0.107,1.769-0.318,2.652s-0.547,1.72-1.008,2.508s-1.066,1.47-1.816,2.046c-0.75,0.577-1.643,1-2.682,1.269l5.939,11.357
		h-3.92l-5.479-10.607v10.607H182.071z M175.037,216.091h25.309v-44.046h-25.309V216.091z M157.856,208.25v-27.73
		c2.229-0.23,4.122-0.182,5.679,0.144c1.557,0.327,2.805,0.856,3.747,1.586c0.941,0.73,1.624,1.634,2.047,2.71
		c0.422,1.076,0.634,2.229,0.634,3.459c0,0.885-0.144,1.815-0.433,2.796c-0.288,0.98-0.778,1.902-1.47,2.768
		c-0.691,0.864-1.595,1.624-2.709,2.277c-1.115,0.653-2.499,1.076-4.151,1.268v10.724H157.856z M166.043,186.631
		c-0.193-0.577-0.49-1.076-0.894-1.499c-0.404-0.423-0.933-0.74-1.585-0.951c-0.654-0.211-1.441-0.298-2.364-0.26v9.513
		c1.845-0.038,3.161-0.557,3.949-1.557c0.787-0.999,1.182-2.152,1.182-3.459C166.331,187.804,166.235,187.207,166.043,186.631z
		 M150.419,216.091h25.309v-44.046h-25.309V216.091z M136.986,194.529l-4.669-13.895h3.747l2.825,8.302l2.825-8.302h3.748
		l-4.728,13.895l4.728,13.951h-3.748l-2.825-8.417l-2.825,8.417h-3.747L136.986,194.529z M125.802,216.091h25.309v-44.046h-25.309
		V216.091z"/>
</g>
</svg>
