<?xml version="1.0" encoding="utf-8"?>
<!-- Generator: Adobe Illustrator 16.0.0, SVG Export Plug-In . SVG Version: 6.00 Build 0)  -->
<!DOCTYPE svg PUBLIC "-//W3C//DTD SVG 1.1//EN" "http://www.w3.org/Graphics/SVG/1.1/DTD/svg11.dtd">
<svg version="1.1" id="Capa_1" xmlns="http://www.w3.org/2000/svg" xmlns:xlink="http://www.w3.org/1999/xlink" x="0px" y="0px"
	 width="300px" height="200px" viewBox="0 0 300 200" enable-background="new 0 0 300 200" xml:space="preserve">
<radialGradient id="SVGID_1_" cx="-338.4136" cy="470.915" r="0.0292" gradientTransform="matrix(2291.6716 0 0 2218.7549 775567.4375 -1044723.25)" gradientUnits="userSpaceOnUse">
	<stop  offset="0" style="stop-color:#34364E;stop-opacity:0.98"/>
	<stop  offset="1" style="stop-color:#0C0824"/>
</radialGradient>
<path fill="url(#SVGID_1_)" d="M5.881,104.809h88.073v85.67H5.881V104.809z"/>
<path fill="#31C5F0" d="M5.881,104.809h88.073v85.67H5.881V104.809z M1.877,194.482h96.079v-93.678H1.877V194.482z M66.65,139.236
	c-3.163,0-4.244,1.602-4.244,2.922c0,1.441,0.721,2.443,4.964,4.644c6.285,3.043,8.247,5.966,8.247,10.249
	c0,6.405-4.884,9.848-11.489,9.848c-3.484,0-6.485-0.72-8.207-1.72c-0.28-0.12-0.32-0.321-0.32-0.641v-5.886
	c0-0.4,0.2-0.521,0.481-0.32c2.521,1.643,5.404,2.361,8.046,2.361c3.162,0,4.483-1.32,4.483-3.123c0-1.44-0.92-2.723-4.964-4.803
	c-5.685-2.723-8.046-5.484-8.046-10.089c0-5.165,4.043-9.448,11.049-9.448c3.443,0,5.845,0.521,7.166,1.121
	c0.32,0.201,0.4,0.521,0.4,0.801v5.484c0,0.32-0.2,0.521-0.601,0.4C71.855,139.917,69.253,139.236,66.65,139.236L66.65,139.236z
	 M32.222,144c0.92,0.081,1.642,0.081,3.243,0.081c4.684,0,9.088-1.642,9.088-8.006c0-5.084-3.164-7.647-8.487-7.647
	c-1.601,0-3.123,0.081-3.844,0.121V144z M25.097,122.743c0-0.28,0.561-0.479,0.88-0.479c2.563-0.121,6.365-0.201,10.329-0.201
	c11.088,0,15.412,6.086,15.412,13.853c0,10.168-7.366,14.532-16.413,14.532c-1.521,0-2.042-0.081-3.123-0.081v15.373
	c0,0.319-0.12,0.48-0.479,0.48h-6.126c-0.32,0-0.48-0.12-0.48-0.48V122.743L25.097,122.743z"/>
<radialGradient id="SVGID_2_" cx="-338.3267" cy="470.915" r="0.0297" gradientTransform="matrix(2291.6716 0 0 2218.7549 775567.4375 -1044723.25)" gradientUnits="userSpaceOnUse">
	<stop  offset="0" style="stop-color:#442F55;stop-opacity:0.98"/>
	<stop  offset="1" style="stop-color:#12002C"/>
</radialGradient>
<path fill="url(#SVGID_2_)" d="M206.047,104.809h88.074v85.672h-88.074V104.809z"/>
<path fill="#D8A1FF" d="M206.047,104.809h88.074v85.672h-88.074V104.809z M202.045,194.482h96.078v-93.678h-96.078V194.482
	L202.045,194.482z M270.02,145.963c2.041,0,2.763,0,2.963-0.08c0-0.279,0.08-0.48,0.08-0.681c0-2.162-1.043-6.165-5.205-6.165
	c-3.844,0-5.483,3.363-5.885,6.926H270.02L270.02,145.963z M261.893,151.447c0.08,5.404,2.642,9.048,8.728,9.048
	c2.362,0,4.403-0.32,6.526-1.241c0.279-0.121,0.479-0.08,0.479,0.28v5.004c0,0.399-0.119,0.601-0.397,0.801
	c-2.123,1.041-4.767,1.521-8.047,1.521c-10.568,0-14.533-7.807-14.533-16.493c0-9.447,4.885-17.175,13.492-17.175
	c8.729,0,11.77,7.326,11.77,13.293c0,1.921-0.121,3.481-0.32,4.242c-0.08,0.321-0.199,0.441-0.52,0.521
	c-0.803,0.12-3.164,0.279-6.688,0.279h-10.487v-0.08H261.893z M240.436,147.364c-1.121-4.444-3.844-14.132-4.846-18.815h-0.078
	c-0.84,4.684-3.045,12.611-4.686,18.815H240.436z M229.186,153.85l-3.162,11.969c-0.08,0.32-0.198,0.44-0.602,0.44h-5.883
	c-0.4,0-0.482-0.12-0.4-0.601l11.367-39.753c0.201-0.72,0.32-1.281,0.4-3.282c0-0.28,0.121-0.4,0.32-0.4h8.407
	c0.279,0,0.4,0.08,0.48,0.4l12.729,43.115c0.082,0.32,0,0.521-0.32,0.521h-6.604c-0.319,0-0.521-0.12-0.601-0.399l-3.284-12.01
	H229.186L229.186,153.85z"/>
<linearGradient id="SVGID_3_" gradientUnits="userSpaceOnUse" x1="-1089.0518" y1="1656.9199" x2="-1107.0183" y2="1638.9534" gradientTransform="matrix(5.2166 0 0 -5.2166 5878.2397 8743.8076)">
	<stop  offset="0" style="stop-color:#FFAA2A"/>
	<stop  offset="1" style="stop-color:#FFC06C"/>
</linearGradient>
<path fill="url(#SVGID_3_)" d="M101.96,100.823h95.634v93.641H101.96V100.823z"/>
<linearGradient id="SVGID_4_" gradientUnits="userSpaceOnUse" x1="-1098.1226" y1="1656.085" x2="-1098.1226" y2="1639.7272" gradientTransform="matrix(5.2166 0 0 -5.2166 5878.2397 8743.8076)">
	<stop  offset="0" style="stop-color:#251200"/>
	<stop  offset="1" style="stop-color:#000000"/>
</linearGradient>
<path fill="url(#SVGID_4_)" d="M135.703,148.54h9.185l-4.594-17.81L135.703,148.54z M105.741,104.833v85.622h88.071v-85.622H105.741
	z M149.929,168.066l-3.363-11.573h-12.433l-3.36,11.573h-8.513l11.986-40.922v-4.479h11.426l13.664,45.4H149.929z M172.555,168.066
	h-9.186v-34.535h9.186V168.066z M168.018,129.386c-2.631,0-4.762-2.105-4.762-4.704s2.131-4.705,4.762-4.705
	c2.629,0,4.762,2.106,4.762,4.705S170.646,129.386,168.018,129.386z"/>
<g>
	<path fill="#EFEFEF" d="M181.996,57.348c1.295-2.573,2.619-5.134,3.871-7.727c0.455-0.94,0.982-0.615,1.605-0.295
		c3.397,1.752,6.803,3.496,10.202,5.241c10.652,5.461,21.306,10.92,31.957,16.383c3.054,1.566,6.104,3.141,9.269,4.769
		c-0.742,1.905-1.756,3.606-2.642,5.362c-2.274,4.5-4.592,8.98-6.891,13.468c-0.125,0.247-0.277,0.482-0.384,0.737
		c-0.338,0.801-0.805,0.863-1.561,0.464c-2.895-1.523-5.811-3.004-8.73-4.471c-1.58-0.794-3.09-1.731-4.766-2.329
		c-0.078-0.065-0.199-0.201-0.229-0.184c-0.228,0.132-0.085,0.263,0.028,0.387c2.17,3.874,4.691,7.531,6.986,11.328
		c0.346,0.57,0.676,1.151,1.072,1.686c0.506,0.685,0.426,1.086-0.348,1.553c-2.851,1.722-5.65,3.523-8.474,5.289
		c-3.06,1.913-6.118,3.826-9.187,5.726c-0.969,0.599-0.995,0.586-1.616-0.398c-1.356-2.146-2.699-4.304-4.183-6.423
		c-0.158,1.983,0.271,3.909,0.383,5.853c0.043,0.719,0.113,1.438,0.201,2.154c0.082,0.676-0.127,1.005-0.869,1.076
		c-4.475,0.427-8.942,0.896-13.416,1.348c-2.315,0.233-4.635,0.479-6.954,0.672c-1.638,0.137-1.609,0.1-1.769-1.507
		c-0.568-5.798-1.158-11.593-1.746-17.389c-0.01-0.104-0.086-0.203-0.186-0.433c-19.137,4.693-38.294,9.393-57.453,14.09
		c-0.761,0.049-0.859-0.486-0.997-1.058c-0.943-3.879-1.915-7.75-2.864-11.627c-2.544-10.392-5.082-20.787-7.619-31.181
		c-3.644-14.917-7.271-29.837-10.952-44.744c-0.329-1.334-0.343-1.601,1.231-1.981c14.814-3.586,29.613-7.238,44.419-10.866
		c8.345-2.045,16.694-4.08,25.038-6.127c0.588-0.144,1.168-0.455,1.684,0.139c0.105,0.542,0.185,1.09,0.314,1.626
		c2.744,11.236,5.494,22.471,8.24,33.706c-0.408,0.446-0.801,0.907-1.227,1.334c-4.004,4.022-8.015,8.039-12.023,12.056
		c-1.168,1.805-1.725,3.844-2.268,5.89c-0.633,0.486-0.451,1.458-1.164,1.954c-0.178-0.311-0.338-0.599-0.504-0.885
		c-3.662-6.365-8.559-11.556-14.735-15.541c-6.522-4.207-13.675-6.499-21.392-7.065c-1.434-0.105-2.881-0.036-4.322-0.034
		c-0.371,0-0.656,0.169-0.623,0.589c0.03,0.353,0.334,0.398,0.617,0.414c0.222,0.013,0.444,0.01,0.666,0.003
		c2.559-0.084,5.1,0.12,7.613,0.571c14.667,2.634,25.493,10.509,32.353,23.775c0.279,0.541,0.554,1.084,0.839,1.621
		c0.151,0.287,0.413,0.379,0.696,0.239c0.299-0.146,0.295-0.427,0.213-0.713c-0.133-0.469-0.524-0.847-0.491-1.389
		c0.7-0.582,1.68-0.567,2.387-1.121c2-0.66,4.041-1.217,5.873-2.311c0.017-0.129,0.031-0.259,0.045-0.388l-0.012,0.025
		c0.709-0.029,0.989-0.651,1.407-1.054c2.828-2.72,5.48-5.62,8.396-8.251c0.707,2.293,0.992,4.699,1.857,6.95
		c-0.447,0.769-0.891,1.539-0.838,2.48c0.117,2.051,1.488,3.312,3.606,3.396c-0.315,1.195-1.019,2.21-1.534,3.313
		c-0.238,0.51-0.347,0.921,0.276,1.24c2.812,1.44,5.619,2.886,8.416,4.354c0.672,0.352,1.01,0.095,1.299-0.5
		c0.438-0.896,0.91-1.775,1.363-2.663c1.94-3.801,3.871-7.608,5.83-11.399c0.389-0.755,0.264-1.223-0.505-1.602
		c-2.682-1.329-5.36-2.667-8.02-4.043c-0.727-0.377-1.098-0.184-1.432,0.498c-0.926,1.892-1.889,3.766-2.838,5.646
		C183.768,58.333,183.047,57.597,181.996,57.348z M177.848,64.971c-0.869,0.076-1.436,0.74-2.149,1.117
		c-0.347,0.18-0.435,0.469-0.214,0.813c0.228,0.353,0.271,0.9,0.771,0.972c0.379,0.056,0.51-0.347,0.639-0.634
		c0.338-0.741,0.851-1.403,0.99-2.229c0.043-0.055,0.086-0.111,0.129-0.167C177.959,64.885,177.902,64.928,177.848,64.971z
		 M178.229,70.628c-0.067-0.039-0.137-0.079-0.205-0.118c0.039,0.069,0.078,0.137,0.117,0.207c0.471,1.866,1.863,3.215,2.721,4.865
		c0.16,0.306,0.412,0.342,0.687,0.167c0.959-0.612,1.914-1.231,3.082-1.986C182.369,72.624,180.379,71.471,178.229,70.628z
		 M110.458,53.191c0.02,0.221,0.012,0.45,0.064,0.662c2.428,9.913,4.857,19.825,7.301,29.733c0.294,1.194,0.333,1.197,1.617,0.884
		c10.127-2.475,20.253-4.954,30.379-7.432c1.064,3.863,1.017,7.785,0.545,11.714c-0.307,2.541-1.035,4.984-1.965,7.365
		c-0.157,0.405-0.488,0.931,0.03,1.168c0.678,0.311,0.744-0.43,0.979-0.827c0.027-0.047,0.042-0.103,0.063-0.154
		c1.395-3.598,2.134-7.321,2.281-11.18c0.109-2.845-0.391-5.626-0.693-8.431c6.086-1.47,12.176-2.932,18.256-4.431
		c0.455-0.112,1.363-0.041,1.146-0.836c-0.209-0.772-0.924-0.282-1.416-0.162c-6.086,1.477-12.17,2.966-18.252,4.452
		c-0.37-0.506-0.424-1.128-0.604-1.701c-4.475-14.243-18.366-23.86-33.263-23.086c-1.998,0.104-3.938,0.573-5.928,0.664
		c-1.355-5.592-2.713-11.185-4.07-16.776c-0.053-0.215-0.079-0.442-0.17-0.64c-0.121-0.259-0.319-0.468-0.647-0.35
		c-0.237,0.086-0.327,0.321-0.286,0.538c0.152,0.814,0.319,1.627,0.513,2.433c1.212,5.058,2.433,10.112,3.651,15.168
		c-0.938,0.308-1.885,0.59-2.809,0.932c-1.027,0.381-2.041,0.803-3.045,1.24c-0.301,0.131-0.578,0.37-0.385,0.773
		c0.187,0.385,0.472,0.366,0.818,0.19c0.392-0.199,0.8-0.367,1.212-0.519C107.309,54.018,108.756,53.176,110.458,53.191z
		 M204.51,81.145c3.141,1.613,6.104,3.112,9.039,4.661c0.682,0.359,1.082,0.336,1.422-0.407c0.438-0.955,0.943-1.879,1.424-2.814
		c1.943-3.794,3.888-7.588,5.84-11.377c0.267-0.518,0.552-0.935-0.233-1.327c-2.871-1.436-5.722-2.917-8.565-4.402
		c-0.513-0.267-0.806-0.166-1.056,0.334c-0.618,1.238-1.264,2.463-1.896,3.694C208.516,73.343,206.545,77.18,204.51,81.145z
		 M218.5,101.736c-1.764-2.829-3.563-5.688-5.326-8.566c-0.447-0.73-0.861-0.605-1.475-0.218c-4.445,2.812-8.902,5.614-13.385,8.372
		c-0.75,0.462-0.842,0.809-0.365,1.545c1.631,2.508,3.191,5.063,4.789,7.591c0.611,0.965,0.631,0.967,1.604,0.358
		c4.464-2.791,8.923-5.588,13.386-8.379C218.01,102.262,218.318,102.129,218.5,101.736z M210.277,63.902
		c-2.486-1.289-4.869-2.555-7.283-3.76c-0.867-0.434-1.771-1.357-2.662-1.038c-0.807,0.288-0.977,1.527-1.406,2.353
		c-2.143,4.124-4.234,8.272-6.377,12.395c-0.354,0.681-0.318,1.047,0.418,1.412c2.777,1.372,5.535,2.785,8.279,4.221
		c0.664,0.347,0.984,0.169,1.289-0.447c0.785-1.586,1.615-3.15,2.42-4.726C206.715,70.873,208.473,67.433,210.277,63.902z
		 M216.951,87.518c3.18,1.634,6.277,3.219,9.365,4.82c0.57,0.295,0.776-0.019,1.002-0.456c2.469-4.833,4.938-9.664,7.432-14.483
		c0.295-0.572,0.232-0.858-0.359-1.156c-2.82-1.418-5.629-2.86-8.42-4.333c-0.643-0.34-0.949-0.253-1.271,0.416
		c-0.843,1.745-1.767,3.45-2.647,5.176C220.367,80.802,218.688,84.107,216.951,87.518z M193.773,103.02
		c-1.729,0.405-3.512,0.383-5.271,0.598c-3.565,0.436-7.151,0.734-10.731,1.048c-0.746,0.065-0.945,0.394-0.875,1.067
		c0.336,3.135,0.672,6.269,0.967,9.404c0.066,0.711,0.357,0.749,0.975,0.665c1.479-0.202,2.973-0.306,4.459-0.446
		c2.645-0.248,5.303-0.396,7.924-0.783c1.264-0.186,2.551-0.063,3.793-0.408c0.553-0.155,0.846-0.341,0.771-1.014
		c-0.341-3.022-0.642-6.049-0.91-9.078C194.807,103.33,194.609,102.891,193.773,103.02z M190.115,90.299
		c1.783,2.849,3.609,5.755,5.42,8.67c0.299,0.482,0.607,0.55,1.07,0.244c0.787-0.519,1.59-1.012,2.389-1.513
		c3.709-2.325,7.42-4.645,11.125-6.978c1.063-0.669,0.994-0.658,0.41-1.777c-1.004-1.932-2.357-3.407-4.467-4.18
		c-1.138-0.416-2.201-1.048-3.254-1.655c-0.654-0.376-1.16-0.354-1.806,0.059c-3.407,2.178-6.846,4.31-10.276,6.454
		C190.488,89.772,190.26,89.92,190.115,90.299z M193.391,100.315c-2.186-3.496-4.213-6.725-6.223-9.965
		c-0.303-0.486-0.646-0.627-1.23-0.563c-3.082,0.344-6.172,0.627-9.256,0.943c-1.223,0.125-1.262,0.145-1.133,1.452
		c0.285,2.92,0.605,5.838,0.93,8.755c0.123,1.111,0.146,1.121,1.32,1.002c2.092-0.207,4.186-0.431,6.277-0.648
		C187.102,100.975,190.127,100.657,193.391,100.315z M199.072,81.186c-3.871-1.974-7.471-3.804-11.063-5.653
		c-0.454-0.234-0.817-0.188-1.231,0.081c-1.117,0.723-2.248,1.424-3.383,2.116c-0.599,0.363-0.683,0.773-0.304,1.372
		c1.693,2.668,3.367,5.346,5.029,8.034c0.31,0.499,0.612,0.534,1.078,0.231c1.024-0.663,2.067-1.294,3.102-1.941
		C194.457,84.077,196.611,82.726,199.072,81.186z M185.092,87.103c-1.773-2.838-3.348-5.373-4.938-7.896
		c-1.846-2.928-1.85-2.897-5.273-2.266c-0.67,0.123-0.791,0.356-0.727,0.966c0.328,3.081,0.629,6.165,0.918,9.249
		c0.063,0.683,0.336,0.956,1.049,0.873c1.813-0.211,3.631-0.37,5.447-0.553C182.65,87.365,183.73,87.248,185.092,87.103z
		 M157.354,27.459c2.322-0.019,4.188-1.932,4.181-4.286c-0.009-2.358-1.854-4.189-4.232-4.197c-2.37-0.007-4.262,1.827-4.295,4.165
		C152.973,25.515,154.949,27.478,157.354,27.459z M148.144,26.483c0.001-2.344-1.854-4.208-4.213-4.238
		c-2.324-0.028-4.289,1.854-4.334,4.151c-0.048,2.365,1.931,4.339,4.331,4.323C146.274,30.705,148.144,28.825,148.144,26.483z
		 M158.357,84.471c0.391-0.069,0.61-0.095,0.826-0.148c3.918-0.966,7.834-1.936,11.754-2.904c0.215-0.053,0.44-0.074,0.643-0.164
		c0.219-0.098,0.285-0.317,0.264-0.553c-0.031-0.364-0.275-0.441-0.58-0.403c-0.272,0.035-0.547,0.084-0.813,0.149
		c-1.933,0.479-3.861,0.971-5.793,1.443c-2.041,0.5-4.087,0.98-6.13,1.476c-0.391,0.095-0.778,0.239-0.657,0.761
		C157.945,84.463,158.236,84.487,158.357,84.471z M159.424,88.013c0.172-0.037,0.445-0.086,0.713-0.151
		c3.598-0.878,7.197-1.758,10.797-2.64c0.322-0.08,0.646-0.157,0.955-0.274c0.314-0.12,0.344-0.403,0.283-0.688
		c-0.057-0.262-0.262-0.327-0.496-0.294c-0.275,0.039-0.551,0.082-0.818,0.148c-2.791,0.685-5.582,1.373-8.373,2.062
		c-1.127,0.279-2.258,0.55-3.379,0.853c-0.266,0.072-0.498,0.29-0.432,0.611C158.74,87.975,159.033,88.013,159.424,88.013z
		 M173.293,68.141c-0.219,1.43,0.059,2.456,0.166,3.493c0.295,2.88,0.291,2.88,3.197,2.206c-0.064-0.208-0.088-0.437-0.195-0.614
		C175.482,71.637,174.488,70.056,173.293,68.141z M168.604,89.125c-0.104-0.661-0.612-0.521-1.018-0.425
		c-1.988,0.469-3.969,0.971-5.951,1.467c-0.535,0.134-1.066,0.285-1.6,0.43c-0.291,0.079-0.525,0.253-0.479,0.572
		c0.061,0.427,0.411,0.499,0.758,0.416c2.574-0.627,5.146-1.272,7.719-1.907C168.328,89.605,168.521,89.441,168.604,89.125z
		 M174.77,63.078c-2.196-0.205-2.324-0.122-1.817,1.144C173.592,63.943,174.16,63.566,174.77,63.078z"/>
	<path fill="#F6DA3D" d="M177.014,51.383c-2.916,2.631-5.568,5.531-8.396,8.251c-0.418,0.403-0.699,1.025-1.408,1.054
		c-0.125-0.452-0.063-1.045-0.821-0.992c-0.32,0.023-0.748,0.043-0.806-0.375c-0.088-0.626-0.513-0.761-0.953-1.092
		c-0.687-0.516-0.772-1.752-1.979-1.771c0.397-1.175-0.728-1.018-1.23-1.404c4.01-4.017,8.02-8.034,12.023-12.056
		c0.426-0.428,0.818-0.889,1.227-1.334c0.449-0.41,0.914-0.803,1.344-1.232c5.604-5.597,11.205-11.197,16.801-16.801
		c0.39-0.389,0.742-0.814,1.111-1.223c2.504-2.224,4.748-4.711,7.158-7.03c0.428-0.411,0.754-0.959,1.387-1.123
		c1.754,2.044,3.768,3.837,5.641,5.766c-0.288,0.554-0.791,0.918-1.219,1.346c-9.51,9.519-19.024,19.032-28.537,28.55
		C177.885,50.385,177.459,50.894,177.014,51.383z"/>
	<path fill="#FCB0BF" d="M213.23,13.565c0.541,0.549,0.668,0.934,0.018,1.458c-1.143,0.921-1.896,2.283-3.285,2.935
		c-1.758-2.029-3.744-3.831-5.635-5.731c0.957-0.992,1.941-1.957,2.855-2.985c0.629-0.708,1.147-0.72,1.727,0.015
		C209.043,9.425,212.154,12.473,213.23,13.565z"/>
	<path fill="#68747D" d="M204.328,12.227c1.891,1.9,3.877,3.702,5.635,5.731c-0.301,0.971-1.045,1.547-1.854,2.063
		c-1.873-1.929-3.887-3.722-5.642-5.766C202.816,13.329,203.57,12.776,204.328,12.227z"/>
	<path fill="#68747D" d="M181.641,64.208c-2.119-0.084-3.49-1.344-3.606-3.396c-0.054-0.941,0.391-1.711,0.838-2.48
		c0.93-0.688,1.938-1.112,3.125-0.985c1.051,0.25,1.771,0.985,2.502,1.704C185.221,62.02,184.492,63.335,181.641,64.208z
		 M181.377,62.646c1.23,0,2.111-0.771,2.109-1.85c-0.002-1.186-0.939-2.103-2.135-2.086c-1.029,0.014-2.004,0.982-2.052,2.042
		C179.252,61.782,180.199,62.646,181.377,62.646z"/>
	<path fill="#39AEB7" d="M244.691,29.22c0.199,0.077,0.223,0.246,0.225,0.425C244.729,29.563,244.629,29.434,244.691,29.22z"/>
	<path fill="#A93539" d="M204.51,81.145c2.035-3.964,4.006-7.802,5.975-11.638c0.632-1.231,1.275-2.457,1.896-3.694
		c0.25-0.5,0.543-0.602,1.056-0.334c2.846,1.485,5.694,2.967,8.565,4.402c0.785,0.392,0.5,0.809,0.233,1.327
		c-1.952,3.79-3.896,7.583-5.84,11.377c-0.479,0.935-0.985,1.859-1.424,2.814c-0.34,0.743-0.74,0.766-1.422,0.407
		C210.613,84.257,207.65,82.758,204.51,81.145z"/>
	<path fill="#C26C15" d="M218.5,101.736c-0.182,0.393-0.49,0.525-0.771,0.701c-4.463,2.791-8.922,5.588-13.385,8.379
		c-0.975,0.609-0.994,0.607-1.604-0.357c-1.599-2.529-3.158-5.083-4.789-7.591c-0.478-0.736-0.386-1.083,0.364-1.545
		c4.482-2.758,8.939-5.56,13.386-8.372c0.612-0.387,1.026-0.512,1.475,0.218C214.938,96.05,216.736,98.907,218.5,101.736z"/>
	<path fill="#F83449" d="M210.277,63.902c-1.805,3.531-3.563,6.971-5.322,10.41c-0.805,1.576-1.635,3.14-2.42,4.726
		c-0.305,0.616-0.625,0.794-1.289,0.447c-2.744-1.436-5.502-2.849-8.279-4.221c-0.736-0.365-0.771-0.731-0.418-1.412
		c2.143-4.122,4.234-8.271,6.377-12.395c0.43-0.826,0.6-2.065,1.406-2.353c0.891-0.319,1.795,0.604,2.662,1.038
		C205.408,61.347,207.791,62.613,210.277,63.902z"/>
	<path fill="#693636" d="M216.951,87.518c1.736-3.411,3.416-6.716,5.1-10.016c0.883-1.726,1.807-3.431,2.648-5.176
		c0.322-0.669,0.629-0.755,1.271-0.416c2.791,1.472,5.6,2.915,8.42,4.333c0.592,0.298,0.653,0.584,0.358,1.156
		c-2.494,4.82-4.963,9.651-7.433,14.483c-0.225,0.437-0.432,0.75-1.002,0.456C223.229,90.737,220.131,89.152,216.951,87.518z"/>
	<path fill="#7BDAD5" d="M193.773,103.02c0.836-0.129,1.033,0.312,1.1,1.051c0.27,3.029,0.57,6.057,0.91,9.078
		c0.076,0.674-0.217,0.859-0.77,1.015c-1.242,0.346-2.529,0.223-3.793,0.407c-2.621,0.388-5.279,0.535-7.925,0.785
		c-1.485,0.14-2.979,0.242-4.459,0.445c-0.616,0.084-0.907,0.047-0.976-0.665c-0.295-3.137-0.631-6.27-0.967-9.403
		c-0.069-0.674,0.129-1.002,0.875-1.068c3.58-0.313,7.166-0.612,10.732-1.048C190.262,103.402,192.045,103.424,193.773,103.02z"/>
	<path fill="#FCB0BF" d="M181.641,64.208c2.853-0.873,3.58-2.188,2.857-5.157c0.949-1.881,1.912-3.754,2.838-5.646
		c0.334-0.682,0.705-0.875,1.432-0.498c2.658,1.377,5.338,2.714,8.021,4.043c0.769,0.379,0.894,0.847,0.504,1.602
		c-1.959,3.791-3.89,7.599-5.83,11.399c-0.453,0.888-0.926,1.767-1.362,2.663c-0.289,0.595-0.627,0.852-1.3,0.5
		c-2.797-1.467-5.604-2.913-8.416-4.354c-0.622-0.319-0.516-0.73-0.276-1.24C180.623,66.419,181.324,65.403,181.641,64.208z"/>
	<path fill="#FC8306" d="M190.115,90.299c0.145-0.379,0.373-0.527,0.611-0.676c3.432-2.144,6.869-4.275,10.276-6.454
		c0.646-0.413,1.149-0.435,1.806-0.059c1.053,0.607,2.116,1.239,3.254,1.655c2.108,0.772,3.463,2.248,4.467,4.18
		c0.584,1.119,0.652,1.108-0.41,1.777c-3.705,2.333-7.416,4.653-11.125,6.978c-0.799,0.501-1.602,0.994-2.389,1.513
		c-0.463,0.306-0.771,0.238-1.07-0.244C193.725,96.054,191.898,93.148,190.115,90.299z"/>
	<path fill="#025A71" d="M193.391,100.315c-3.264,0.342-6.289,0.66-9.313,0.977c-2.093,0.218-4.187,0.44-6.277,0.649
		c-1.174,0.117-1.196,0.107-1.319-1.004c-0.324-2.917-0.646-5.834-0.931-8.754c-0.129-1.308-0.09-1.327,1.134-1.452
		c3.084-0.316,6.174-0.599,9.256-0.943c0.584-0.065,0.928,0.077,1.229,0.563C189.178,93.59,191.205,96.819,193.391,100.315z"/>
	<path fill="#FDB25A" d="M199.072,81.186c-2.461,1.541-4.615,2.891-6.771,4.24c-1.033,0.646-2.076,1.278-3.102,1.941
		c-0.465,0.303-0.77,0.268-1.078-0.231c-1.662-2.688-3.336-5.366-5.029-8.034c-0.379-0.599-0.295-1.008,0.303-1.372
		c1.135-0.692,2.267-1.393,3.383-2.116c0.414-0.271,0.777-0.315,1.232-0.081C191.602,77.381,195.201,79.211,199.072,81.186z"/>
	<path fill="#18C693" d="M151.059,76.694c0.303,2.805,0.803,5.586,0.693,8.431c-0.146,3.859-0.886,7.583-2.281,11.18
		c-0.021,0.051-0.035,0.107-0.063,0.154c-0.235,0.397-0.302,1.138-0.979,0.827c-0.519-0.237-0.188-0.763-0.03-1.168
		c0.93-2.381,1.658-4.824,1.965-7.365c0.472-3.93,0.52-7.852-0.545-11.714c0.026-0.382,0.063-0.768-0.287-1.046
		c-0.023-0.22-0.017-0.446-0.074-0.657c-3.98-14.604-18.645-24.735-33.717-23.265c-1.471,0.144-2.988,0.168-4.364,0.852
		c-0.324,0.025-0.661,0.012-0.919,0.269c-1.701-0.016-3.148,0.827-4.677,1.391c-0.412,0.152-0.82,0.32-1.212,0.519
		c-0.347,0.176-0.632,0.194-0.818-0.19c-0.193-0.404,0.084-0.643,0.385-0.773c1.004-0.437,2.018-0.859,3.045-1.24
		c0.924-0.342,1.871-0.624,2.809-0.932c0.393,0.028,0.734-0.083,1.01-0.373c1.99-0.091,3.93-0.559,5.928-0.664
		c14.896-0.774,28.788,8.843,33.263,23.086c0.18,0.573,0.233,1.195,0.604,1.701C150.842,76.054,150.805,76.414,151.059,76.694z"/>
	<path fill="#025A71" d="M185.092,87.103c-1.361,0.145-2.441,0.262-3.523,0.372c-1.815,0.184-3.635,0.342-5.446,0.553
		c-0.713,0.083-0.983-0.19-1.049-0.873c-0.289-3.084-0.591-6.168-0.919-9.249c-0.063-0.609,0.058-0.843,0.728-0.966
		c3.425-0.631,3.429-0.662,5.272,2.266C181.744,81.73,183.318,84.265,185.092,87.103z"/>
	<path fill="#68747D" d="M110.458,53.191c0.258-0.257,0.595-0.244,0.919-0.269c1.649,6.722,3.298,13.444,4.945,20.168
		c0.738,3.011,1.467,6.025,2.212,9.036c0.346,1.396,0.359,1.394,1.801,1.041c0.699-0.17,1.396-0.347,2.096-0.518
		c9.033-2.219,18.067-4.438,27.102-6.657c0.35,0.279,0.313,0.664,0.287,1.046c-10.126,2.478-20.252,4.957-30.379,7.432
		c-1.284,0.313-1.323,0.312-1.617-0.884c-2.443-9.908-4.873-19.82-7.301-29.733C110.469,53.641,110.477,53.412,110.458,53.191z"/>
	<path fill="#68747D" d="M161.303,63.362c-0.707,0.554-1.686,0.539-2.387,1.121c-0.033,0.542,0.359,0.92,0.492,1.389
		c0.082,0.287,0.086,0.567-0.213,0.713c-0.283,0.14-0.545,0.048-0.697-0.239c-0.285-0.537-0.559-1.081-0.838-1.621
		c-6.86-13.266-17.686-21.141-32.353-23.775c-2.514-0.451-5.055-0.655-7.613-0.571c-0.222,0.007-0.444,0.01-0.666-0.003
		c-0.283-0.016-0.587-0.061-0.617-0.414c-0.033-0.42,0.252-0.589,0.623-0.589c1.441-0.002,2.889-0.071,4.322,0.034
		c7.717,0.566,14.869,2.859,21.392,7.065c6.177,3.984,11.072,9.176,14.734,15.541c0.166,0.286,0.326,0.575,0.504,0.885
		c0.714-0.496,0.531-1.467,1.164-1.954C159.754,61.852,160.756,62.404,161.303,63.362z"/>
	<path fill="#FCB0BF" d="M161.303,63.362c-0.547-0.958-1.549-1.51-2.152-2.418c0.543-2.045,1.101-4.085,2.269-5.89
		c0.504,0.387,1.629,0.229,1.229,1.404c1.207,0.019,1.295,1.255,1.98,1.771c0.441,0.331,0.865,0.466,0.953,1.092
		c0.057,0.419,0.484,0.398,0.805,0.375c0.76-0.054,0.697,0.54,0.822,0.992l0.012-0.025c-0.381,0.087-0.234,0.235-0.045,0.388
		C165.344,62.145,163.303,62.702,161.303,63.362z"/>
	<path fill="#68747D" d="M151.059,76.694c-0.252-0.281-0.216-0.641-0.266-0.978c6.083-1.486,12.167-2.975,18.252-4.452
		c0.492-0.12,1.207-0.61,1.416,0.162c0.217,0.795-0.691,0.725-1.146,0.836C163.234,73.763,157.145,75.224,151.059,76.694z"/>
	<path fill="#68747D" d="M110.999,51.593c-0.275,0.29-0.617,0.401-1.01,0.373c-1.219-5.056-2.439-10.11-3.651-15.168
		c-0.193-0.806-0.36-1.618-0.513-2.433c-0.041-0.217,0.049-0.452,0.286-0.538c0.328-0.118,0.526,0.091,0.647,0.35
		c0.091,0.198,0.117,0.424,0.17,0.64C108.286,40.408,109.643,46,110.999,51.593z"/>
	<path fill="#F83449" d="M157.354,27.459c-2.403,0.019-4.381-1.944-4.348-4.318c0.033-2.338,1.924-4.172,4.295-4.165
		c2.377,0.008,4.225,1.839,4.232,4.197C161.541,25.527,159.676,27.44,157.354,27.459z M157.279,26.717
		c1.924,0.011,3.521-1.516,3.574-3.419c0.055-1.934-1.607-3.641-3.547-3.643c-1.916-0.003-3.507,1.534-3.563,3.444
		C153.688,25.088,155.268,26.705,157.279,26.717z"/>
	<path fill="#F83449" d="M148.144,26.483c0,2.341-1.87,4.222-4.216,4.237c-2.4,0.016-4.379-1.958-4.331-4.323
		c0.045-2.298,2.01-4.18,4.334-4.151C146.291,22.275,148.145,24.14,148.144,26.483z M143.948,22.941
		c-1.998-0.027-3.617,1.577-3.602,3.569c0.015,1.911,1.582,3.486,3.492,3.514c1.961,0.028,3.641-1.629,3.622-3.571
		C147.442,24.571,145.838,22.968,143.948,22.941z"/>
	<path fill="#68747D" d="M158.357,84.471c-0.121,0.017-0.412-0.007-0.488-0.344c-0.121-0.521,0.268-0.666,0.658-0.761
		c2.043-0.496,4.088-0.976,6.129-1.476c1.932-0.473,3.861-0.964,5.793-1.443c0.268-0.065,0.541-0.114,0.814-0.149
		c0.305-0.038,0.549,0.039,0.579,0.403c0.021,0.236-0.045,0.455-0.264,0.553c-0.201,0.09-0.429,0.111-0.644,0.164
		c-3.92,0.969-7.836,1.938-11.754,2.904C158.969,84.375,158.748,84.402,158.357,84.471z"/>
	<path fill="#68747D" d="M159.424,88.013c-0.391,0-0.684-0.039-0.75-0.373c-0.066-0.321,0.166-0.54,0.432-0.611
		c1.121-0.303,2.252-0.574,3.379-0.853c2.791-0.689,5.582-1.377,8.373-2.062c0.269-0.066,0.543-0.109,0.818-0.148
		c0.234-0.033,0.439,0.032,0.496,0.294c0.061,0.285,0.031,0.568-0.283,0.688c-0.309,0.117-0.633,0.194-0.955,0.274
		c-3.6,0.881-7.199,1.762-10.797,2.64C159.869,87.927,159.596,87.976,159.424,88.013z"/>
	<path fill="#FCB0BF" d="M178.229,70.628c2.15,0.843,4.142,1.996,6.4,3.135c-1.168,0.754-2.123,1.374-3.082,1.986
		c-0.273,0.175-0.525,0.139-0.686-0.167c-0.857-1.65-2.25-3-2.721-4.865L178.229,70.628z"/>
	<path fill="#39AEB7" d="M173.293,68.141c1.195,1.915,2.189,3.496,3.168,5.085c0.107,0.177,0.131,0.406,0.195,0.614
		c-2.906,0.674-2.902,0.674-3.197-2.206C173.352,70.596,173.074,69.57,173.293,68.141z"/>
	<path fill="#68747D" d="M168.604,89.125c-0.082,0.316-0.274,0.48-0.569,0.553c-2.572,0.635-5.146,1.279-7.72,1.907
		c-0.346,0.083-0.696,0.011-0.758-0.416c-0.047-0.318,0.188-0.493,0.479-0.572c0.532-0.146,1.063-0.296,1.601-0.43
		c1.981-0.496,3.963-0.998,5.95-1.467C167.99,88.604,168.5,88.464,168.604,89.125z"/>
	<path fill="#FCB0BF" d="M177.885,65.009c-0.141,0.827-0.652,1.489-0.99,2.229c-0.129,0.288-0.26,0.689-0.639,0.634
		c-0.5-0.072-0.545-0.62-0.771-0.972c-0.221-0.343-0.133-0.632,0.213-0.813c0.716-0.376,1.281-1.041,2.15-1.117L177.885,65.009z"/>
	<path fill="#39AEB7" d="M174.77,63.078c-0.608,0.488-1.178,0.865-1.817,1.144C172.445,62.956,172.572,62.874,174.77,63.078z"/>
	<path fill="#FCB0BF" d="M178.141,70.717c-0.039-0.069-0.078-0.137-0.117-0.207c0.068,0.039,0.138,0.079,0.205,0.118L178.141,70.717
		z"/>
	<path fill="#F6DA3D" d="M167.176,61.051c-0.189-0.153-0.336-0.301,0.045-0.388C167.207,60.792,167.191,60.922,167.176,61.051z"/>
	<path fill="#3C9999" d="M213.729,89.152c-0.112-0.124-0.256-0.255-0.028-0.387c0.03-0.018,0.151,0.119,0.229,0.184
		C213.865,89.019,213.797,89.087,213.729,89.152z"/>
	<path fill="#FCB0BF" d="M177.848,64.971c0.055-0.043,0.111-0.086,0.166-0.129c-0.043,0.056-0.086,0.112-0.129,0.167L177.848,64.971
		z"/>
	<path fill="#693636" d="M181.377,62.646c-1.178,0-2.125-0.864-2.076-1.895c0.047-1.06,1.021-2.028,2.051-2.042
		c1.195-0.016,2.133,0.901,2.135,2.086C183.488,61.874,182.607,62.646,181.377,62.646z"/>
	<path fill="#EFEFEF" d="M149.532,75.992c-9.034,2.219-18.068,4.438-27.102,6.657c-0.699,0.171-1.396,0.348-2.096,0.518
		c-1.441,0.353-1.455,0.355-1.801-1.041c-0.745-3.011-1.474-6.025-2.212-9.036c-1.647-6.724-3.296-13.446-4.945-20.168
		c1.376-0.684,2.894-0.708,4.364-0.852c15.072-1.47,29.736,8.662,33.717,23.265C149.515,75.546,149.508,75.772,149.532,75.992z"/>
	<path fill="#EFEFEF" d="M157.279,26.717c-2.012-0.012-3.592-1.629-3.535-3.619c0.057-1.91,1.646-3.447,3.563-3.444
		c1.939,0.002,3.603,1.709,3.547,3.643C160.801,25.201,159.203,26.728,157.279,26.717z"/>
	<path fill="#EFEFEF" d="M143.948,22.941c1.891,0.026,3.494,1.629,3.513,3.512c0.019,1.941-1.661,3.599-3.622,3.571
		c-1.91-0.027-3.478-1.603-3.492-3.514C140.331,24.518,141.95,22.914,143.948,22.941z"/>
</g>
<path fill="#636363" d="M30.133,83.047c0,2.735-2.217,3.513-4.952,3.513c-2.735,0-4.953-0.778-4.953-3.513
	c0-2.735,2.217-4.952,4.953-4.952C27.916,78.095,30.133,80.313,30.133,83.047z"/>
<path fill="#B2B2B2" d="M14.871,84.924l17.491-6.009c0,0,8.691-3.166,19.421-4.024c0,0,12.769-1.341,21.676,3.81
	c0,0,9.766,4.023,15.184,17.061c0,0-0.053,4.186-6.76,4.614H24.314c0,0-4.829,0.376-7.672-3.326
	c-2.843-3.702-5.365-8.906-5.365-8.906s-0.375-1.126,0.483-1.663C11.759,86.48,12.979,85.574,14.871,84.924z M11.219,87.885
	c0,0,1.01,1.828,3.062,2.049c0,0,2.333,0.101,4.346,0l2.58-0.059c0,0,0.82,1.085,2.812,1.95c0,0,1.71,0.946,3.078,1.167
	c0,0,1.328,0.302,2.998,0.201c0,0,2.293,0.201,5.03-0.362c0,0,2.696-0.322,7.102-1.589c0,0,1.851-0.604,4.607-1.268
	c0,0,2.978-0.885,5.473-1.146c0,0,3.299-0.583,5.271-0.362c0,0,0.262-0.201,6.519,0.241c0,0,2.092,0.141,6.881,1.328
	c0,0,3.581,0.865,5.392,1.589c0,0,2.515,0.745,5.473,2.293c0,0,1.448,0.725,3.722,2.012l2.512,1.542c0,0,0.345-0.525,0.506-1.265
	c0.136-0.622-2.496-2.449-2.496-2.449s-0.546-0.595-4.587-3.34c0,0-3.782-2.676-7.525-3.964c0,0-4.527-2.032-9.476-2.656
	c0,0,0,0-5.834-0.422c0,0-2.233-0.141-4.95-0.081c0,0-2.978-0.07-6.076,0.242c0,0-1.364,0.099-4.787,0.552
	c0,0-1.218,0.199-2.617,0.494c0,0,0.402-0.101,5.15-2.333c0,0,2.26-1.012,6.016-2.938c0,0,1.207-0.483,3.299-1.65
	c0,0,3.578-1.758,5.248-2.744l-1.214-0.089c0,0-0.473,0.418-2.445,1.304l-3.48,1.791l-2.173,1.127l-2.475,1.167l-1.932,0.865
	l-1.228,0.563l-1.146,0.563l-1.167,0.523l-1.147,0.543l-1.288,0.604l-1.589,0.664l-1.408,0.563l-1.248,0.503l-1.972,0.825
	l-1.529,0.583l-1.167,0.402l-1.207,0.402c0,0-0.624,0.302-4.829,0.926c0,0-2.435,0.422-5.573,0.503c0,0-3.157,0.165-5.38,0.054
	c0,0-1.946-0.172-2.972-2.446l-0.133,0.31l-0.057,0.393L11.219,87.885z"/>
</svg>
