<?xml version="1.0" encoding="utf-8"?>
<!-- Generator: Adobe Illustrator 16.0.0, SVG Export Plug-In . SVG Version: 6.00 Build 0)  -->
<!DOCTYPE svg PUBLIC "-//W3C//DTD SVG 1.1//EN" "http://www.w3.org/Graphics/SVG/1.1/DTD/svg11.dtd">
<svg version="1.1" id="Capa_1" xmlns="http://www.w3.org/2000/svg" xmlns:xlink="http://www.w3.org/1999/xlink" x="0px" y="0px"
	 width="150px" height="150px" viewBox="0 0 150 150" enable-background="new 0 0 150 150" xml:space="preserve">
<g>
	<path fill="#136DA9" d="M53.426,25.436C27.965,36.25,11.941,57.458,11.941,84.709c0,34.82,28.231,63.055,63.058,63.055
		c34.827,0,63.059-28.234,63.059-63.055c0-41.873-38.905-58.519-38.905-58.519s-8.497-3.529-13.249-6.696
		c0,0-6.002-3.668-16.465-17.173C69.439,2.321,69.676,17.666,53.426,25.436"/>
	<path fill="#F0F0F0" d="M68.689,135.559c-2.215-1.539-1.688-6.441,4.314-2.939c0,0,12.779,9.385,33.012-1.877
		c1.573-0.875,3.502,2.213-1.5,5.047C104.516,135.789,84.07,146.25,68.689,135.559L68.689,135.559z"/>
	<path fill="none" stroke="#FFFDFF" d="M68.689,135.559c-2.215-1.539-1.688-6.441,4.314-2.939c0,0,12.779,9.385,33.012-1.877
		c1.573-0.875,3.502,2.213-1.5,5.047C104.516,135.789,84.07,146.25,68.689,135.559L68.689,135.559z"/>
	<path fill="#F0F0F0" d="M94.763,119.99c7.439,0.871,4.881,4.449,6.877,5c4.064,1.125,2.313-3.313,2.313-3.313
		c-3.003-6.002-8.191-5.627-8.191-5.627c-8.128-1.25-14.191,6.502-14.191,6.502c-1.502,3.314,0.599,3.484,1.375,3.125
		C86.884,123.865,89.279,119.346,94.763,119.99z"/>
	<path fill="none" stroke="#FFFDFF" d="M94.763,119.99c7.439,0.871,4.881,4.449,6.877,5c4.064,1.125,2.313-3.313,2.313-3.313
		c-3.003-6.002-8.191-5.627-8.191-5.627c-8.128-1.25-14.191,6.502-14.191,6.502c-1.502,3.314,0.599,3.484,1.375,3.125
		C86.884,123.865,89.279,119.346,94.763,119.99z"/>
	<path fill="#008ECE" d="M20.194,116.414c0,0,22.61,18.707,77.631-22.967c0,0,27.638-17.348,26.804-47.094
		c0,0-8.943-12.853-24.033-19.481C98.449,25.929,79.594,15.64,69.41,2.737c0,0-1.846,37.432-49.788,52.209
		c0,0-12.081,17.818-5.495,46.776c0,0,4.215,11.742,6.067,14.693"/>
	<path fill="#F0F0F0" d="M56.06,123.367c0,0-18.758,0.498-16.506-19.508c0,0,3.918-22.508,30.261-17.508
		c0,0,5.753,1.248,16.507,9.502c0,0,7.098,5.473,11.004,5.369c0,0,3.032,0.289,9.338-3.701c0,0,12.859-9.922,17.353-9.627
		c0.114,0.008,9.074-0.979,9.074,13.463c0,0,0.167,15.922-11.839,21.26c0,0-3.167,1.082-6.586-2.502c0,0-9.836-11.172-14.673-13.006
		c0,0-2.792-1.096-6.501,0.25c0,0-2.419,0.25-12.338,6.836C81.153,114.195,64.479,124.617,56.06,123.367L56.06,123.367z"/>
	<path fill="none" stroke="#FFFDFF" d="M56.06,123.367c0,0-18.758,0.498-16.506-19.508c0,0,3.918-22.508,30.261-17.508
		c0,0,5.753,1.248,16.507,9.502c0,0,7.098,5.473,11.004,5.369c0,0,3.032,0.289,9.338-3.701c0,0,12.859-9.922,17.353-9.627
		c0.114,0.008,9.074-0.979,9.074,13.463c0,0,0.167,15.922-11.839,21.26c0,0-3.167,1.082-6.586-2.502c0,0-9.836-11.172-14.673-13.006
		c0,0-2.792-1.096-6.501,0.25c0,0-2.419,0.25-12.338,6.836C81.153,114.195,64.479,124.617,56.06,123.367L56.06,123.367z"/>
	<path fill="#008ECE" d="M65.979,51.589c12.145-17.394,3.43-49.352,3.43-49.352c-1.072,17.339-15.701,23.062-15.701,23.062
		C27.515,36.604,19.622,54.445,19.622,54.445C25.235,62.406,40.136,88.602,65.979,51.589"/>
	<path fill="#A0D8F1" d="M69.41,2.237c0,0,1.572,14.59-6.348,19.341c0,0-12.701,5.912-16.578,7.85c0,0-16.31,9.845-21.687,19.098
		c0,0-11.504,15.395,4.377,11.754c0,0,28.72-8.108,40.392-32.575c0,0,0.687-2.063-1.502-4.189
		C68.063,23.516,76.818,16.909,69.41,2.237"/>
	<path fill="#F0F0F0" d="M69.41,2.237c0,0,0.655,9.962-7.615,18.217c0,0-2.484,3.5-15.311,8.974c0,0-14.684,7.656-21.267,18.274
		c0,0-9.756,11.768,3.621,8.613c0,0,27.107-9.989,37.04-28.333c0,0,1.344-1.927-0.701-3.914
		C65.177,24.067,74.901,16.471,69.41,2.237"/>
</g>
</svg>
