<?xml version="1.0" encoding="utf-8"?>
<!-- Generator: Adobe Illustrator 16.0.0, SVG Export Plug-In . SVG Version: 6.00 Build 0)  -->
<!DOCTYPE svg PUBLIC "-//W3C//DTD SVG 1.1//EN" "http://www.w3.org/Graphics/SVG/1.1/DTD/svg11.dtd">
<svg version="1.1" id="Capa_1" xmlns="http://www.w3.org/2000/svg" xmlns:xlink="http://www.w3.org/1999/xlink" x="0px" y="0px"
	 width="300px" height="158.5px" viewBox="0 0 300 158.5" enable-background="new 0 0 300 158.5" xml:space="preserve">
<g>
	<rect x="195.637" y="20.689" fill="#58595B" width="23.464" height="6.122"/>
	<rect x="198.806" y="18.811" fill="#58595B" width="17.397" height="4.134"/>
	<rect x="54.483" y="22.836" width="17.61" height="5.423"/>
	<rect x="253.784" y="43.723" width="3.653" height="17.666"/>
	<rect x="225.008" y="22.945" width="17.396" height="3.866"/>
	<rect x="201.382" y="20.313" width="3.438" height="6.498"/>
	<rect x="210.403" y="20.313" width="3.437" height="6.498"/>
	<rect x="42.563" y="35.83" fill="#707070" width="211.974" height="108.886"/>
	<rect x="77.033" y="32.608" fill="#232124" width="1.933" height="116.965"/>
	<rect x="44.174" y="32.608" fill="#232124" width="1.934" height="116.965"/>
	<rect x="218.134" y="32.608" fill="#232124" width="1.934" height="116.965"/>
	<rect x="250.349" y="32.608" fill="#232124" width="1.933" height="116.965"/>
	<rect x="42.563" y="143.426" width="211.974" height="12.295"/>
	<g>
		<path fill="#707070" d="M148.55,2.327h-18.685c0,0-5.154-0.805-7.249,4.188l-7.409,14.979c0,0-1.289,4.349-8.054,6.765h41.396
			V2.327z"/>
		<path fill="#707070" d="M147.743,2.327h18.686c0,0,5.155-0.805,7.249,4.188l7.408,14.979c0,0,1.289,4.349,8.055,6.765h-41.397
			V2.327z"/>
	</g>
	
		<rect x="42.563" y="25.843" fill="#C4C3C4" stroke="#B3B3B3" stroke-width="0.25" stroke-miterlimit="10" width="211.974" height="11.598"/>
	<rect x="193.006" y="30.031" fill="#58595B" width="39.303" height="27.061"/>
	<rect x="196.067" y="33.253" fill="#51CBD0" width="33.663" height="20.939"/>
	<polygon fill="#27BEC4" points="214.322,33.253 196.067,50.863 196.067,53.737 196.067,54.192 198.17,54.192 219.259,33.253 	"/>
	<polygon fill="#27BDC3" points="228.717,33.253 208.107,54.192 219.789,54.192 229.73,43.723 229.73,33.253 	"/>
	<polygon fill="#27BEC4" points="229.73,45.763 221.777,54.192 229.73,54.192 	"/>
	<rect x="48.04" y="49.146" fill="#444444" width="6.443" height="89.342"/>
	<circle cx="148.63" cy="90.682" r="47.141"/>
	<circle fill="#58595B" cx="148.631" cy="90.682" r="39.194"/>
	<circle cx="148.631" cy="90.682" r="37.584"/>
	<circle fill="#58595B" cx="148.631" cy="90.682" r="33.827"/>
	<circle fill="#7DCECF" cx="148.631" cy="90.682" r="31.035"/>
	<circle fill="#A3DCDD" cx="138.282" cy="79.281" r="11.342"/>
	<circle cx="104.309" cy="131.917" r="5.907"/>
</g>
</svg>
