<?xml version="1.0" encoding="utf-8"?>
<!-- Generator: Adobe Illustrator 16.0.0, SVG Export Plug-In . SVG Version: 6.00 Build 0)  -->
<!DOCTYPE svg PUBLIC "-//W3C//DTD SVG 1.1//EN" "http://www.w3.org/Graphics/SVG/1.1/DTD/svg11.dtd">
<svg version="1.1" id="Capa_1" xmlns="http://www.w3.org/2000/svg" xmlns:xlink="http://www.w3.org/1999/xlink" x="0px" y="0px"
	 width="150px" height="150px" viewBox="0 0 150 150" enable-background="new 0 0 150 150" xml:space="preserve">
<g>
	<path fill="#F9AE41" d="M147.689,21.646c0-10.608-8.6-19.208-19.208-19.208c-9.686,0-17.692,7.171-19.012,16.493l-0.194-0.103
		c-15.708-7.086-28.939,5.464-28.939,5.464l-35,35.17L59.166,72.78l28.17-27.675c13.154-13.156,20.317-4.252,20.317-4.252
		c9.903,8.366,0.342,18.268,0.342,18.268l14.17,13.659c11.572-12.499,12.243-23.406,8.726-32.083
		C140.362,39.512,147.689,31.438,147.689,21.646"/>
	<path fill="#EE4035" d="M131.069,109.979c0.065-0.122,0.104-0.193,0.104-0.193c7.084-15.708-5.464-28.938-5.464-28.938
		L90.537,45.847L77.22,59.677l27.675,28.17c13.156,13.154,4.252,20.319,4.252,20.319c-8.365,9.902-18.267,0.339-18.267,0.339
		l-13.66,14.171c12.498,11.571,23.406,12.243,32.082,8.727c1.186,9.469,9.261,16.8,19.053,16.8c10.607,0,19.207-8.601,19.207-19.209
		C147.562,119.307,140.392,111.302,131.069,109.979"/>
	<path fill="#4F91CD" d="M90.835,77.219l-28.169,27.676c-13.156,13.156-20.318,4.252-20.318,4.252
		c-9.902-8.365-0.341-18.268-0.341-18.268l-14.17-13.66c-11.572,12.498-12.244,23.406-8.727,32.084
		c-9.471,1.185-16.799,9.258-16.799,19.052c0,10.606,8.6,19.207,19.208,19.207c9.686,0,17.693-7.171,19.012-16.492
		c0.123,0.065,0.194,0.103,0.194,0.103c15.709,7.085,28.94-5.466,28.94-5.466l34.999-35.169L90.835,77.219"/>
	<path fill="#7AC043" d="M45.104,62.153c-13.155-13.155-4.252-20.318-4.252-20.318c8.367-9.902,18.269-0.34,18.269-0.34
		l13.659-14.17c-12.498-11.573-23.406-12.244-32.083-8.727c-1.186-9.471-9.26-16.8-19.053-16.8
		c-10.606,0-19.206,8.601-19.207,19.208c0,9.686,7.17,17.694,16.493,19.013c-0.065,0.124-0.102,0.195-0.102,0.195
		c-7.086,15.708,5.463,28.938,5.463,28.938l35.172,35.001l13.317-13.83L45.104,62.153"/>
</g>
</svg>
