<?xml version="1.0" encoding="utf-8"?>
<!-- Generator: Adobe Illustrator 16.0.0, SVG Export Plug-In . SVG Version: 6.00 Build 0)  -->
<!DOCTYPE svg PUBLIC "-//W3C//DTD SVG 1.1//EN" "http://www.w3.org/Graphics/SVG/1.1/DTD/svg11.dtd">
<svg version="1.1" id="Capa_1" xmlns="http://www.w3.org/2000/svg" xmlns:xlink="http://www.w3.org/1999/xlink" x="0px" y="0px"
	 width="300px" height="300px" viewBox="0 0 300 300" enable-background="new 0 0 300 300" xml:space="preserve">
<circle fill="#8BE6D5" cx="150" cy="150" r="147.75"/>
<g>
	<path fill="#FDDD6F" d="M222.618,114.772c0,2.918-2.364,5.282-5.282,5.282H81.776c-2.917,0-5.281-2.364-5.281-5.282V71.421
		c0-2.917,2.364-5.282,5.281-5.282h135.56c2.918,0,5.282,2.365,5.282,5.282V114.772z"/>
	<path fill="#C39E24" d="M219.317,120.055c0,2.917-2.365,5.281-5.281,5.281H85.297c-2.917,0-5.282-2.364-5.282-5.281V74.831
		c0-2.917,2.365-5.281,5.282-5.281h128.739c2.916,0,5.281,2.364,5.281,5.281V120.055z"/>
	<path fill="#C39D25" d="M66.299,160.914c0,0,1.906,11.297,3.081,12.029c1.039,0.649,159.901,0.649,160.941,0
		c1.173-0.732,3.081-12.029,3.081-12.029H66.299z"/>
	<path fill="#434645" d="M247.053,93.646H52.947c0,0-6.161,7.043,0,16.726h194.105C253.214,100.689,247.053,93.646,247.053,93.646z"
		/>
	
		<rect x="83.317" y="45.454" fill="#FFFFFF" stroke="#999999" stroke-width="0.25" stroke-miterlimit="10" width="132.919" height="70.714"/>
	<polygon fill="#C29E26" points="82.657,110.372 77.595,110.372 77.595,111.912 78.695,120.274 82.657,128.197 88.378,136.779 
		95.86,146.463 108.844,153.725 117.208,159.227 129.091,163.188 165.401,163.188 173.323,162.087 181.026,160.327 189.169,157.025 
		196.43,153.725 203.032,148.883 208.094,144.481 212.936,135.54 214.696,131.058 216.897,125.336 219.317,119.835 220.418,114.993 
		220.418,110.372 	"/>
	<path fill="#EAC755" d="M234.057,157.163v-45.911c-0.435-5.722-5.837-5.171-5.837-5.171h-12.543
		c-6.054-0.661-6.383,4.511-6.383,4.511c-4.732,19.916-17.265,30.369-17.265,30.369c-14.103,14.298-36.436,14.645-41.593,14.65
		v-0.016c0,0-0.194,0.008-0.556,0.012c-0.358-0.004-0.554-0.012-0.554-0.012v0.016c-5.158-0.006-27.152-0.902-41.255-15.201
		c0,0-12.872-9.902-17.603-29.818c0,0-0.33-5.172-6.382-4.511H71.543c0,0-5.402-0.551-5.837,5.171v45.911
		c0,0-0.435,7.895,6.717,7.895h76.903h1.109h76.903C234.49,165.058,234.057,157.163,234.057,157.163z"/>
	<path fill="#FFDD6E" d="M234.062,156.771v-22.741l-0.005-22.817c-0.476-5.678-5.054-5.133-5.054-5.133h-7.326
		c-6.613-0.654-6.974,4.478-6.974,4.478c-5.171,19.764-20.034,34.658-20.034,34.658c-19.219,16.726-45.013,14.337-45.406,14.342
		c-0.394-0.005-29.123,0.771-46.434-16.396c0,0-12.808-12.841-17.978-32.604c0,0-0.361-5.132-6.974-4.478l-6.334,0.002
		c0,0-5.367-0.547-5.843,5.131v23.257l0.006,22.302c0,0-1.099,8.287,6.717,8.287l154.915-0.131
		C235.155,164.927,234.062,156.771,234.062,156.771z"/>
	<polygon fill="#FFE2A7" points="241.324,88.879 241.324,101.203 203.912,101.203 203.912,96.802 202.152,96.802 202.152,101.203 
		98.282,101.203 98.282,96.802 96.521,96.802 96.521,101.203 58.669,101.203 58.669,88.879 53.388,88.879 53.388,116.168 
		58.669,116.168 58.669,103.551 96.521,103.551 96.521,107.658 98.282,107.658 98.282,103.551 202.152,103.551 202.152,107.658 
		203.912,107.658 203.912,103.551 241.324,103.551 241.324,116.168 246.605,116.168 246.605,88.879 	"/>
	<path fill="#FFE2A7" d="M152.858,120.055h-6.493v-15.735h6.493V120.055z M150.876,104.319h-2.64v9.023h2.64V104.319z"/>
	<path fill="#FFDD6E" d="M227.771,169.569H72.46c0,0-3.815,0.147-3.521,3.815l13.645,36.97c0,0,6.602,11.296,20.393,10.563h94.277
		c13.794,0.732,20.395-10.563,20.395-10.563l13.645-36.97C231.586,169.717,227.771,169.569,227.771,169.569z"/>
	<path fill="#444247" d="M209.73,176.904H89.822c0,0-3.667-0.293-3.667,2.936l5.429,28.9c0,0,0.733,7.923,18.925,7.19h78.535
		c18.191,0.732,18.927-7.19,18.927-7.19l5.427-28.9C213.397,176.611,209.73,176.904,209.73,176.904z"/>
	<g>
		<g>
			<g>
				<path fill="#FCEDA0" d="M101.953,179.252H98.79H98.62h-1.958c0,0-1.1-0.146-1.1,1.248c0,1.067,0,3.463,0,4.531
					c0,1.394,1.1,1.247,1.1,1.247h1.958h0.169h3.163c0,0,1.101,0.146,1.101-1.247c0-1.068,0-3.464,0-4.531
					C103.054,179.105,101.953,179.252,101.953,179.252z"/>
				<path fill="#FCEDA0" d="M111.205,179.252h-3.163h-0.17h-1.958c0,0-1.1-0.146-1.1,1.248c0,1.067,0,3.463,0,4.531
					c0,1.394,1.1,1.247,1.1,1.247h1.958h0.17h3.163c0,0,1.1,0.146,1.1-1.247c0-1.068,0-3.464,0-4.531
					C112.304,179.105,111.205,179.252,111.205,179.252z"/>
				<path fill="#FCEDA0" d="M120.063,179.252h-3.163h-0.17h-1.956c0,0-1.101-0.146-1.101,1.248c0,1.067,0,3.463,0,4.531
					c0,1.394,1.101,1.247,1.101,1.247h1.956h0.17h3.163c0,0,1.101,0.146,1.101-1.247c0-1.068,0-3.464,0-4.531
					C121.163,179.105,120.063,179.252,120.063,179.252z"/>
				<path fill="#FCEDA0" d="M128.874,179.252h-3.164h-0.17h-1.958c0,0-1.1-0.146-1.1,1.248c0,1.067,0,3.463,0,4.531
					c0,1.394,1.1,1.247,1.1,1.247h1.958h0.17h3.164c0,0,1.101,0.146,1.101-1.247c0-1.068,0-3.464,0-4.531
					C129.975,179.105,128.874,179.252,128.874,179.252z"/>
				<path fill="#FCEDA0" d="M138.125,179.252h-3.163h-0.169h-1.958c0,0-1.101-0.146-1.101,1.248c0,1.067,0,3.463,0,4.531
					c0,1.394,1.101,1.247,1.101,1.247h1.958h0.169h3.163c0,0,1.101,0.146,1.101-1.247c0-1.068,0-3.464,0-4.531
					C139.226,179.105,138.125,179.252,138.125,179.252z"/>
				<path fill="#FCEDA0" d="M147.377,179.252h-3.163h-0.169h-1.957c0,0-1.101-0.146-1.101,1.248c0,1.067,0,3.463,0,4.531
					c0,1.394,1.101,1.247,1.101,1.247h1.957h0.169h3.163c0,0,1.1,0.146,1.1-1.247c0-1.068,0-3.464,0-4.531
					C148.477,179.105,147.377,179.252,147.377,179.252z"/>
				<path fill="#FCEDA0" d="M156.63,179.252h-3.163h-0.169h-1.959c0,0-1.101-0.146-1.101,1.248c0,1.067,0,3.463,0,4.531
					c0,1.394,1.101,1.247,1.101,1.247h1.959h0.169h3.163c0,0,1.101,0.146,1.101-1.247c0-1.068,0-3.464,0-4.531
					C157.73,179.105,156.63,179.252,156.63,179.252z"/>
				<path fill="#FCEDA0" d="M165.882,179.252h-3.163h-0.17h-1.959c0,0-1.099-0.146-1.099,1.248c0,1.067,0,3.463,0,4.531
					c0,1.394,1.099,1.247,1.099,1.247h1.959h0.17h3.163c0,0,1.102,0.146,1.102-1.247c0-1.068,0-3.464,0-4.531
					C166.983,179.105,165.882,179.252,165.882,179.252z"/>
				<path fill="#FCEDA0" d="M175.135,179.252h-3.164h-0.17h-1.959c0,0-1.099-0.146-1.099,1.248c0,1.067,0,3.463,0,4.531
					c0,1.394,1.099,1.247,1.099,1.247h1.959h0.17h3.164c0,0,1.101,0.146,1.101-1.247c0-1.068,0-3.464,0-4.531
					C176.235,179.105,175.135,179.252,175.135,179.252z"/>
				<path fill="#FCEDA0" d="M184.387,179.252h-3.164h-0.17h-1.958c0,0-1.1-0.146-1.1,1.248c0,1.067,0,3.463,0,4.531
					c0,1.394,1.1,1.247,1.1,1.247h1.958h0.17h3.164c0,0,1.101,0.146,1.101-1.247c0-1.068,0-3.464,0-4.531
					C185.487,179.105,184.387,179.252,184.387,179.252z"/>
				<path fill="#FCEDA0" d="M193.64,179.252h-3.165h-0.17h-1.956c0,0-1.102-0.146-1.102,1.248c0,1.067,0,3.463,0,4.531
					c0,1.394,1.102,1.247,1.102,1.247h1.956h0.17h3.165c0,0,1.099,0.146,1.099-1.247c0-1.068,0-3.464,0-4.531
					C194.738,179.105,193.64,179.252,193.64,179.252z"/>
				<path fill="#FCEDA0" d="M202.892,179.252h-3.165h-0.169H197.6c0,0-1.101-0.146-1.101,1.248c0,1.067,0,3.463,0,4.531
					c0,1.394,1.101,1.247,1.101,1.247h1.958h0.169h3.165c0,0,1.1,0.146,1.1-1.247c0-1.068,0-3.464,0-4.531
					C203.991,179.105,202.892,179.252,202.892,179.252z"/>
			</g>
		</g>
		<g>
			<g>
				<g>
					<path fill="#FCEDA0" d="M101.953,197.298H98.79H98.62h-1.958c0,0-1.1-0.147-1.1,1.247c0,1.069,0,3.463,0,4.531
						c0,1.395,1.1,1.247,1.1,1.247h1.958h0.169h3.163c0,0,1.101,0.147,1.101-1.247c0-1.068,0-3.462,0-4.531
						C103.054,197.15,101.953,197.298,101.953,197.298z"/>
					<path fill="#FCEDA0" d="M111.205,197.298h-3.163h-0.17h-1.958c0,0-1.1-0.147-1.1,1.247c0,1.069,0,3.463,0,4.531
						c0,1.395,1.1,1.247,1.1,1.247h1.958h0.17h3.163c0,0,1.1,0.147,1.1-1.247c0-1.068,0-3.462,0-4.531
						C112.304,197.15,111.205,197.298,111.205,197.298z"/>
					<path fill="#FCEDA0" d="M120.063,197.298h-3.163h-0.17h-1.956c0,0-1.101-0.147-1.101,1.247c0,1.069,0,3.463,0,4.531
						c0,1.395,1.101,1.247,1.101,1.247h1.956h0.17h3.163c0,0,1.101,0.147,1.101-1.247c0-1.068,0-3.462,0-4.531
						C121.163,197.15,120.063,197.298,120.063,197.298z"/>
					<path fill="#FCEDA0" d="M128.874,197.298h-3.164h-0.17h-1.958c0,0-1.1-0.147-1.1,1.247c0,1.069,0,3.463,0,4.531
						c0,1.395,1.1,1.247,1.1,1.247h1.958h0.17h3.164c0,0,1.101,0.147,1.101-1.247c0-1.068,0-3.462,0-4.531
						C129.975,197.15,128.874,197.298,128.874,197.298z"/>
					<path fill="#FCEDA0" d="M138.125,197.298h-3.163h-0.169h-1.958c0,0-1.101-0.147-1.101,1.247c0,1.069,0,3.463,0,4.531
						c0,1.395,1.101,1.247,1.101,1.247h1.958h0.169h3.163c0,0,1.101,0.147,1.101-1.247c0-1.068,0-3.462,0-4.531
						C139.226,197.15,138.125,197.298,138.125,197.298z"/>
					<path fill="#FCEDA0" d="M147.377,197.298h-3.163h-0.169h-1.957c0,0-1.101-0.147-1.101,1.247c0,1.069,0,3.463,0,4.531
						c0,1.395,1.101,1.247,1.101,1.247h1.957h0.169h3.163c0,0,1.1,0.147,1.1-1.247c0-1.068,0-3.462,0-4.531
						C148.477,197.15,147.377,197.298,147.377,197.298z"/>
					<path fill="#FCEDA0" d="M156.63,197.298h-3.163h-0.169h-1.959c0,0-1.101-0.147-1.101,1.247c0,1.069,0,3.463,0,4.531
						c0,1.395,1.101,1.247,1.101,1.247h1.959h0.169h3.163c0,0,1.101,0.147,1.101-1.247c0-1.068,0-3.462,0-4.531
						C157.73,197.15,156.63,197.298,156.63,197.298z"/>
					<path fill="#FCEDA0" d="M165.882,197.298h-3.163h-0.17h-1.959c0,0-1.099-0.147-1.099,1.247c0,1.069,0,3.463,0,4.531
						c0,1.395,1.099,1.247,1.099,1.247h1.959h0.17h3.163c0,0,1.102,0.147,1.102-1.247c0-1.068,0-3.462,0-4.531
						C166.983,197.15,165.882,197.298,165.882,197.298z"/>
					<path fill="#FCEDA0" d="M175.135,197.298h-3.164h-0.17h-1.959c0,0-1.099-0.147-1.099,1.247c0,1.069,0,3.463,0,4.531
						c0,1.395,1.099,1.247,1.099,1.247h1.959h0.17h3.164c0,0,1.101,0.147,1.101-1.247c0-1.068,0-3.462,0-4.531
						C176.235,197.15,175.135,197.298,175.135,197.298z"/>
					<path fill="#FCEDA0" d="M184.387,197.298h-3.164h-0.17h-1.958c0,0-1.1-0.147-1.1,1.247c0,1.069,0,3.463,0,4.531
						c0,1.395,1.1,1.247,1.1,1.247h1.958h0.17h3.164c0,0,1.101,0.147,1.101-1.247c0-1.068,0-3.462,0-4.531
						C185.487,197.15,184.387,197.298,184.387,197.298z"/>
					<path fill="#FCEDA0" d="M193.64,197.298h-3.165h-0.17h-1.956c0,0-1.102-0.147-1.102,1.247c0,1.069,0,3.463,0,4.531
						c0,1.395,1.102,1.247,1.102,1.247h1.956h0.17h3.165c0,0,1.099,0.147,1.099-1.247c0-1.068,0-3.462,0-4.531
						C194.738,197.15,193.64,197.298,193.64,197.298z"/>
					<path fill="#FCEDA0" d="M202.892,197.298h-3.165h-0.169H197.6c0,0-1.101-0.147-1.101,1.247c0,1.069,0,3.463,0,4.531
						c0,1.395,1.101,1.247,1.101,1.247h1.958h0.169h3.165c0,0,1.1,0.147,1.1-1.247c0-1.068,0-3.462,0-4.531
						C203.991,197.15,202.892,197.298,202.892,197.298z"/>
				</g>
			</g>
			<g>
				<g>
					<path fill="#FCEDA0" d="M97.327,188.495h-3.164h-0.169h-1.958c0,0-1.1-0.146-1.1,1.247c0,1.069,0,3.463,0,4.532
						c0,1.394,1.1,1.246,1.1,1.246h1.958h0.169h3.164c0,0,1.1,0.147,1.1-1.246c0-1.069,0-3.463,0-4.532
						C98.427,188.349,97.327,188.495,97.327,188.495z"/>
					<path fill="#FCEDA0" d="M106.579,188.495h-3.163h-0.17h-1.957c0,0-1.101-0.146-1.101,1.247c0,1.069,0,3.463,0,4.532
						c0,1.394,1.101,1.246,1.101,1.246h1.957h0.17h3.163c0,0,1.101,0.147,1.101-1.246c0-1.069,0-3.463,0-4.532
						C107.679,188.349,106.579,188.495,106.579,188.495z"/>
					<path fill="#FCEDA0" d="M115.436,188.495h-3.162h-0.17h-1.958c0,0-1.101-0.146-1.101,1.247c0,1.069,0,3.463,0,4.532
						c0,1.394,1.101,1.246,1.101,1.246h1.958h0.17h3.162c0,0,1.101,0.147,1.101-1.246c0-1.069,0-3.463,0-4.532
						C116.536,188.349,115.436,188.495,115.436,188.495z"/>
					<path fill="#FCEDA0" d="M124.248,188.495h-3.163h-0.17h-1.957c0,0-1.1-0.146-1.1,1.247c0,1.069,0,3.463,0,4.532
						c0,1.394,1.1,1.246,1.1,1.246h1.957h0.17h3.163c0,0,1.101,0.147,1.101-1.246c0-1.069,0-3.463,0-4.532
						C125.349,188.349,124.248,188.495,124.248,188.495z"/>
					<path fill="#FCEDA0" d="M133.5,188.495h-3.165h-0.169h-1.957c0,0-1.101-0.146-1.101,1.247c0,1.069,0,3.463,0,4.532
						c0,1.394,1.101,1.246,1.101,1.246h1.957h0.169h3.165c0,0,1.1,0.147,1.1-1.246c0-1.069,0-3.463,0-4.532
						C134.6,188.349,133.5,188.495,133.5,188.495z"/>
					<path fill="#FCEDA0" d="M142.751,188.495h-3.164h-0.17h-1.957c0,0-1.101-0.146-1.101,1.247c0,1.069,0,3.463,0,4.532
						c0,1.394,1.101,1.246,1.101,1.246h1.957h0.17h3.164c0,0,1.101,0.147,1.101-1.246c0-1.069,0-3.463,0-4.532
						C143.853,188.349,142.751,188.495,142.751,188.495z"/>
					<path fill="#FCEDA0" d="M152.004,188.495h-3.164h-0.17h-1.959c0,0-1.099-0.146-1.099,1.247c0,1.069,0,3.463,0,4.532
						c0,1.394,1.099,1.246,1.099,1.246h1.959h0.17h3.164c0,0,1.1,0.147,1.1-1.246c0-1.069,0-3.463,0-4.532
						C153.104,188.349,152.004,188.495,152.004,188.495z"/>
					<path fill="#FCEDA0" d="M161.257,188.495h-3.164h-0.17h-1.959c0,0-1.099-0.146-1.099,1.247c0,1.069,0,3.463,0,4.532
						c0,1.394,1.099,1.246,1.099,1.246h1.959h0.17h3.164c0,0,1.1,0.147,1.1-1.246c0-1.069,0-3.463,0-4.532
						C162.356,188.349,161.257,188.495,161.257,188.495z"/>
					<path fill="#FCEDA0" d="M170.509,188.495h-3.164h-0.17h-1.958c0,0-1.1-0.146-1.1,1.247c0,1.069,0,3.463,0,4.532
						c0,1.394,1.1,1.246,1.1,1.246h1.958h0.17h3.164c0,0,1.1,0.147,1.1-1.246c0-1.069,0-3.463,0-4.532
						C171.608,188.349,170.509,188.495,170.509,188.495z"/>
					<path fill="#FCEDA0" d="M179.76,188.495h-3.163h-0.169h-1.959c0,0-1.099-0.146-1.099,1.247c0,1.069,0,3.463,0,4.532
						c0,1.394,1.099,1.246,1.099,1.246h1.959h0.169h3.163c0,0,1.102,0.147,1.102-1.246c0-1.069,0-3.463,0-4.532
						C180.861,188.349,179.76,188.495,179.76,188.495z"/>
					<path fill="#FCEDA0" d="M189.012,188.495h-3.163h-0.169h-1.958c0,0-1.101-0.146-1.101,1.247c0,1.069,0,3.463,0,4.532
						c0,1.394,1.101,1.246,1.101,1.246h1.958h0.169h3.163c0,0,1.102,0.147,1.102-1.246c0-1.069,0-3.463,0-4.532
						C190.113,188.349,189.012,188.495,189.012,188.495z"/>
					<path fill="#FCEDA0" d="M198.265,188.495h-3.164h-0.168h-1.958c0,0-1.102-0.146-1.102,1.247c0,1.069,0,3.463,0,4.532
						c0,1.394,1.102,1.246,1.102,1.246h1.958h0.168h3.164c0,0,1.101,0.147,1.101-1.246c0-1.069,0-3.463,0-4.532
						C199.365,188.349,198.265,188.495,198.265,188.495z"/>
					<path fill="#FCEDA0" d="M207.517,188.495h-3.163h-0.17h-1.958c0,0-1.099-0.146-1.099,1.247c0,1.069,0,3.463,0,4.532
						c0,1.394,1.099,1.246,1.099,1.246h1.958h0.17h3.163c0,0,1.102,0.147,1.102-1.246c0-1.069,0-3.463,0-4.532
						C208.618,188.349,207.517,188.495,207.517,188.495z"/>
				</g>
			</g>
			<path fill="#FCEDA0" d="M198.198,206.559h-96.913c0,0-1.098-0.146-1.098,1.244c0,1.065,0,3.454,0,4.52
				c0,1.391,1.098,1.244,1.098,1.244h96.913c0,0,1.097,0.146,1.097-1.244c0-1.065,0-3.454,0-4.52
				C199.295,206.412,198.198,206.559,198.198,206.559z"/>
		</g>
	</g>
	<g>
		<path fill="#EFBA90" d="M185.758,257.045l-2.641-8.582c0,0-4.292,0.989-11.885-9.133c0,0-13.093-11.664-15.073-13.205
			c0,0-2.587-1.457-0.165-3.438c0,0,1.705-1.953,4.565-2.173c0,0,1.212-0.66,3.963,1.65c0,0,6.932,4.951,10.783,8.692
			c0,0-14.055-38.907-15.814-42.366c0,0-1.792-3.863,1.62-5.726c0,0,4.18-1.533,5.61,1.657l11.273,28.72c0,0,0.72,0.439,0.609-0.661
			l-8.802-22.557c0,0-1.45-2.311,2.686-4.511c0,0,3.796-1.76,5.507,2.641l7.763,20.466c0,0,1.108,0.55,0.608-0.88
			c0,0-0.719-7.923-4.626-13.095c0,0-2.915-2.31-1.98-6.051c0,0,0.717-2.971,3.797-2.641c0,0,2.97-0.11,4.512,3.741
			c0,0,4.539,6.051,6.67,18.045c0,0,0.95,1.43,1.761,1.1c0.812-0.329-2.553-13.921-4.47-14.194c0,0-1.431-1.98,1.54-4.291
			c0,0,3.741-2.86,5.942,0.661c0,0,4.888,7.482,5.358,21.236c0,0,0.924,4.899,2.674,9.242c0,0,2.577,11.114-2.674,19.585
			l3.306,7.594L185.758,257.045z"/>
		<polygon fill="#FFFFFF" stroke="#999999" stroke-width="0.25" stroke-miterlimit="10" points="182.566,256.495 210.075,246.702 
			211.834,251.873 184.327,261.447 		"/>
		<path fill="#B57324" d="M214.255,250.113c0,0-19.586,3.851-32.238,12.104l10.438,29.342l8.879-2.971l9.175-3.757l7.523-3.642
			l6.368-3.511L214.255,250.113z"/>
	</g>
	<g>
		<path fill="#EFBA90" d="M120.959,256.164l2.64-8.582c0,0,4.292,0.991,11.884-9.133c0,0,13.092-11.663,15.075-13.204
			c0,0,2.585-1.458,0.165-3.438c0,0-1.707-1.953-4.567-2.174c0,0-1.211-0.66-3.961,1.65c0,0-6.933,4.951-10.782,8.693
			c0,0,14.051-38.907,15.813-42.366c0,0,1.791-3.863-1.621-5.727c0,0-4.181-1.532-5.611,1.659l-11.273,28.719
			c0,0-0.721,0.438-0.61-0.661l8.803-22.557c0,0,1.45-2.311-2.687-4.511c0,0-3.796-1.761-5.506,2.64l-7.762,20.467
			c0,0-1.109,0.55-0.609-0.88c0,0,0.72-7.923,4.624-13.094c0,0,2.918-2.311,1.981-6.053c0,0-0.715-2.971-3.796-2.641
			c0,0-2.97-0.109-4.511,3.741c0,0-4.539,6.052-6.67,18.046c0,0-0.949,1.43-1.761,1.1c-0.812-0.33,2.554-13.921,4.47-14.193
			c0,0,1.431-1.981-1.54-4.292c0,0-3.742-2.86-5.942,0.66c0,0-4.888,7.482-5.36,21.236c0,0-0.922,4.9-2.672,9.243
			c0,0-2.577,11.112,2.672,19.585l-3.305,7.593L120.959,256.164z"/>
		<polygon fill="#FFFFFF" stroke="#999999" stroke-width="0.25" stroke-miterlimit="10" points="124.149,255.614 96.641,245.822 
			94.881,250.993 122.389,260.566 		"/>
		<path fill="#B57324" d="M92.459,249.232c0,0,19.586,3.852,32.24,12.104l-11.326,31.838l-8.938-2.584l-9.724-3.533l-6.793-2.944
			l-7.014-3.482L92.459,249.232z"/>
	</g>
	<g>
		<g>
			<g>
				<path fill="#8A6E0A" d="M188.134,118.865c-11.124,39.103-66.84,38.952-77.62-0.453c7.542-2.484,15.084-4.968,22.627-7.452
					c4.505,16.468,27.791,16.531,32.44,0.189C173.099,113.721,180.616,116.293,188.134,118.865z"/>
			</g>
			<path fill="#FFE2A7" d="M133.368,111.728c-0.046-0.144-0.09-0.289-0.133-0.435c-7.499,2.638-14.998,5.276-22.496,7.915
				c0.103,0.351,0.209,0.698,0.318,1.042C118.495,117.408,125.932,114.568,133.368,111.728z"/>
			<path fill="#F7E4C1" d="M105.889,122.984c-0.272-0.815-0.527-1.646-0.764-2.493c1.819-0.611,3.638-1.223,5.457-1.834
				c0.208,0.743,0.431,1.471,0.67,2.186C109.464,121.556,107.677,122.27,105.889,122.984z"/>
			<path fill="#FFE2A7" d="M133.949,113.297c-0.057-0.134-0.112-0.27-0.167-0.407c-7.245,3.38-14.489,6.76-21.734,10.14
				c0.13,0.328,0.263,0.653,0.399,0.975C119.614,120.435,126.781,116.866,133.949,113.297z"/>
			<path fill="#F7E4C1" d="M107.522,127.216c-0.333-0.755-0.649-1.527-0.949-2.314c1.76-0.792,3.519-1.585,5.278-2.378
				c0.262,0.69,0.54,1.367,0.832,2.029C110.963,125.44,109.243,126.328,107.522,127.216z"/>
			<path fill="#FFE2A7" d="M134.653,114.765c-0.067-0.124-0.132-0.25-0.197-0.376c-6.932,4.076-13.864,8.152-20.795,12.228
				c0.154,0.303,0.311,0.603,0.471,0.9C120.972,123.266,127.813,119.016,134.653,114.765z"/>
			<path fill="#F7E4C1" d="M109.489,131.171c-0.389-0.696-0.762-1.409-1.121-2.137c1.686-0.963,3.372-1.925,5.057-2.888
				c0.314,0.638,0.642,1.263,0.982,1.874C112.769,129.07,111.129,130.121,109.489,131.171z"/>
			<path fill="#FFE2A7" d="M135.459,116.105c-0.076-0.114-0.151-0.229-0.225-0.346c-6.57,4.712-13.141,9.424-19.711,14.136
				c0.177,0.279,0.356,0.556,0.539,0.829C122.528,125.851,128.994,120.979,135.459,116.105z"/>
			<path fill="#F7E4C1" d="M111.733,134.783c-0.44-0.639-0.867-1.294-1.279-1.965c1.6-1.118,3.2-2.236,4.8-3.354
				c0.361,0.588,0.735,1.163,1.122,1.723C114.828,132.385,113.281,133.583,111.733,134.783z"/>
			<path fill="#FFE2A7" d="M136.356,117.321c-0.084-0.104-0.168-0.209-0.25-0.316c-6.166,5.291-12.332,10.581-18.498,15.871
				c0.197,0.255,0.397,0.507,0.599,0.756C124.257,128.195,130.307,122.758,136.356,117.321z"/>
			<path fill="#F7E4C1" d="M114.223,138.057c-0.488-0.583-0.964-1.183-1.426-1.798c1.503-1.259,3.007-2.519,4.511-3.778
				c0.405,0.539,0.822,1.064,1.25,1.576C117.112,135.39,115.667,136.723,114.223,138.057z"/>
			<path fill="#FFE2A7" d="M137.352,118.435c-0.092-0.094-0.183-0.189-0.273-0.285c-5.714,5.822-11.428,11.644-17.142,17.466
				c0.215,0.23,0.433,0.458,0.653,0.682C126.177,130.343,131.764,124.389,137.352,118.435z"/>
			<path fill="#F7E4C1" d="M116.973,141.048c-0.53-0.525-1.05-1.067-1.557-1.624c1.396-1.39,2.792-2.779,4.188-4.169
				c0.445,0.489,0.9,0.963,1.365,1.424C119.637,138.135,118.305,139.592,116.973,141.048z"/>
			<path fill="#FFE2A7" d="M138.43,119.436c-0.099-0.083-0.198-0.169-0.295-0.255c-5.224,6.3-10.448,12.601-15.671,18.901
				c0.233,0.207,0.468,0.411,0.706,0.612C128.256,132.274,133.343,125.855,138.43,119.436z"/>
			<path fill="#F7E4C1" d="M119.947,143.732c-0.569-0.468-1.127-0.951-1.675-1.451c1.279-1.507,2.558-3.014,3.836-4.521
				c0.48,0.438,0.97,0.862,1.469,1.272C122.366,140.599,121.157,142.166,119.947,143.732z"/>
			<path fill="#FFE2A7" d="M139.57,120.315c-0.105-0.074-0.209-0.149-0.313-0.226c-4.703,6.723-9.406,13.445-14.109,20.168
				c0.248,0.183,0.498,0.363,0.749,0.539C130.454,133.97,135.012,127.143,139.57,120.315z"/>
			<path fill="#F7E4C1" d="M123.088,146.087c-0.604-0.412-1.198-0.839-1.783-1.283c1.154-1.61,2.308-3.221,3.462-4.832
				c0.513,0.389,1.034,0.764,1.563,1.125C125.25,142.761,124.168,144.424,123.088,146.087z"/>
			<path fill="#FFE2A7" d="M140.773,121.083c-0.11-0.063-0.22-0.129-0.329-0.195c-4.151,7.093-8.303,14.186-12.455,21.279
				c0.26,0.159,0.522,0.314,0.786,0.467C132.775,135.451,136.774,128.267,140.773,121.083z"/>
			<path fill="#F7E4C1" d="M126.396,148.137c-0.633-0.354-1.258-0.725-1.875-1.112c1.022-1.702,2.043-3.404,3.065-5.105
				c0.541,0.339,1.089,0.664,1.644,0.975C128.286,144.642,127.341,146.389,126.396,148.137z"/>
			<path fill="#FFE2A7" d="M142.042,121.745c-0.114-0.054-0.228-0.108-0.342-0.165c-3.569,7.415-7.138,14.829-10.707,22.244
				c0.271,0.134,0.544,0.266,0.818,0.394C135.221,136.727,138.631,129.236,142.042,121.745z"/>
			<path fill="#F7E4C1" d="M129.882,149.896c-0.659-0.297-1.311-0.611-1.956-0.94c0.882-1.781,1.764-3.563,2.646-5.344
				c0.566,0.289,1.138,0.563,1.715,0.825C131.485,146.256,130.683,148.076,129.882,149.896z"/>
			<path fill="#FFE2A7" d="M143.359,122.294c-0.119-0.043-0.237-0.088-0.354-0.135c-2.963,7.683-5.926,15.366-8.89,23.049
				c0.282,0.111,0.565,0.218,0.849,0.323C137.762,137.786,140.561,130.04,143.359,122.294z"/>
			<path fill="#F7E4C1" d="M133.493,151.346c-0.679-0.24-1.354-0.496-2.022-0.769c0.736-1.848,1.472-3.696,2.208-5.543
				c0.586,0.238,1.177,0.463,1.773,0.673C134.799,147.587,134.146,149.466,133.493,151.346z"/>
			<path fill="#FFE2A7" d="M144.713,122.729c-0.122-0.034-0.243-0.068-0.364-0.104c-2.339,7.899-4.678,15.798-7.017,23.697
				c0.289,0.086,0.58,0.17,0.871,0.25C140.372,138.624,142.542,130.676,144.713,122.729z"/>
			<path fill="#F7E4C1" d="M137.201,152.485c-0.695-0.182-1.387-0.381-2.073-0.595c0.586-1.902,1.172-3.804,1.758-5.706
				c0.602,0.188,1.208,0.362,1.818,0.522C138.202,148.632,137.702,150.559,137.201,152.485z"/>
			<path fill="#FFE2A7" d="M146.096,123.05c-0.124-0.023-0.247-0.048-0.37-0.074c-1.699,8.063-3.399,16.125-5.098,24.187
				c0.294,0.063,0.589,0.122,0.884,0.178C143.041,139.244,144.568,131.147,146.096,123.05z"/>
			<path fill="#F7E4C1" d="M140.988,153.315c-0.707-0.125-1.41-0.266-2.111-0.423c0.432-1.943,0.864-3.886,1.296-5.829
				c0.614,0.138,1.231,0.261,1.851,0.371C141.679,149.395,141.333,151.355,140.988,153.315z"/>
			<path fill="#FFE2A7" d="M147.502,123.258c-0.125-0.014-0.25-0.028-0.375-0.044c-1.05,8.173-2.099,16.346-3.148,24.519
				c0.299,0.039,0.599,0.074,0.898,0.106C145.752,139.645,146.627,131.452,147.502,123.258z"/>
			<path fill="#F7E4C1" d="M144.829,153.835c-0.715-0.067-1.428-0.151-2.139-0.25c0.275-1.972,0.55-3.943,0.826-5.915
				c0.623,0.087,1.249,0.161,1.875,0.22C145.203,149.872,145.016,151.854,144.829,153.835z"/>
			<path fill="#FFE2A7" d="M148.918,123.353c-0.126-0.003-0.252-0.008-0.377-0.014c-0.393,8.231-0.786,16.461-1.179,24.692
				c0.301,0.014,0.602,0.025,0.904,0.033C148.483,139.827,148.701,131.59,148.918,123.353z"/>
			<path fill="#F7E4C1" d="M148.697,154.046c-0.717-0.01-1.433-0.037-2.148-0.079c0.117-1.987,0.233-3.974,0.35-5.961
				c0.627,0.037,1.255,0.06,1.883,0.069C148.754,150.065,148.726,152.055,148.697,154.046z"/>
			<path fill="#FFE2A7" d="M150.323,123.334c-0.125,0.007-0.251,0.012-0.376,0.016c0.26,8.236,0.52,16.472,0.779,24.708
				c0.3-0.009,0.601-0.022,0.9-0.038C151.191,139.791,150.757,131.563,150.323,123.334z"/>
			<path fill="#F7E4C1" d="M152.532,153.948c-0.715,0.047-1.431,0.078-2.147,0.092c-0.041-1.99-0.082-3.98-0.123-5.971
				c0.628-0.013,1.256-0.04,1.883-0.081C152.273,149.976,152.403,151.962,152.532,153.948z"/>
			<path fill="#FFE2A7" d="M151.738,123.202c-0.125,0.017-0.25,0.032-0.376,0.046c0.917,8.188,1.834,16.377,2.751,24.566
				c0.301-0.034,0.601-0.071,0.899-0.111C153.921,139.537,152.83,131.369,151.738,123.202z"/>
			<path fill="#F7E4C1" d="M156.388,153.542c-0.711,0.104-1.425,0.192-2.14,0.265c-0.199-1.981-0.399-3.961-0.599-5.942
				c0.626-0.063,1.252-0.141,1.875-0.232C155.813,149.602,156.1,151.572,156.388,153.542z"/>
			<path fill="#FFE2A7" d="M153.124,122.959c-0.123,0.027-0.246,0.052-0.369,0.076c1.563,8.09,3.126,16.18,4.689,24.27
				c0.295-0.057,0.59-0.118,0.884-0.182C156.593,139.069,154.858,131.014,153.124,122.959z"/>
			<path fill="#F7E4C1" d="M160.164,152.832c-0.701,0.161-1.406,0.307-2.114,0.436c-0.355-1.958-0.712-3.917-1.067-5.875
				c0.62-0.113,1.238-0.241,1.854-0.382C159.278,148.951,159.722,150.892,160.164,152.832z"/>
			<path fill="#FFE2A7" d="M154.498,122.602c-0.12,0.037-0.241,0.072-0.362,0.106c2.205,7.938,4.409,15.876,6.614,23.814
				c0.29-0.082,0.578-0.166,0.866-0.254C159.244,138.379,156.871,130.491,154.498,122.602z"/>
			<path fill="#F7E4C1" d="M163.903,151.809c-0.685,0.218-1.373,0.42-2.066,0.606c-0.512-1.923-1.023-3.847-1.535-5.77
				c0.608-0.164,1.212-0.34,1.813-0.532C162.71,148.012,163.307,149.91,163.903,151.809z"/>
			<path fill="#FFE2A7" d="M155.843,122.13c-0.117,0.047-0.235,0.093-0.354,0.137c2.833,7.733,5.665,15.466,8.498,23.199
				c0.283-0.105,0.566-0.215,0.848-0.327C161.838,137.469,158.84,129.8,155.843,122.13z"/>
			<path fill="#F7E4C1" d="M167.559,150.473c-0.668,0.276-1.341,0.537-2.02,0.781c-0.664-1.876-1.328-3.751-1.991-5.627
				c0.595-0.214,1.186-0.443,1.771-0.685C166.065,146.786,166.812,148.63,167.559,150.473z"/>
			<path fill="#FFE2A7" d="M157.146,121.545c-0.113,0.057-0.228,0.113-0.342,0.167c3.442,7.476,6.886,14.951,10.329,22.426
				c0.274-0.13,0.547-0.263,0.818-0.399C164.35,136.341,160.748,128.943,157.146,121.545z"/>
			<path fill="#F7E4C1" d="M171.095,148.829c-0.645,0.334-1.295,0.652-1.953,0.954c-0.812-1.815-1.623-3.63-2.436-5.446
				c0.577-0.265,1.147-0.543,1.712-0.836C169.311,145.277,170.202,147.053,171.095,148.829z"/>
			<path fill="#FFE2A7" d="M158.387,120.854c-0.108,0.067-0.218,0.132-0.328,0.197c4.025,7.168,8.051,14.337,12.077,21.505
				c0.264-0.154,0.525-0.311,0.785-0.471C166.743,135.008,162.565,127.931,158.387,120.854z"/>
			<path fill="#F7E4C1" d="M174.456,146.897c-0.614,0.39-1.236,0.763-1.866,1.121c-0.954-1.743-1.907-3.485-2.861-5.228
				c0.553-0.313,1.099-0.641,1.637-0.982C172.396,143.504,173.426,145.2,174.456,146.897z"/>
			<path fill="#FFE2A7" d="M159.582,120.042c-0.075,0.056-0.15,0.11-0.226,0.165c4.629,6.777,9.257,13.554,13.885,20.331
				c0.181-0.13,0.36-0.262,0.539-0.395C169.048,133.443,164.314,126.743,159.582,120.042z"/>
			<path fill="#F7E4C1" d="M177.694,144.634c-0.584,0.448-1.178,0.88-1.779,1.297c-1.091-1.657-2.181-3.314-3.271-4.971
				c0.528-0.365,1.048-0.744,1.56-1.137C175.367,141.426,176.53,143.03,177.694,144.634z"/>
			<path fill="#FFE2A7" d="M160.712,119.116c-0.098,0.087-0.195,0.173-0.294,0.258c5.12,6.39,10.241,12.78,15.362,19.17
				c0.236-0.203,0.472-0.409,0.704-0.618C171.227,131.656,165.969,125.386,160.712,119.116z"/>
			<path fill="#F7E4C1" d="M180.741,142.062c-0.546,0.506-1.104,0.996-1.672,1.47c-1.22-1.558-2.439-3.117-3.659-4.675
				c0.498-0.416,0.986-0.845,1.466-1.289C178.165,139.066,179.453,140.564,180.741,142.062z"/>
			<path fill="#FFE2A7" d="M161.762,118.079c-0.09,0.097-0.181,0.193-0.272,0.288c5.618,5.922,11.236,11.845,16.855,17.768
				c0.219-0.226,0.437-0.456,0.65-0.688C173.251,129.657,167.506,123.868,161.762,118.079z"/>
			<path fill="#F7E4C1" d="M183.572,139.187c-0.503,0.562-1.019,1.107-1.546,1.636c-1.341-1.447-2.683-2.894-4.023-4.341
				c0.462-0.464,0.914-0.942,1.355-1.435C180.763,136.427,182.168,137.807,183.572,139.187z"/>
			<path fill="#FFE2A7" d="M162.728,116.928c-0.082,0.107-0.165,0.213-0.249,0.318c6.078,5.402,12.155,10.804,18.233,16.207
				c0.201-0.25,0.399-0.503,0.595-0.76C175.113,127.438,168.92,122.183,162.728,116.928z"/>
			<path fill="#F7E4C1" d="M186.175,135.996c-0.458,0.619-0.93,1.222-1.413,1.809c-1.454-1.323-2.907-2.646-4.361-3.969
				c0.425-0.514,0.838-1.043,1.239-1.585C183.151,133.499,184.663,134.747,186.175,135.996z"/>
			<path fill="#FFE2A7" d="M163.653,115.578c-0.093,0.15-0.187,0.297-0.282,0.443c6.492,4.833,12.984,9.667,19.477,14.5
				c0.229-0.348,0.454-0.701,0.674-1.059C176.898,124.834,170.275,120.206,163.653,115.578z"/>
			<path fill="#F7E4C1" d="M188.497,132.527c-0.409,0.678-0.833,1.339-1.271,1.985c-1.555-1.188-3.109-2.375-4.665-3.563
				c0.385-0.566,0.757-1.146,1.115-1.741C185.283,130.314,186.891,131.42,188.497,132.527z"/>
			<path fill="#FFE2A7" d="M164.365,114.296c-0.063,0.127-0.129,0.253-0.195,0.378c6.863,4.208,13.727,8.417,20.589,12.625
				c0.159-0.298,0.314-0.6,0.467-0.904C178.272,122.362,171.318,118.329,164.365,114.296z"/>
			<path fill="#F7E4C1" d="M190.558,128.722c-0.354,0.733-0.724,1.45-1.107,2.151c-1.646-1.038-3.293-2.077-4.939-3.115
				c0.337-0.614,0.661-1.243,0.971-1.885C187.174,126.823,188.865,127.772,190.558,128.722z"/>
			<path fill="#FFE2A7" d="M165.02,112.819c-0.053,0.137-0.107,0.271-0.163,0.405c7.182,3.535,14.363,7.07,21.544,10.605
				c0.134-0.32,0.265-0.643,0.392-0.969C179.535,119.514,172.277,116.167,165.02,112.819z"/>
			<path fill="#F7E4C1" d="M192.297,124.646c-0.295,0.79-0.607,1.563-0.936,2.321c-1.726-0.878-3.45-1.755-5.175-2.633
				c0.288-0.664,0.562-1.342,0.82-2.035C188.771,123.081,190.533,123.864,192.297,124.646z"/>
			<path fill="#FFE2A7" d="M165.563,111.214c-0.043,0.147-0.087,0.293-0.133,0.438c7.448,2.805,14.896,5.61,22.345,8.416
				c0.108-0.346,0.214-0.696,0.315-1.048C180.581,116.417,173.071,113.815,165.563,111.214z"/>
			<path fill="#F7E4C1" d="M193.727,120.212c-0.232,0.852-0.484,1.687-0.753,2.506c-1.791-0.703-3.582-1.406-5.374-2.109
				c0.236-0.718,0.457-1.451,0.661-2.197C190.082,119.012,191.904,119.612,193.727,120.212z"/>
		</g>
	</g>
	<text transform="matrix(1 0 0 1 136.8667 86.0923)" font-family="'MyriadPro-Regular'" font-size="31.6893">¿?</text>
</g>
</svg>
