<?xml version="1.0" encoding="utf-8"?>
<!-- Generator: Adobe Illustrator 16.0.0, SVG Export Plug-In . SVG Version: 6.00 Build 0)  -->
<!DOCTYPE svg PUBLIC "-//W3C//DTD SVG 1.1//EN" "http://www.w3.org/Graphics/SVG/1.1/DTD/svg11.dtd">
<svg version="1.1" id="Capa_1" xmlns="http://www.w3.org/2000/svg" xmlns:xlink="http://www.w3.org/1999/xlink" x="0px" y="0px"
	 width="300px" height="300px" viewBox="0 0 300 300" enable-background="new 0 0 300 300" xml:space="preserve">
<circle fill="#DE3F19" cx="150" cy="150.084" r="147.75"/>
<g>
	<polygon fill="#FFD4A7" points="119.787,184.433 119.787,203.774 150.37,220.385 179.982,203.917 179.982,182.381 149.761,188.689 
			"/>
	<polygon fill="#E5BD99" points="179.982,182.381 144.137,208.372 135.168,213.769 119.787,204.117 119.787,183.596 	"/>
	<path fill="#FFD4A7" d="M120.571,294.821c0,0,11.33-11.203,19.995-14.547h20.749c0,0,3.346,1.672,3.496,5.016
		c0,0,0.152,3.495-4.029,4.711c0,0,3.727,0.836,4.029,4.028c0,0,0.246,1.418-1.273,3.242c0,0-4.582,0.5-11.438,0.557
		c-2.795,0.022-5.624-0.021-9.008-0.171C136.11,297.347,127.68,296.358,120.571,294.821z"/>
	<path fill="#35383D" d="M44.117,236.95l75.699-33.745l30.706,16.873l29.49-16.873l75.242,33.745l3.412,13.317
		c0,0-6.232,7.242-17.025,15.79c-7.236,5.731-16.727,12.14-28.586,17.728c-7.801,3.675-16.594,6.947-26.334,9.448
		c-10.848,2.785-22.881,4.597-36.199,4.597c-36.528,0-64.414-12.732-82.833-25.083c-8.398-5.632-14.812-11.241-19.209-15.429
		c-4.603-4.383-7.144-7.249-7.144-7.249L44.117,236.95z"/>
	<polygon fill="#FFFFFF" points="113.503,206.012 119.773,203.205 150.479,220.077 179.969,203.205 185.953,205.869 
		158.193,296.817 141.358,296.841 	"/>
	<path fill="#6F6F6F" d="M89.946,216.429l17.101,26.449l-11.4,13.225l30.344,39.73c0,0,3.472,0.647,9.415,1.24
		c5.94,0.593,14.505,1.125,24.512,0.487c4.414-0.281,9.033-0.883,13.963-1.648l30.756-39.809l-11.857-13.681l16.719-25.993
		l-23.715-10.631l-27.814,91.65l-16.263,0.077l-28.027-91.584L89.946,216.429z"/>
	<g>
		<path fill="#303338" d="M150.026,206.592c-0.018,0-0.038,0.002-0.055,0.002c0.018,0,0.038,0.001,0.055,0.001V206.592z"/>
		<path fill="#303338" d="M150.026,255.861v-0.002c-0.018,0-0.038,0-0.055,0C149.988,255.859,150.008,255.861,150.026,255.861z"/>
		<path fill="#303338" d="M125.511,231.228c0,13.566,10.968,24.57,24.522,24.631v-49.264
			C136.479,206.657,125.511,217.661,125.511,231.228z"/>
		<path fill="#3D4142" d="M174.666,231.228c0-13.567-10.967-24.571-24.521-24.632c-0.018,0-0.038-0.001-0.055-0.001
			c-0.02,0-0.04-0.002-0.057-0.002v0.003v49.264v0.002c0.018,0,0.037-0.002,0.057-0.002c0.018,0,0.037,0,0.055,0
			C163.699,255.797,174.666,244.794,174.666,231.228z"/>
	</g>
	<polygon fill="#35383D" points="136.688,270.087 137.772,282.325 161.619,283.92 163.139,270.087 	"/>
	<g>
		<path fill="#169E9A" d="M127.625,238.931c0,0-0.531-0.015-1.182,0.16c-0.931,0.247-2.109,0.879-2.353,2.505V268.7
			c0.414,2.764,3.534,2.665,3.534,2.665h22.403l-0.002-32.435H127.625z"/>
		<path fill="#16ADBE" d="M173.588,239.36c-0.936-0.46-1.918-0.429-1.918-0.429h-21.644l0.002,32.435h21.642
			c0,0,3.119,0.099,3.533-2.665v-27.105C175.021,240.381,174.32,239.72,173.588,239.36z"/>
	</g>
	<path fill="#3E3E3E" d="M102.346,118.51c0,0-3.963-18.898-5.332-43.524c0,0,5.761-32.984,53.043-33.592
		c0,0,42.266-0.912,52.297,31.161c0,0,1.064,10.588-5.17,45.955H102.346z"/>
	<g>
		<path fill="#FFD1AA" d="M149.914,194.768v-0.007c-0.018,0.002-0.023,0.003-0.032,0.003
			C149.891,194.765,149.914,194.768,149.914,194.768z"/>
		<path fill="#FFD1AA" d="M130.169,80.308c-5.928-2.401-10.603-2.395-10.603-2.395c-6.727-0.228-10.261,5.358-10.261,5.358
			c-7.41,9.462-6.954,36.139-6.954,36.139c3.534,30.439,9.387,59.397,9.387,59.397c11.921,12.808,37.028,15.807,38.32,15.953V83.274
			C139.142,83.94,130.169,80.308,130.169,80.308z"/>
		<path fill="#FFDFC6" d="M190.871,83.271c0,0-3.533-5.586-10.26-5.358c0,0-4.674-0.007-10.604,2.395c0,0-8.971,3.633-19.887,2.967
			c-0.011,0-0.021-0.001-0.032-0.001c-0.011-0.001-0.02-0.001-0.03-0.002v0.003v111.486v0.007c0,0,0.023-0.003,0.03-0.004
			c0.009,0,0.014-0.001,0.032-0.003c1.29-0.146,26.397-3.146,38.319-15.953c0,0,5.852-28.958,9.387-59.397
			C197.826,119.411,198.283,92.734,190.871,83.271z"/>
	</g>
	<path fill="#FFD1AA" d="M120.571,294.834c0,0,13.952-13.822,20.735-14.392h20.303c0,0,7.971,5.701-0.752,9.69
		c0,0,6.215,2.066,2.68,7.14c0,0-14.083,1.587-31.133-0.491C128.618,296.32,124.504,295.72,120.571,294.834z"/>
	<text transform="matrix(1 0 0 1 128.5 260)" fill="#FFFFFF" font-family="'MyriadPro-Bold'" font-size="16">NEWS</text>
</g>
</svg>
