<?xml version="1.0" encoding="utf-8"?>
<!-- Generator: Adobe Illustrator 16.0.0, SVG Export Plug-In . SVG Version: 6.00 Build 0)  -->
<!DOCTYPE svg PUBLIC "-//W3C//DTD SVG 1.1//EN" "http://www.w3.org/Graphics/SVG/1.1/DTD/svg11.dtd">
<svg version="1.1" id="Capa_1" xmlns="http://www.w3.org/2000/svg" xmlns:xlink="http://www.w3.org/1999/xlink" x="0px" y="0px"
	 width="300px" height="175px" viewBox="0 0 300 175" enable-background="new 0 0 300 175" xml:space="preserve">
<rect x="63.613" y="12.273" fill="#F0EFF4" width="154.552" height="98.893"/>
<rect x="7.784" y="94.23" fill="#F0EFF4" width="89.872" height="57.021"/>
<rect x="96.804" y="111.166" fill="#F0EFF4" width="30.127" height="50.787"/>
<rect x="191.091" y="88.869" fill="#F0EFF4" width="91.15" height="58.148"/>
<rect x="89.996" y="87.224" fill="#AABBC6" width="34.16" height="1.816"/>
<rect x="89.996" y="90.402" fill="#AABBC6" width="34.16" height="1.815"/>
<rect x="101.042" y="93.579" fill="#AABBC6" width="23.113" height="1.816"/>
<rect x="163.756" y="84.047" fill="#AABBC6" width="32.877" height="1.815"/>
<rect x="163.756" y="87.224" fill="#AABBC6" width="32.877" height="1.816"/>
<rect x="163.756" y="90.402" fill="#AABBC6" width="26.861" height="1.815"/>
<rect x="163.756" y="93.322" fill="#AABBC6" width="26.861" height="1.815"/>
<polygon points="53.4,1.55 53.4,89.549 64.549,89.549 64.549,1.55 63.782,1.55 "/>
<polyline points="115.527,1.55 184.804,1.55 229.059,1.55 229.059,83.932 218.08,83.932 218.08,48.273 218.08,13.039 63.188,13.039 
	63.188,1.55 "/>
<rect x="128.236" y="110.371" width="59.12" height="14.3"/>
<path d="M11.848,87.848H98.57c0,0,5.106,0.229,5.106,5.108v10.553h-6.468v-8.85H11.848V87.848z"/>
<path d="M11.98,87.848H6.874c0,0-5.106,0.229-5.106,5.109v10.554h6.468V94.66h3.745V87.848z"/>
<path d="M94.279,158.774H6.874c0,0-5.106-0.228-5.106-5.109v-59.35h6.496v57.495h86.015V158.774z"/>
<path d="M98.563,102.553h27.063c0,0,4.143-0.283,4.143,3.405v5.804H98.563V102.553z"/>
<path d="M125.626,102.553H98.053c0,0-4.143-0.283-4.143,3.405v5.804h31.715V102.553z"/>
<path d="M120.081,172.786H98.03c0,0-4.141,0.283-4.141-3.403v-8.006h26.191V172.786z"/>
<path d="M119.74,172.786h5.894c0,0,4.143,0.283,4.143-3.403v-8.006H119.74V172.786z"/>
<rect x="126.562" y="107.166" width="3.207" height="54.421"/>
<rect x="93.889" y="105.728" width="3.276" height="56.225"/>
<path d="M277.313,82.996h-86.36c0,0-5.554,0.424-5.554,6.41v58.931h6.494V89.491h85.42V82.996z"/>
<path d="M277.114,82.998h4.702c0,0,5.554,0.424,5.554,6.411v58.907l-6.498,0.021V89.494h-3.758V82.998z"/>
<path fill="#0E0E0E" d="M296.178,152.896H173.966v1.929c0,0,0.229,2.27,2.638,2.27h119.574V152.896z"/>
<path fill="#0E0E0E" d="M290.98,152.894h7.801v1.93c0,0-0.229,2.27-2.639,2.27h-5.162V152.894z"/>
<rect x="173.952" y="148.337" fill="#797979" width="124.808" height="4.56"/>
<path fill="#1B1B1B" d="M223.303,148.337v0.978c0,0,0.149,0.66,0.66,0.66h1.299v-1.638H223.303z"/>
<path fill="#1B1B1B" d="M249.41,148.337v0.978c0,0-0.149,0.66-0.66,0.66h-23.596v-1.638H249.41z"/>
<path fill="#797979" d="M154.918,124.671l3.66,14.655c0,0,0.34,1.447,1.574,1.447l2.354,0.584l-0.227,2.353h-14.682v-19.039H154.918
	z"/>
<polygon fill="#565656" points="129.769,124.671 129.769,132.264 156.77,132.264 154.918,124.671 "/>
<rect x="129.769" y="132.264" fill="#797979" width="27.001" height="11.446"/>
<path fill="#797979" d="M163.684,140.795l-1.766,2.915h3.426C165.344,143.71,165.77,140.795,163.684,140.795z"/>
<path fill="#0E0E0E" d="M129.769,146.018h34.035c0,0,1.54-0.188,1.54-2.308h-35.575V146.018z"/>
<polyline fill="#797979" points="159.57,140.795 163.684,140.795 163.684,143.57 159.57,143.57 "/>
<rect x="191.527" y="145.698" width="95.843" height="2.639"/>
<rect x="107.811" y="105.775" fill="#454545" width="8.17" height="0.853"/>
<circle fill="#454545" cx="111.783" cy="166.771" r="2.383"/>
<rect x="100.208" y="126.06" fill="#EE9E02" width="22.724" height="15.063"/>
<rect x="100.326" y="144.863" fill="#E1793E" width="22.606" height="1.536"/>
<rect x="100.267" y="148.693" fill="#AABBC6" width="22.606" height="1.536"/>
<rect x="100.267" y="151.671" fill="#AABBC6" width="22.606" height="1.538"/>
<rect x="100.267" y="154.48" fill="#FF5B34" width="22.606" height="1.536"/>
<rect x="109.229" y="117.294" fill="#FF5B34" width="13.787" height="2.128"/>
<circle fill="#FF5B34" cx="103.916" cy="118.501" r="3.59"/>
<rect x="22.137" y="110.71" fill="#EE9E02" width="61.05" height="19.404"/>
<rect x="28.491" y="134.88" fill="#E1793E" width="47.548" height="1.68"/>
<rect x="22.023" y="139.533" fill="#AABBC6" width="30.242" height="2.155"/>
<rect x="22.023" y="143.051" fill="#AABBC6" width="30.242" height="2.155"/>
<rect x="22.023" y="146.399" fill="#AABBC6" width="30.242" height="2.156"/>
<rect x="52.72" y="139.533" fill="#AABBC6" width="30.24" height="2.155"/>
<rect x="52.72" y="143.051" fill="#AABBC6" width="30.24" height="2.155"/>
<rect x="52.72" y="146.399" fill="#AABBC6" width="30.24" height="2.156"/>
<rect x="71.613" y="101.406" fill="#7BB4DA" width="11.574" height="2.103"/>
<rect x="56.265" y="101.497" fill="#7BB4DA" width="11.575" height="2.104"/>
<rect x="31.328" y="101.225" fill="#FF5B34" width="17.589" height="2.375"/>
<circle fill="#FF5B34" cx="25.598" cy="102.413" r="3.461"/>
<rect x="196.662" y="106.287" fill="#EE9E02" width="52.652" height="16.341"/>
<rect x="202.564" y="126.825" fill="#E1793E" width="40.622" height="1.59"/>
<rect x="196.774" y="131.253" fill="#AABBC6" width="25.42" height="1.246"/>
<rect x="196.774" y="133.862" fill="#AABBC6" width="25.42" height="1.246"/>
<rect x="196.774" y="136.47" fill="#AABBC6" width="25.42" height="1.248"/>
<rect x="196.774" y="139.079" fill="#AABBC6" width="25.42" height="1.248"/>
<rect x="196.774" y="141.688" fill="#AABBC6" width="25.42" height="1.248"/>
<rect x="223.955" y="131.253" fill="#AABBC6" width="25.42" height="1.246"/>
<rect x="223.957" y="133.862" fill="#AABBC6" width="25.418" height="1.246"/>
<rect x="223.957" y="136.47" fill="#AABBC6" width="25.418" height="1.248"/>
<rect x="223.957" y="139.079" fill="#AABBC6" width="25.418" height="1.248"/>
<rect x="223.957" y="141.688" fill="#AABBC6" width="25.418" height="1.248"/>
<rect x="252.489" y="106.289" fill="#90C26D" width="24.625" height="16.339"/>
<rect x="252.378" y="126.825" fill="#6DABD5" width="24.736" height="1.59"/>
<rect x="252.434" y="131.081" fill="#AABBC6" width="24.736" height="1.589"/>
<rect x="252.434" y="133.689" fill="#AABBC6" width="24.736" height="1.59"/>
<rect x="252.434" y="136.299" fill="#AABBC6" width="24.736" height="1.59"/>
<rect x="252.378" y="138.908" fill="#AABBC6" width="24.736" height="1.589"/>
<rect x="252.434" y="141.518" fill="#AABBC6" width="24.736" height="1.589"/>
<rect x="243.021" y="97.438" fill="#7BB4DA" width="14.462" height="1.702"/>
<rect x="262.649" y="97.438" fill="#7BB4DA" width="14.465" height="1.702"/>
<rect x="206.646" y="96.983" fill="#FF5B34" width="14.867" height="2.157"/>
<circle fill="#FF5B34" cx="200.69" cy="98.062" r="3.802"/>
<rect x="89.881" y="38.315" fill="#EE9E02" width="69.675" height="21.901"/>
<rect x="163.753" y="38.315" fill="#A2CC6F" width="32.907" height="21.901"/>
<rect x="97.265" y="65.663" fill="#E1793E" width="53.781" height="1.929"/>
<rect x="89.996" y="71.336" fill="#AABBC6" width="34.16" height="1.816"/>
<rect x="89.996" y="74.515" fill="#AABBC6" width="34.16" height="1.815"/>
<rect x="89.996" y="77.692" fill="#AABBC6" width="34.16" height="1.815"/>
<rect x="89.996" y="80.87" fill="#AABBC6" width="34.16" height="1.815"/>
<rect x="89.996" y="84.047" fill="#AABBC6" width="34.16" height="1.815"/>
<rect x="125.394" y="71.336" fill="#AABBC6" width="34.163" height="1.816"/>
<rect x="125.394" y="74.515" fill="#AABBC6" width="34.163" height="1.815"/>
<rect x="125.394" y="77.692" fill="#AABBC6" width="34.163" height="1.815"/>
<rect x="125.394" y="80.87" fill="#AABBC6" width="34.16" height="1.815"/>
<rect x="125.394" y="84.047" fill="#AABBC6" width="34.16" height="1.815"/>
<rect x="125.394" y="87.224" fill="#AABBC6" width="34.16" height="1.816"/>
<rect x="125.394" y="90.402" fill="#AABBC6" width="34.16" height="1.815"/>
<rect x="125.394" y="93.322" fill="#AABBC6" width="34.16" height="1.817"/>
<rect x="163.756" y="71.336" fill="#AABBC6" width="32.877" height="1.816"/>
<rect x="163.756" y="74.515" fill="#AABBC6" width="32.877" height="1.815"/>
<rect x="163.767" y="77.692" fill="#AABBC6" width="32.88" height="1.815"/>
<rect x="163.767" y="80.87" fill="#AABBC6" width="32.88" height="1.815"/>
<rect x="177.485" y="26.401" fill="#7BB4DA" width="18.949" height="2.382"/>
<rect x="151.046" y="26.401" fill="#7BB4DA" width="18.949" height="2.382"/>
<rect x="103.272" y="26.401" fill="#FF5B34" width="20.883" height="2.382"/>
<circle fill="#FF5B34" cx="95.271" cy="27.592" r="5.164"/>
</svg>
