<?xml version="1.0" encoding="utf-8"?>
<!-- Generator: Adobe Illustrator 16.0.0, SVG Export Plug-In . SVG Version: 6.00 Build 0)  -->
<!DOCTYPE svg PUBLIC "-//W3C//DTD SVG 1.1//EN" "http://www.w3.org/Graphics/SVG/1.1/DTD/svg11.dtd">
<svg version="1.1" id="Capa_1" xmlns="http://www.w3.org/2000/svg" xmlns:xlink="http://www.w3.org/1999/xlink" x="0px" y="0px"
	 width="300px" height="179px" viewBox="0 0 300 179" enable-background="new 0 0 300 179" xml:space="preserve">
<circle fill="#C9C9C9" cx="150" cy="89.483" r="87.483"/>
<circle fill="#FFFFFF" cx="150" cy="88.141" r="85.59"/>
<g>
	<path fill="#4285F4" d="M207.361,89.441c0-4.813-0.392-8.324-1.236-11.966H151.17v21.722h32.258
		c-0.651,5.398-4.162,13.528-11.967,18.99l-0.109,0.727l17.376,13.461l1.203,0.12C200.987,122.284,207.361,107.261,207.361,89.441"
		/>
	<path fill="#34A853" d="M151.17,146.673c15.804,0,29.07-5.204,38.761-14.178l-18.47-14.309c-4.942,3.447-11.576,5.853-20.291,5.853
		c-15.478,0-28.615-10.21-33.299-24.323l-0.686,0.059l-18.068,13.983l-0.235,0.656C108.507,133.535,128.278,146.673,151.17,146.673"
		/>
	<path fill="#FBBC05" d="M117.871,99.717c-1.234-3.642-1.95-7.544-1.95-11.576c0-4.032,0.716-7.934,1.886-11.576l-0.033-0.776
		L99.48,61.581l-0.599,0.285c-3.968,7.935-6.243,16.845-6.243,26.275s2.275,18.34,6.243,26.274L117.871,99.717"/>
	<path fill="#EB4335" d="M151.17,52.24c10.991,0,18.405,4.748,22.633,8.715l16.519-16.129c-10.146-9.43-23.348-15.218-39.151-15.218
		c-22.892,0-42.663,13.138-52.288,32.257l18.925,14.699C122.555,62.451,135.692,52.24,151.17,52.24"/>
</g>
</svg>
