<?xml version="1.0" encoding="utf-8"?>
<!-- Generator: Adobe Illustrator 16.0.0, SVG Export Plug-In . SVG Version: 6.00 Build 0)  -->
<!DOCTYPE svg PUBLIC "-//W3C//DTD SVG 1.1//EN" "http://www.w3.org/Graphics/SVG/1.1/DTD/svg11.dtd">
<svg version="1.1" id="Capa_1" xmlns="http://www.w3.org/2000/svg" xmlns:xlink="http://www.w3.org/1999/xlink" x="0px" y="0px"
	 width="300px" height="300px" viewBox="0 0 300 300" enable-background="new 0 0 300 300" xml:space="preserve">
<g>
	<polygon fill="#707070" points="31.845,23.467 63.873,70.836 55.933,70.836 29.691,25.081 	"/>
	<polygon fill="#707070" points="92.134,70.836 130.084,10.548 133.852,12.162 100.478,70.836 	"/>
	<circle fill="#C1C1C1" cx="29.69" cy="21.313" r="5.921"/>
	<circle fill="#C1C1C1" cx="132.237" cy="9.471" r="5.921"/>
	<polygon fill="#232524" points="55.125,270.814 51.088,296.451 62.19,296.451 70.265,270.814 	"/>
	<polygon fill="#232524" points="240.031,270.814 244.069,296.451 232.966,296.451 224.893,270.814 	"/>
	<path fill="#732906" d="M263.314,263.01c0,5.351-4.34,9.689-9.691,9.689H40.995c-5.351,0-9.689-4.339-9.689-9.689v-5.922
		c0-5.351,4.339-9.689,9.689-9.689h212.628c5.352,0,9.691,4.339,9.691,9.689V263.01z"/>
	<path fill="#E58C4C" d="M291.573,255.473c0,5.352-4.338,9.689-9.688,9.689H18.116c-5.351,0-9.689-4.338-9.689-9.689V79.449
		c0-5.352,4.339-9.689,9.689-9.689h263.769c5.351,0,9.688,4.338,9.688,9.689V255.473z"/>
	<path fill="#FCF5F1" d="M286.862,251.167c0,5.351-4.338,9.689-9.689,9.689H22.827c-5.351,0-9.689-4.339-9.689-9.689V83.755
		c0-5.351,4.339-9.688,9.689-9.688h254.346c5.352,0,9.689,4.338,9.689,9.688V251.167z"/>
	<path fill="#949494" d="M282.152,247.668c0,5.351-4.339,9.688-9.69,9.688H27.537c-5.352,0-9.688-4.338-9.688-9.688V87.255
		c0-5.352,4.337-9.689,9.688-9.689h244.925c5.352,0,9.69,4.338,9.69,9.689V247.668z"/>
	<g>
		<path fill="none" stroke="#020202" stroke-width="2" stroke-miterlimit="10" d="M269.504,233.672c0,5.351-4.34,9.689-9.69,9.689
			H238.82c-5.351,0-9.689-4.339-9.689-9.689V101.25c0-5.351,4.339-9.689,9.689-9.689h20.993c5.351,0,9.69,4.339,9.69,9.689V233.672z
			"/>
		<g>
			<path fill="#24242A" d="M249.317,98.155c-8.249,0-14.938,6.688-14.938,14.938c0,8.25,6.689,14.938,14.938,14.938
				s14.937-6.688,14.937-14.938C264.254,104.843,257.566,98.155,249.317,98.155z M249.317,126.146
				c-7.209,0-13.054-5.844-13.054-13.053c0-7.21,5.845-13.054,13.054-13.054c7.208,0,13.053,5.844,13.053,13.054
				C262.37,120.303,256.525,126.146,249.317,126.146z"/>
			<path fill="#787978" d="M249.317,100.04c-7.209,0-13.054,5.844-13.054,13.054c0,7.209,5.845,13.053,13.054,13.053
				c7.208,0,13.053-5.844,13.053-13.053C262.37,105.884,256.525,100.04,249.317,100.04z M255.976,122.382l0.454,1.084l-4.718,1.975
				l-0.454-1.084c-0.632,0.107-1.278,0.177-1.94,0.177c-6.317,0-11.438-5.122-11.438-11.439c0-3.83,1.89-7.213,4.778-9.289
				l-0.453-1.084l4.718-1.974l0.453,1.085c0.632-0.109,1.278-0.178,1.942-0.178c6.318,0,11.438,5.122,11.438,11.439
				C260.755,116.924,258.866,120.306,255.976,122.382z"/>
			<path fill="#919191" d="M249.317,122.514c-5.203,0-9.422-4.217-9.422-9.42c0-2.987,1.396-5.646,3.565-7.371l-0.804-1.918
				c-2.889,2.076-4.778,5.459-4.778,9.289c0,6.317,5.121,11.439,11.438,11.439c0.662,0,1.309-0.069,1.94-0.177l-0.802-1.918
				C250.081,122.484,249.704,122.514,249.317,122.514z"/>
			<path fill="#919191" d="M249.317,101.654c-0.664,0-1.311,0.068-1.942,0.178l0.803,1.917c0.375-0.045,0.753-0.076,1.14-0.076
				c5.202,0,9.42,4.218,9.42,9.421c0,2.987-1.395,5.645-3.563,7.37l0.802,1.918c2.891-2.076,4.779-5.458,4.779-9.288
				C260.755,106.776,255.636,101.654,249.317,101.654z"/>
			<path fill="#B44E02" d="M258.737,113.094c0-5.203-4.218-9.421-9.42-9.421c-0.387,0-0.765,0.031-1.14,0.076l6.996,16.715
				C257.343,118.738,258.737,116.081,258.737,113.094z"/>
			<path fill="#B44E02" d="M239.896,113.094c0,5.203,4.219,9.42,9.422,9.42c0.387,0,0.764-0.029,1.139-0.075l-6.995-16.716
				C241.291,107.448,239.896,110.106,239.896,113.094z"/>
			<polygon fill="#E7E8EA" points="248.178,103.749 247.375,101.832 246.922,100.747 242.204,102.721 242.657,103.805 
				243.461,105.723 250.456,122.438 251.258,124.356 251.712,125.44 256.43,123.466 255.976,122.382 255.174,120.464 			"/>
		</g>
		<g>
			<path fill="#24242A" d="M241.674,134.172c-7.088,4.222-9.412,13.39-5.19,20.478c4.221,7.089,13.389,9.413,20.477,5.191
				c7.089-4.221,9.413-13.389,5.19-20.478C257.931,132.275,248.762,129.95,241.674,134.172z M255.996,158.222
				c-6.194,3.688-14.205,1.657-17.894-4.536c-3.689-6.193-1.658-14.206,4.535-17.895c6.194-3.688,14.205-1.657,17.895,4.537
				C264.222,146.521,262.189,154.533,255.996,158.222z"/>
			<path fill="#787978" d="M242.638,135.791c-6.193,3.688-8.225,11.701-4.535,17.895c3.688,6.193,11.699,8.225,17.894,4.536
				c6.193-3.688,8.226-11.7,4.536-17.894C256.843,134.134,248.832,132.103,242.638,135.791z M259.791,151.58l0.943,0.699
				l-3.042,4.109l-0.945-0.699c-0.487,0.416-1.007,0.807-1.577,1.146c-5.428,3.232-12.448,1.452-15.68-3.976
				c-1.961-3.291-2.067-7.164-0.647-10.427l-0.943-0.699l3.042-4.109l0.945,0.7c0.487-0.417,1.008-0.807,1.578-1.146
				c5.428-3.233,12.447-1.452,15.68,3.976C261.105,144.444,261.212,148.317,259.791,151.58z"/>
			<path fill="#919191" d="M254.138,155.1c-4.472,2.663-10.252,1.197-12.915-3.273c-1.528-2.566-1.689-5.563-0.709-8.156
				l-1.671-1.237c-1.42,3.263-1.313,7.136,0.647,10.427c3.231,5.428,10.252,7.208,15.68,3.976c0.57-0.339,1.09-0.729,1.577-1.146
				l-1.669-1.237C254.778,154.683,254.47,154.902,254.138,155.1z"/>
			<path fill="#919191" d="M243.465,137.179c-0.57,0.339-1.091,0.729-1.578,1.146l1.67,1.237c0.299-0.231,0.609-0.451,0.94-0.649
				c4.471-2.662,10.253-1.196,12.915,3.274c1.528,2.566,1.688,5.563,0.708,8.156l1.671,1.237c1.421-3.263,1.314-7.136-0.646-10.426
				C255.912,135.727,248.893,133.945,243.465,137.179z"/>
			<path fill="#B44E02" d="M257.412,142.187c-2.662-4.471-8.444-5.937-12.915-3.274c-0.331,0.198-0.642,0.418-0.94,0.649
				l14.563,10.781C259.101,147.75,258.94,144.753,257.412,142.187z"/>
			<path fill="#B44E02" d="M241.223,151.826c2.663,4.471,8.443,5.937,12.915,3.273c0.332-0.197,0.641-0.417,0.94-0.647
				l-14.564-10.782C239.533,146.263,239.694,149.26,241.223,151.826z"/>
			<polygon fill="#E7E8EA" points="243.557,139.562 241.887,138.324 240.941,137.624 237.899,141.733 238.843,142.433 
				240.514,143.67 255.078,154.452 256.747,155.689 257.692,156.389 260.734,152.279 259.791,151.58 258.12,150.343 			"/>
		</g>
		<g>
			<rect x="235.321" y="170.689" fill="#181514" width="27.993" height="2.423"/>
			<rect x="235.321" y="173.112" fill="#262626" width="27.993" height="2.422"/>
			<rect x="235.321" y="177.957" fill="#262626" width="27.993" height="2.355"/>
			<polygon fill="#181514" points="235.321,177.891 235.321,177.957 263.314,177.957 263.314,177.891 263.314,175.534 
				235.321,175.534 			"/>
			<rect x="235.321" y="185.157" fill="#181514" width="27.993" height="2.423"/>
			<rect x="235.321" y="180.313" fill="#181514" width="27.993" height="2.422"/>
			<rect x="235.321" y="182.734" fill="#262626" width="27.993" height="2.423"/>
			<rect x="235.321" y="190.002" fill="#181514" width="27.993" height="2.422"/>
			<rect x="235.321" y="187.58" fill="#262626" width="27.993" height="2.422"/>
			<rect x="235.321" y="199.691" fill="#181514" width="27.993" height="2.422"/>
			<rect x="235.321" y="204.536" fill="#181514" width="27.993" height="2.422"/>
			<rect x="235.321" y="209.381" fill="#181514" width="27.993" height="2.422"/>
			<rect x="235.321" y="214.226" fill="#181514" width="27.993" height="2.422"/>
			<rect x="235.321" y="219.069" fill="#181514" width="27.993" height="2.423"/>
			<rect x="235.321" y="223.915" fill="#181514" width="27.993" height="2.422"/>
			<rect x="235.321" y="228.76" fill="#181514" width="27.993" height="2.422"/>
			<rect x="235.321" y="192.424" fill="#262626" width="27.993" height="2.423"/>
			<rect x="235.321" y="194.847" fill="#181514" width="27.993" height="2.422"/>
			<rect x="235.321" y="197.269" fill="#262626" width="27.993" height="2.423"/>
			<rect x="235.321" y="202.113" fill="#262626" width="27.993" height="2.423"/>
			<rect x="235.321" y="206.958" fill="#262626" width="27.993" height="2.423"/>
			<rect x="235.321" y="211.803" fill="#262626" width="27.993" height="2.423"/>
			<rect x="235.321" y="216.647" fill="#262626" width="27.993" height="2.422"/>
			<rect x="235.321" y="221.492" fill="#262626" width="27.993" height="2.423"/>
			<rect x="235.321" y="226.337" fill="#262626" width="27.993" height="2.423"/>
			<rect x="235.321" y="234.21" fill="#262626" width="27.993" height="4.173"/>
		</g>
	</g>
	<linearGradient id="SVGID_1_" gradientUnits="userSpaceOnUse" x1="122.9517" y1="247.3984" x2="122.9517" y2="87.5234">
		<stop  offset="0" style="stop-color:#323232"/>
		<stop  offset="1" style="stop-color:#000000"/>
	</linearGradient>
	<path fill="url(#SVGID_1_)" d="M219.575,237.709c0,5.352-4.337,9.689-9.688,9.689H36.017c-5.352,0-9.689-4.338-9.689-9.689V97.213
		c0-5.351,4.338-9.689,9.689-9.689h173.87c5.352,0,9.688,4.339,9.688,9.689V237.709z"/>
	<g>
		<polygon fill="#1D8C09" points="135.871,240.267 109.225,240.3 109.225,94.656 135.871,94.589 		"/>
		<polygon fill="#21BDE5" points="109.225,240.267 82.579,240.3 82.579,94.656 109.225,94.589 		"/>
		<polygon fill="#FFA800" points="82.579,240.267 55.933,240.3 55.933,94.656 82.579,94.589 		"/>
		<polygon fill="#D1D4D1" points="55.933,240.267 37.43,240.3 34.794,236.2 33.997,230.712 33.997,106.97 33.728,99.501 
			37.43,94.656 55.933,94.589 		"/>
		<polygon fill="#B2448D" points="161.709,240.267 135.063,240.3 135.063,94.656 161.709,94.589 		"/>
		<polygon fill="#DB1F37" points="188.354,240.267 161.709,240.3 161.709,94.656 188.354,94.589 		"/>
		<polygon fill="#173979" points="208.002,240.267 188.354,240.3 188.354,94.656 207.263,94.589 210.328,98.775 211.366,105.226 
			211.366,226.94 211.058,234.21 		"/>
	</g>
	<path fill="none" stroke="#232323" stroke-width="3" stroke-miterlimit="10" d="M211.366,231.786c0,5.351-4.338,9.69-9.688,9.69
		H43.418c-5.352,0-9.69-4.34-9.69-9.69v-128.65c0-5.352,4.339-9.689,9.69-9.689h158.26c5.351,0,9.688,4.338,9.688,9.689V231.786z"/>
</g>
</svg>
