<?xml version="1.0" encoding="utf-8"?>
<!-- Generator: Adobe Illustrator 16.0.0, SVG Export Plug-In . SVG Version: 6.00 Build 0)  -->
<!DOCTYPE svg PUBLIC "-//W3C//DTD SVG 1.1//EN" "http://www.w3.org/Graphics/SVG/1.1/DTD/svg11.dtd">
<svg version="1.1" id="Capa_1" xmlns="http://www.w3.org/2000/svg" xmlns:xlink="http://www.w3.org/1999/xlink" x="0px" y="0px"
	 width="150px" height="150px" viewBox="0 0 150 150" enable-background="new 0 0 150 150" xml:space="preserve">
<g>
	<defs>
		<rect id="SVGID_1_" x="2" y="2" width="146" height="146"/>
	</defs>
	<clipPath id="SVGID_2_">
		<use xlink:href="#SVGID_1_"  overflow="visible"/>
	</clipPath>
	<g clip-path="url(#SVGID_2_)">
		<path fill="#00749A" d="M375.203,59.468h-25.331v2.688c7.923,0,9.197,1.698,9.197,11.744v18.115
			c0,10.046-1.271,11.887-9.197,11.887c-6.081-0.85-10.188-4.104-15.849-10.33l-6.508-7.075c8.772-1.559,13.441-7.076,13.441-13.303
			c0-7.782-6.648-13.725-19.104-13.725H296.95v2.688c7.923,0,9.198,1.698,9.198,11.744v18.115c0,10.046-1.275,11.887-9.198,11.887
			v2.689h28.158v-2.689c-7.92,0-9.195-1.841-9.195-11.887v-5.091h2.404l15.709,19.667h41.177c20.235,0,29.011-10.753,29.011-23.633
			C404.211,70.08,395.438,59.468,375.203,59.468L375.203,59.468z M315.913,82.531V63.714h5.801c6.366,0,9.198,4.386,9.198,9.48
			c0,4.954-2.832,9.339-9.198,9.339L315.913,82.531z M375.629,102.203h-0.993c-5.094,0-5.801-1.271-5.801-7.781V63.714h6.794
			c14.716,0,17.402,10.752,17.402,19.102C393.031,91.447,390.342,102.203,375.629,102.203z M218.135,87.771l9.763-28.871
			c2.829-8.349,1.558-10.752-7.501-10.752v-2.832H247v2.832c-8.912,0-11.037,2.121-14.573,12.45l-16.134,48.397h-1.837
			L200.02,64.703l-14.714,44.292h-1.843L167.758,60.6c-3.397-10.33-5.662-12.45-13.87-12.45v-2.832h31.415v2.832
			c-8.351,0-10.615,1.98-7.641,10.75l9.48,28.871l14.291-42.453h2.689L218.135,87.771L218.135,87.771z M266.243,108.428
			c-15.563,0-28.301-11.461-28.301-25.471c0-13.87,12.737-25.332,28.301-25.332c15.565,0,28.303,11.462,28.303,25.332
			C294.546,96.967,281.809,108.428,266.243,108.428z M266.243,62.016c-13.017,0-17.546,11.742-17.546,20.941
			c0,9.342,4.529,20.944,17.546,20.944c13.161,0,17.69-11.603,17.69-20.944C283.934,73.757,279.404,62.016,266.243,62.016
			L266.243,62.016z"/>
		<path fill="#464342" d="M439.162,103.759v2.831h-32.407v-2.831c9.483,0,11.181-2.405,11.181-16.559V64.563
			c0-14.153-1.697-16.415-11.181-16.415v-2.832h29.293c14.574,0,22.643,7.5,22.643,17.548c0,9.764-8.068,17.404-22.643,17.404
			h-8.068V87.2C427.982,101.354,429.68,103.759,439.162,103.759L439.162,103.759z M436.048,50.41h-8.068v24.624h8.068
			c7.923,0,11.603-5.519,11.603-12.169C447.65,56.072,443.974,50.41,436.048,50.41z M555.903,93.289l-0.71,2.546
			c-1.271,4.67-2.832,6.368-12.877,6.368h-1.981c-7.358,0-8.631-1.698-8.631-11.743v-6.51c11.038,0,11.888,0.99,11.888,8.35h2.689
			V71.212h-2.689c0,7.358-0.85,8.35-11.888,8.35V63.714h7.78c10.048,0,11.605,1.697,12.877,6.367l0.71,2.688h2.262l-0.986-13.3
			h-41.605v2.688c7.923,0,9.198,1.697,9.198,11.745v18.113c0,9.19-1.082,11.507-7.328,11.837
			c-5.938-0.907-10.014-4.145-15.594-10.28l-6.508-7.075c8.772-1.559,13.443-7.076,13.443-13.303c0-7.782-6.65-13.725-19.103-13.725
			h-24.906v2.688c7.923,0,9.198,1.698,9.198,11.744v18.115c0,10.046-1.272,11.887-9.198,11.887v2.689h28.161v-2.689
			c-7.924,0-9.198-1.841-9.198-11.887v-5.091h2.407l15.706,19.667h58.158l0.85-13.3L555.903,93.289L555.903,93.289z M480.907,82.531
			V63.714h5.798c6.369,0,9.201,4.386,9.201,9.48c0,4.954-2.832,9.339-9.201,9.339L480.907,82.531z M584.629,108.428
			c-5.661,0-10.615-2.971-12.737-4.812c-0.71,0.709-1.979,2.831-2.261,4.812h-2.689V88.9h2.829
			c1.132,9.34,7.64,14.858,15.991,14.858c4.525,0,8.205-2.547,8.205-6.79c0-3.68-3.252-6.51-9.056-9.198l-8.068-3.821
			c-5.661-2.689-9.901-7.361-9.901-13.584c0-6.793,6.365-12.595,15.141-12.595c4.669,0,8.631,1.7,11.037,3.681
			c0.708-0.568,1.415-2.124,1.84-3.823h2.689v16.7h-2.972c-0.992-6.652-4.672-12.171-12.17-12.171c-3.961,0-7.643,2.263-7.643,5.804
			c0,3.679,2.972,5.658,9.765,8.771l7.78,3.82c6.794,3.254,9.483,8.493,9.483,12.736
			C601.893,102.203,594.109,108.428,584.629,108.428z M628.211,108.428c-5.662,0-10.615-2.971-12.734-4.812
			c-0.71,0.709-1.982,2.831-2.262,4.812h-2.689V88.9h2.829c1.132,9.34,7.641,14.858,15.991,14.858c4.526,0,8.208-2.547,8.208-6.79
			c0-3.68-3.254-6.51-9.058-9.198l-8.068-3.821c-5.661-2.689-9.905-7.361-9.905-13.584c0-6.793,6.368-12.595,15.142-12.595
			c4.671,0,8.63,1.7,11.04,3.681c0.704-0.568,1.414-2.124,1.837-3.823h2.688v16.7h-2.972c-0.989-6.652-4.668-12.171-12.166-12.171
			c-3.965,0-7.644,2.263-7.644,5.804c0,3.679,2.972,5.658,9.765,8.771l7.781,3.82c6.793,3.254,9.479,8.493,9.479,12.736
			C645.474,102.203,637.69,108.428,628.211,108.428L628.211,108.428z"/>
		<g>
			<path fill="#00749A" d="M12.376,74.998c0,24.791,14.406,46.21,35.295,56.363L17.798,49.512
				c-3.582,8.02-5.429,16.704-5.422,25.487V74.998z M117.279,71.838c0-7.74-2.782-13.099-5.167-17.271
				c-3.173-5.158-6.148-9.528-6.148-14.686c0-5.756,4.365-11.116,10.516-11.116c0.276,0,0.539,0.035,0.813,0.05
				c-11.145-10.207-25.989-16.44-42.292-16.44c-21.878,0-41.126,11.226-52.324,28.228c1.469,0.043,2.855,0.074,4.03,0.074
				c6.55,0,16.69-0.795,16.69-0.795c3.376-0.198,3.774,4.76,0.403,5.16c0,0-3.394,0.398-7.168,0.595l22.804,67.834l13.706-41.104
				l-9.757-26.731c-3.373-0.198-6.567-0.598-6.567-0.598c-3.375-0.197-2.979-5.356,0.396-5.158c0,0,10.341,0.795,16.495,0.795
				c6.55,0,16.69-0.795,16.69-0.795c3.377-0.199,3.773,4.759,0.4,5.158c0,0-3.399,0.4-7.166,0.598l22.631,67.32l6.246-20.874
				C115.219,83.421,117.279,77.199,117.279,71.838L117.279,71.838z"/>
			<path fill="#00749A" d="M76.099,80.477L57.31,135.073c5.744,1.694,11.702,2.553,17.691,2.553c7.292,0,14.287-1.261,20.796-3.55
				c-0.174-0.273-0.325-0.563-0.445-0.862L76.099,80.477z M129.951,44.953c0.269,1.996,0.423,4.137,0.423,6.439
				c0,6.356-1.188,13.499-4.761,22.431l-19.132,55.307c18.62-10.857,31.142-31.027,31.142-54.132
				C137.64,64.497,135.001,54.161,129.951,44.953L129.951,44.953z"/>
			<path fill="#00749A" d="M75.001,2C34.75,2,2,34.747,2,74.998c0,40.257,32.749,73.004,73.001,73.004
				c40.251,0,73.005-32.746,73.005-73.003C148.006,34.747,115.252,2,75.001,2z M75.001,144.654
				c-38.406,0-69.653-31.247-69.653-69.657c0-38.404,31.246-69.648,69.653-69.648c38.406,0,69.65,31.244,69.65,69.648
				C144.651,113.407,113.404,144.654,75.001,144.654L75.001,144.654z"/>
		</g>
	</g>
</g>
</svg>
